<?xml version="1.0" encoding="UTF-8" standalone="no"?>
<!-- Created with Inkscape (http://www.inkscape.org/) -->

<svg
   width="116.23995"
   height="231.79021"
   viewBox="0 0 30.755153 61.327825"
   version="1.1"
   id="svg1718"
   xmlns:inkscape="http://www.inkscape.org/namespaces/inkscape"
   xmlns:sodipodi="http://sodipodi.sourceforge.net/DTD/sodipodi-0.dtd"
   xmlns="http://www.w3.org/2000/svg"
   xmlns:svg="http://www.w3.org/2000/svg">
  <sodipodi:namedview
     id="namedview1720"
     pagecolor="#ffffff"
     bordercolor="#666666"
     borderopacity="1.0"
     inkscape:showpageshadow="2"
     inkscape:pageopacity="0.0"
     inkscape:pagecheckerboard="0"
     inkscape:deskcolor="#d1d1d1"
     inkscape:document-units="mm"
     showgrid="false" />
  <defs
     id="defs1715" />
  <g
     inkscape:label="Layer 1"
     inkscape:groupmode="layer"
     id="layer1"
     transform="translate(-0.23812199)">
    <g
       id="g1688"
       transform="translate(-73.266137,-117.27796)">
      <path
         style="fill:#fd0000;stroke-width:0.264583"
         d="m 73.504259,178.39543 c 0,-0.14627 0.54116,-2.72643 1.20258,-5.73369 0.66142,-3.00726 1.67368,-7.68132 2.24946,-10.3868 1.30773,-6.14478 3.98518,-18.58171 4.77563,-22.18311 l 0.59523,-2.71198 h 9.7011 9.701111 l -1.14872,5.22552 c -0.631791,2.87403 -1.400441,6.35661 -1.708091,7.73906 -0.30766,1.38245 -0.56033,2.7836 -0.5615,3.11368 -0.001,0.33007 -0.10109,0.66131 -0.22207,0.73608 -0.12097,0.0748 -0.1523,0.31223 -0.0696,0.52771 0.0827,0.21547 0.019,0.55003 -0.14156,0.74347 -0.16053,0.19344 -0.23411,0.40948 -0.16349,0.4801 0.0706,0.0706 -0.47349,2.85763 -1.20912,6.19336 -0.73563,3.33574 -1.84336,8.38669 -2.46162,11.22435 l -1.12412,5.15937 -9.7076,0.0694 c -6.37435,0.0456 -9.70761,-0.0219 -9.70761,-0.19653 z"
         id="path1480" />
      <path
         style="fill:#000000;stroke-width:0.264583"
         d="m 91.837629,133.11982 c -1.99733,-0.24734 -3.61242,-0.93182 -4.93148,-2.08997 -1.54399,-1.35564 -1.95368,-2.45753 -1.8807,-5.05821 0.0733,-2.61137 0.18561,-3.15598 0.8834,-4.28337 2.2469,-3.63023 7.89595,-5.31346 13.17819,-3.92665 2.330091,0.61175 3.579091,1.54784 4.455591,3.33935 0.9047,1.84913 0.96008,4.79191 0.12577,6.68249 -1.69776,3.84721 -6.470791,6.00012 -11.830771,5.33636 z"
         id="path1478" />
    </g>
  </g>
</svg>
