<?xml version="1.0" encoding="UTF-8" standalone="no"?>
<!-- Created with Inkscape (http://www.inkscape.org/) -->

<svg
   width="110"
   height="110"
   viewBox="0 0 29.104166 29.104166"
   version="1.1"
   id="svg1069"
   inkscape:version="1.2.2 (1:1.2.2+202212051551+b0a8486541)"
   sodipodi:docname="_R.svg"
   xmlns:inkscape="http://www.inkscape.org/namespaces/inkscape"
   xmlns:sodipodi="http://sodipodi.sourceforge.net/DTD/sodipodi-0.dtd"
   xmlns="http://www.w3.org/2000/svg"
   xmlns:svg="http://www.w3.org/2000/svg">
  <sodipodi:namedview
     id="namedview1071"
     pagecolor="#ffffff"
     bordercolor="#666666"
     borderopacity="1.0"
     inkscape:showpageshadow="2"
     inkscape:pageopacity="0.0"
     inkscape:pagecheckerboard="0"
     inkscape:deskcolor="#d1d1d1"
     inkscape:document-units="px"
     showgrid="false"
     inkscape:zoom="4.5690156"
     inkscape:cx="109.65163"
     inkscape:cy="82.184005"
     inkscape:window-width="1920"
     inkscape:window-height="1016"
     inkscape:window-x="0"
     inkscape:window-y="0"
     inkscape:window-maximized="1"
     inkscape:current-layer="layer1" />
  <defs
     id="defs1066" />
  <g
     inkscape:label="Layer 1"
     inkscape:groupmode="layer"
     id="layer1">
    <path
       style="fill:#000000;stroke-width:0.0855094"
       d="M 14.638491,0.00233487 C 13.635367,-0.00426082 12.638942,0.06961085 11.863621,0.22078394 9.0127773,0.78536131 6.5428745,2.0667049 4.4535751,4.0692865 L 3.64294,4.8472739 9.7400321,4.8875076 c 5.9745939,0.040234 6.1051919,0.046961 6.6375159,0.2292 0.298755,0.1021009 0.627887,0.2641572 0.73096,0.3609422 l 0.187067,0.177503 0.592391,-0.2950645 c 0.326197,-0.1612381 0.89203,-0.3542014 1.254061,-0.4274794 0.831975,-0.1687441 2.559101,-0.172675 3.339544,-0.0066 1.605245,0.3407858 2.491462,1.1804692 2.327976,2.2055044 -0.07831,0.4913257 -1.080125,2.6308338 -1.524269,3.2544817 -0.975678,1.370926 -2.723097,2.558518 -4.586676,3.11906 -0.07125,0.02032 0.05811,0.118986 0.301386,0.23255 0.856179,0.398564 1.32086,0.988561 1.482701,1.882541 0.160243,0.885061 0.07051,1.225412 -0.900706,3.452431 -0.393864,0.902989 -0.717103,1.690329 -0.717103,1.757526 0,0.06728 0.04867,0.168758 0.107393,0.2292 v 0.0066 c 0.241236,0.249396 1.102199,-0.01438 2.296804,-0.701675 0.338015,-0.194243 1.900737,-1.031631 6.180232,-3.310004 l 1.538131,-0.81623 0.05545,-0.385781 C 29.13227,15.256028 29.12263,13.959911 29.0221,13.042331 28.324636,6.6775103 23.694754,1.5660397 17.448017,0.26415715 16.651272,0.09681145 15.641628,0.00874588 14.638501,0 Z M 2.3958082,6.5147288 2.101345,7.0080596 C -0.79069893,11.822487 -0.69138067,17.796646 2.3611655,22.526768 2.9049668,23.369341 3.384276,23.963492 4.1660424,24.77054 v -0.0066 c 0.3066161,0.316554 0.5655464,0.572651 0.5750665,0.559196 C 5.036448,24.999169 12.802433,7.6565429 12.802433,7.3211391 c 0,-0.1150287 -0.116441,-0.3004334 -0.284071,-0.4482954 l -0.28753,-0.250038 -1.998876,-0.053821 C 9.1327879,6.5420745 6.9214587,6.5151641 5.3161741,6.5151641 Z M 18.95149,6.5685496 c -0.637405,0.053821 -1.238388,0.4220974 -1.576235,1.0003278 -0.121384,0.2076718 -0.732998,1.5187223 -1.361453,2.9141716 -0.628456,1.395396 -1.10777,2.535525 -1.063526,2.535525 0.185533,0 1.992879,-0.865169 2.598191,-1.243418 1.111843,-0.694776 1.445351,-1.100054 2.109731,-2.5737676 0.666568,-1.4786468 0.733323,-1.7502176 0.516176,-2.174386 C 20.047181,6.7789915 19.94612,6.7091037 19.592383,6.6203652 19.379592,6.5665445 19.163961,6.5497914 18.9515,6.5665445 Z m -4.63864,7.7419754 c -0.01817,0.02032 -0.480282,1.058448 -1.025419,2.306325 -0.545136,1.24801 -1.86827,4.271998 -2.941154,6.720818 l -1.9503781,4.452759 0.5473543,0.235902 c 1.0037582,0.431502 2.6773448,0.883847 3.8176128,1.031643 0.581134,0.07586 3.149988,0.05382 3.769111,-0.03351 2.347861,-0.327343 4.768697,-1.320257 6.692945,-2.743949 0.984816,-0.728598 2.479744,-2.255843 3.176724,-3.244074 0.917524,-1.300815 1.694088,-2.899331 2.147839,-4.431891 l 0.131634,-0.455037 -0.613171,0.336737 c -1.709249,0.935585 -7.707758,4.147379 -8.303824,4.445808 -1.36552,0.684104 -2.639486,1.001871 -3.793361,0.948182 -0.602332,-0.02691 -0.708369,-0.06054 -1.001171,-0.295078 -0.534311,-0.430829 -0.757262,-0.910996 -0.748279,-1.618594 0.0073,-0.573983 0.05169,-0.693022 1.004635,-2.823783 0.846147,-1.891959 0.995653,-2.289982 0.994243,-2.653616 -0.0022,-0.565923 -0.226963,-1.034665 -0.710174,-1.479596 -0.372634,-0.343464 -1.122664,-0.780138 -1.195168,-0.698141 z"
       id="path4504"
       inkscape:connector-curvature="0" />
  </g>
</svg>
