<?xml version="1.0" encoding="UTF-8" standalone="no"?>
<!-- Created with Inkscape (http://www.inkscape.org/) -->

<svg
   width="347.99716mm"
   height="70mm"
   viewBox="0 0 347.99716 70"
   version="1.1"
   id="svg391"
   xmlns="http://www.w3.org/2000/svg"
   xmlns:svg="http://www.w3.org/2000/svg">
  <defs
     id="defs388" />
  <g
     id="layer1">
    <g
       id="g852"
       transform="matrix(0.95229194,0,0,0.95229194,84.692376,-134.55168)">
      <path
         style="fill:#000000;stroke-width:0.264583"
         d="m -57.326757,214.44798 c -1.455209,-0.18845 -3.103904,-0.48005 -3.663768,-0.648 -0.850675,-0.25518 -0.993828,-0.39754 -0.871225,-0.86639 0.08069,-0.30856 0.397957,-1.81781 0.705035,-3.35389 0.598546,-2.99407 1.374865,-6.57702 1.98098,-9.14286 0.206256,-0.87313 0.622893,-2.83766 0.925862,-4.36563 0.302969,-1.52797 0.67523,-3.24786 0.827244,-3.82199 0.152014,-0.57412 0.373597,-1.58616 0.492405,-2.24896 0.630862,-3.51938 2.184459,-10.49662 2.38233,-10.69908 0.446365,-0.45671 0.931656,0.0536 1.385207,1.45669 0.252947,0.78249 1.071023,3.32772 1.817947,5.65605 1.272008,3.96514 3.40623,10.56895 5.387017,16.66875 l 0.859182,2.64583 8.107246,0.07 c 4.458986,0.0385 8.107246,0.1619 8.107246,0.27426 0,0.25726 -2.353088,2.04374 -4.099245,3.11216 -5.13057,3.13924 -9.085472,4.53494 -14.950755,5.27615 -3.598122,0.4547 -5.804265,0.45164 -9.392708,-0.0131 z m 103.540579,-1.84001 c -0.06867,-0.0687 0.11172,-1.25768 0.400857,-2.64226 l 0.525698,-2.51741 h 3.40169 c 6.128337,0 7.883853,-1.22903 7.888134,-5.52242 0.0016,-1.66437 -0.211474,-3.66255 -0.836134,-7.83904 -0.300334,-2.00805 -0.816054,-5.82611 -1.268706,-9.39271 -0.156985,-1.23693 -0.457499,-3.43959 -0.667814,-4.89479 -0.815601,-5.64337 -1.174755,-8.26147 -1.339559,-9.76492 -0.09422,-0.85956 -0.232682,-1.72276 -0.307689,-1.91823 -0.112286,-0.29261 1.267185,-0.3554 7.80837,-0.3554 h 7.944747 l 0.153935,1.78594 c 0.298553,3.46381 0.958842,10.02821 1.350634,13.42761 0.218036,1.89177 0.403265,3.97536 0.411626,4.6302 0.0084,0.65485 0.107196,1.4261 0.219636,1.7139 0.203668,0.52129 0.205473,0.52129 0.480113,0 0.300297,-0.57001 2.039829,-3.84389 3.349395,-6.30373 1.586841,-2.98066 3.230655,-6.01779 5.463556,-10.09454 0.39852,-0.7276 1.169506,-2.18612 1.713301,-3.24115 l 0.988716,-1.91823 h 3.803521 c 2.091936,0 3.80352,0.0644 3.80352,0.1431 0,0.21036 -1.837727,3.58718 -4.889812,8.98503 -1.481064,2.61937 -2.777443,4.94109 -2.880842,5.15937 -0.103399,0.21829 -0.57019,1.05601 -1.037317,1.86161 -0.467128,0.8056 -1.479458,2.59154 -2.249625,3.96875 -0.770168,1.37721 -1.510441,2.68261 -1.645047,2.90089 -0.134607,0.21829 -1.005319,1.7661 -1.934917,3.43959 -2.747785,4.94665 -2.988021,5.37454 -3.639479,6.48229 -1.156125,1.9659 -3.190591,4.68597 -4.300106,5.74921 -1.507455,1.44458 -3.228676,2.84975 -3.49073,2.84975 -0.119075,0 -0.404468,0.16325 -0.634209,0.36278 -0.94393,0.81981 -4.720023,2.01427 -7.561458,2.39186 -2.935968,0.39015 -10.792722,0.78424 -11.024005,0.55295 z m -74.932117,-8.13624 c -0.213532,-0.47294 -0.820484,-1.99099 -1.348783,-3.37343 -0.528298,-1.38245 -1.181486,-3.04933 -1.45153,-3.70417 -0.436518,-1.05854 -1.582124,-4.04835 -3.95383,-10.31875 -0.412814,-1.09141 -1.361491,-3.54465 -2.108174,-5.45166 -0.746681,-1.907 -1.357156,-3.63341 -1.356611,-3.83646 5.29e-4,-0.20304 0.566092,-0.59374 1.25677,-0.86821 5.810994,-2.30926 9.122305,-7.0962 9.171962,-13.2593 0.01775,-2.20301 -0.08769,-2.93366 -0.629978,-4.36562 -0.844873,-2.23095 -2.77404,-4.22732 -5.091552,-5.26892 -3.424598,-1.53919 -4.550939,-1.61138 -25.131642,-1.61079 -10.287011,2.9e-4 -18.765283,-0.0992 -18.840605,-0.22105 -0.247592,-0.40061 3.289536,-3.44421 5.99729,-5.1605 9.717703,-6.1595 21.721962,-7.43385 32.737596,-3.47538 0.654844,0.23532 1.303734,0.53858 1.441979,0.67391 0.138245,0.13533 0.390557,0.24606 0.560694,0.24606 0.517536,0 4.621671,2.39839 6.728577,3.93207 2.421956,1.76301 6.454992,5.83842 8.084465,8.1694 2.478905,3.54611 4.609537,7.96534 5.426475,11.25529 0.34376,1.38439 0.324141,1.3799 2.36406,0.54043 2.974441,-1.22404 11.6492921,-1.7733 16.1546647,-1.02286 1.5196741,0.25313 3.2625269,0.68683 3.8730079,0.96379 0.6104785,0.27695 1.2377606,0.50355 1.39396,0.50355 0.1561994,0 1.0356321,0.75163 1.9542919,1.67029 1.4845903,1.48459 1.7193735,1.86569 2.1117665,3.42781 0.242811,0.96664 0.441476,2.10727 0.441476,2.53474 0,1.25504 -0.78055,4.82642 -1.367679,6.25778 -1.0010881,2.44055 0.00992,2.24896 -11.8678776,2.24896 H -12.675229 l -0.163997,0.99219 c -0.0902,0.5457 -0.165309,2.39499 -0.16691,4.10954 -0.0041,4.38122 0.541544,5.48161 2.718121,5.48161 1.6245624,0 4.3169889,-2.50977 5.6133414,-5.23252 l 0.5291667,-1.11141 5.8869792,-0.003 5.8869792,-0.003 v 0.70231 c 0,1.41536 -1.6420174,7.06223 -2.180336,7.49813 -0.4840764,0.39198 -2.1166137,1.0562 -4.47676853,1.82144 -0.53270945,0.17272 -2.37817817,0.54796 -4.10104167,0.83387 -6.0315661,1.00092 -12.6885733,0.58237 -17.1224283,-1.07655 -0.84564,-0.3164 -1.626955,-0.47326 -1.736257,-0.34858 -0.109302,0.12467 -0.889677,1.11965 -1.734164,2.21105 -1.898602,2.45373 -3.843406,4.49792 -4.279249,4.49792 -0.180544,0 -0.50297,-0.38695 -0.716502,-0.8599 z m 25.6089891,-23.41562 c 0.6741239,-2.14057 0.6687925,-6.90443 -0.00889,-7.94955 -1.0470436,-1.61473 -3.0176788,-1.42024 -4.8691192,0.48057 -1.1541549,1.18492 -1.5416292,1.82666 -2.7124739,4.49241 -0.392467,0.89356 -0.981827,2.83313 -0.984859,3.24115 -7.93e-4,0.10914 1.8955018,0.19844 4.2140271,0.19844 3.7828273,0 4.2304706,-0.0475 4.3613229,-0.46302 z m 28.1523019,18.9585 c -2.96041,-0.64082 -4.644345,-1.31508 -6.598468,-2.6421 -4.998064,-3.39412 -6.635242,-10.85815 -3.999629,-18.23463 1.473261,-4.12333 5.393309,-8.20503 9.455428,-9.84535 4.128304,-1.66705 6.21493,-2.07976 11.378509,-2.25058 3.253875,-0.10764 4.908564,-0.035 7.14375,0.31348 3.479525,0.54252 5.098138,1.17313 6.910359,2.69227 l 1.355532,1.13631 -0.357257,1.66183 c -0.19649,0.91401 -0.470654,2.19761 -0.609253,2.85245 -0.760473,3.59305 -1.171657,5.02761 -1.442328,5.0321 -0.740135,0.0123 -8.812377,0.019 -9.191443,0.008 -0.365641,-0.0109 -0.419089,-0.46697 -0.396875,-3.38608 0.03372,-4.43065 -0.405074,-5.35781 -2.535669,-5.35781 -2.412791,0 -4.536726,2.51284 -6.261761,7.40833 -1.058545,3.00406 -1.893552,7.97253 -1.892861,11.26292 5.29e-4,1.99149 0.644559,4.24885 1.314762,4.60754 2.169311,1.16098 5.497179,-1.16695 6.990821,-4.89025 0.408641,-1.01865 0.833466,-2.03068 0.94406,-2.24896 0.168042,-0.33168 1.022194,-0.39687 5.199324,-0.39687 h 4.998247 l 0.08807,0.62216 c 0.04844,0.34219 -0.09028,1.41375 -0.308255,2.38125 -0.217977,0.9675 -0.673479,3.03397 -1.012227,4.59215 -0.606087,2.78789 -0.630706,2.83903 -1.543828,3.20643 -4.788919,1.92689 -14.256571,2.6387 -19.629004,1.47578 z m 151.309374,-0.0725 c -2.00948,-0.68475 -3.79194,-2.18388 -4.75975,-4.00318 -0.47064,-0.88471 -0.56345,-1.51409 -0.56575,-3.83646 -0.002,-1.69609 0.16512,-3.44795 0.42825,-4.49792 0.23706,-0.94588 0.61645,-2.61276 0.84309,-3.70416 0.22664,-1.09141 0.6634,-3.11547 0.97058,-4.49792 0.85984,-3.86972 1.20948,-5.49537 1.70716,-7.9375 0.25207,-1.23693 0.54399,-2.54661 0.6487,-2.91042 l 0.19038,-0.66145 7.32695,-0.0703 c 6.091,-0.0585 7.35097,-0.008 7.4694,0.30091 0.13438,0.35017 -0.25033,2.5258 -1.0821,6.11944 -0.37967,1.64049 -0.83502,3.75215 -1.5975,7.40833 -0.24275,1.16417 -0.66103,3.06917 -0.92951,4.23333 -0.94765,4.10947 -0.97665,6.51249 -0.0893,7.39983 0.57179,0.57179 2.95275,0.53474 3.81574,-0.0594 2.09561,-1.44271 2.2805,-1.81039 3.29208,-6.5467 0.24866,-1.16416 0.61865,-2.83104 0.82222,-3.70416 0.2036,-0.87313 0.55136,-2.54 0.77285,-3.70417 0.22148,-1.16417 0.63563,-3.1287 0.92032,-4.36563 1.19886,-5.20893 1.32771,-5.8213 1.32771,-6.30992 0,-0.28194 0.18833,-0.5849 0.41852,-0.67323 0.60944,-0.23386 14.20815,-0.18918 14.58105,0.0479 0.2376,0.15107 0.15441,0.94809 -0.33792,3.2371 -0.69546,3.23351 -1.34843,6.33245 -1.69905,8.06377 -0.1179,0.58208 -0.5247,2.48708 -0.90398,4.23333 -0.37928,1.74625 -0.74353,3.47266 -0.80941,3.83646 -0.0659,0.3638 -0.29567,1.37583 -0.51057,2.24896 -0.21492,0.87312 -0.76761,3.43297 -1.22819,5.68854 -0.46059,2.25557 -0.88099,4.25212 -0.93422,4.43676 -0.0753,0.26128 -1.43269,0.31994 -6.12243,0.26458 l -6.02568,-0.0711 -0.59909,-2.10722 c -0.32951,-1.15897 -0.71623,-2.22435 -0.85939,-2.36751 -0.17066,-0.17065 -0.55656,0.0179 -1.1207,0.54751 -4.18034,3.92471 -10.60561,5.58187 -15.36044,3.96165 z m 50.48338,0.0799 c -3.85218,-0.80741 -5.57853,-1.60224 -7.781,-3.58245 -1.67228,-1.50351 -2.44515,-2.66924 -3.33225,-5.02599 -0.58258,-1.54783 -0.66071,-2.16852 -0.66071,-5.24915 0,-4.92807 0.91453,-7.88639 3.54089,-11.45404 2.07571,-2.81965 5.01814,-4.82163 9.15911,-6.23173 3.29858,-1.12323 5.30394,-1.37994 10.71562,-1.37169 6.62567,0.0101 9.36072,0.57247 12.16396,2.50114 1.67822,1.15465 1.82607,1.53518 1.36554,3.51434 -0.21114,0.90737 -0.64503,2.8404 -0.96417,4.29561 -0.31914,1.4552 -0.62402,2.79466 -0.67749,2.97656 -0.11192,0.38051 -0.19881,0.38599 -5.64695,0.35568 -2.24282,-0.0125 -4.14782,-0.0927 -4.23334,-0.1782 -0.0855,-0.0855 -0.15546,-1.68467 -0.15546,-3.55361 0,-3.05416 -0.0569,-3.47369 -0.56232,-4.14509 -0.50512,-0.67102 -0.71795,-0.74613 -2.09206,-0.7384 -1.51874,0.009 -1.5394,0.0193 -2.87727,1.49766 -1.36424,1.50752 -1.77305,2.19241 -2.73336,4.57915 -1.44314,3.58678 -2.18604,7.67126 -2.18604,12.01886 0,3.09552 0.0516,3.45692 0.61077,4.28003 0.56168,0.82681 0.71847,0.89826 1.95196,0.88947 2.4529,-0.0175 4.72953,-2.30072 6.00321,-6.02067 l 0.56245,-1.64269 4.89466,-0.0653 c 2.69206,-0.0359 5.04624,0.0323 5.23153,0.1517 0.35785,0.23057 0.33419,0.40057 -0.74298,5.3376 -0.26985,1.23693 -0.56734,2.72302 -0.66106,3.30243 -0.26342,1.62837 -0.4972,1.86668 -2.42604,2.47296 -5.18298,1.62914 -13.53286,2.12012 -18.4672,1.08587 z m -124.75105,-0.2584 c 0,-0.152 0.17202,-1.0152 0.38225,-1.91823 0.43419,-1.86493 0.97358,-4.37739 1.60215,-7.46271 0.23717,-1.16417 0.59654,-2.83104 0.7986,-3.70417 0.20206,-0.87312 0.43799,-2.00422 0.52429,-2.51354 0.0863,-0.50932 0.32102,-1.64042 0.52157,-2.51354 0.42829,-1.86458 0.87888,-3.97316 2.1202,-9.92188 0.50104,-2.40109 1.09164,-5.19906 1.31243,-6.2177 0.64531,-2.97707 1.44389,-6.76445 1.75735,-8.33438 0.1598,-0.80036 0.52771,-2.52677 0.81758,-3.83646 0.28986,-1.30969 0.57877,-2.64914 0.64201,-2.97656 l 0.11499,-0.59531 h 7.53558 c 8.65655,0 7.85535,-0.32088 7.13116,2.85604 -0.59764,2.62178 -1.13856,5.12499 -1.26958,5.87521 -0.0635,0.3638 -0.4395,2.14974 -0.83547,3.96875 -0.39597,1.81901 -0.75082,3.54541 -0.78856,3.83646 -0.0377,0.29104 -0.26473,1.3626 -0.50444,2.38125 -0.55328,2.35117 -1.05996,4.69001 -1.63358,7.54062 -0.24891,1.23693 -0.61105,2.89873 -0.80476,3.6929 -0.19371,0.79418 -0.29573,1.50041 -0.22673,1.56942 0.069,0.069 0.51064,-0.23658 0.98141,-0.67909 0.47076,-0.44251 1.51077,-1.29246 2.31114,-1.88878 2.09709,-1.56246 4.24806,-3.22663 5.44363,-4.21165 0.57126,-0.47065 1.71164,-1.36362 2.53417,-1.98437 4.08242,-3.08094 5.42331,-4.13779 5.75143,-4.53316 0.30617,-0.36891 1.02292,-0.43194 4.91219,-0.43194 2.50454,0 4.62149,0.0678 4.70432,0.15061 0.16994,0.16994 -1.13214,1.37507 -3.99243,3.69517 -1.07009,0.868 -2.85603,2.32401 -3.96875,3.23558 -1.11271,0.91156 -2.94584,2.38934 -4.07363,3.28395 -1.12778,0.8946 -2.05052,1.73608 -2.05052,1.86996 0,0.13387 0.41672,0.95443 0.92604,1.82345 0.50933,0.86903 0.92605,1.62378 0.92605,1.67722 0,0.0534 0.63862,1.20792 1.41915,2.56551 0.78053,1.35759 1.83709,3.24225 2.3479,4.18814 1.94118,3.59454 2.66546,4.90331 2.85526,5.15937 0.33381,0.45037 2.37352,4.29117 2.37352,4.46938 0,0.0926 -3.71124,0.13691 -8.24721,0.0985 l -8.2472,-0.0699 -3.73888,-7.33383 c -2.05639,-4.03361 -3.81623,-7.41117 -3.91076,-7.5057 -0.0945,-0.0945 -0.22545,0.11007 -0.29095,0.45466 -0.17193,0.90448 -0.93026,4.57609 -1.35896,6.57966 -0.20239,0.94589 -0.62598,2.96995 -0.94132,4.49792 -0.31534,1.52797 -0.61641,2.92695 -0.66906,3.10885 -0.12533,0.43305 -15.19358,0.48698 -15.19358,0.0544 z m 45.24375,-0.073 c 0,-0.19217 0.2418,-1.47209 0.53732,-2.84427 0.29553,-1.37219 0.82718,-3.94223 1.18144,-5.71121 0.35426,-1.76898 0.81722,-3.97163 1.02879,-4.89479 0.21158,-0.92315 0.521,-2.39284 0.6876,-3.26596 0.16661,-0.87313 0.48551,-2.30188 0.70867,-3.175 0.22316,-0.87313 0.50005,-2.18282 0.61532,-2.91042 0.11527,-0.7276 0.51956,-2.75167 0.89842,-4.49792 0.37887,-1.74625 0.93418,-4.30609 1.23402,-5.68854 0.71313,-3.28791 1.17774,-5.47637 1.71322,-8.06979 0.24037,-1.16417 0.65598,-3.1287 0.92358,-4.36563 0.2676,-1.23692 0.58467,-2.7252 0.7046,-3.30729 l 0.21806,-1.05833 7.60097,-0.0702 7.60097,-0.0702 -0.14378,0.86394 c -0.0791,0.47517 -0.30874,1.63785 -0.51037,2.58374 -0.20163,0.94589 -0.5625,2.67229 -0.80192,3.83646 -0.23942,1.16417 -0.6574,3.1287 -0.92885,4.36562 -0.55399,2.52443 -1.16913,5.37712 -1.71161,7.9375 -0.20041,0.94589 -0.60755,2.85089 -0.90477,4.23334 -0.29721,1.38245 -0.67023,3.16838 -0.82893,3.96875 -0.15871,0.80036 -0.51106,2.46724 -0.78301,3.70416 -0.82668,3.76005 -1.55899,7.19813 -1.85976,8.73125 -0.15701,0.80037 -0.50602,2.40771 -0.77558,3.57188 -0.26956,1.16417 -0.69701,3.09893 -0.9499,4.29948 l -0.45981,2.18281 h -7.49734 c -6.0351,0 -7.49735,-0.0681 -7.49735,-0.34939 z m 105.43083,-0.37411 c 0.10231,-0.40244 0.28125,-1.26749 0.39761,-1.92233 0.11634,-0.65485 0.47575,-2.38125 0.79865,-3.83646 0.32289,-1.45521 0.68228,-3.18813 0.79862,-3.85093 0.11631,-0.6628 0.35224,-1.72785 0.52429,-2.36678 0.17206,-0.63893 0.41074,-1.70398 0.53044,-2.36678 0.25167,-1.39375 1.52334,-7.4503 2.53071,-12.05301 0.38219,-1.74625 0.7592,-3.53219 0.83781,-3.96875 0.0786,-0.43656 0.27527,-0.88122 0.43706,-0.98814 0.44284,-0.2926 14.65519,-0.24707 14.83728,0.0475 0.085,0.13752 -0.0305,1.06025 -0.25651,2.05053 -0.47755,2.09175 -0.99936,4.47814 -1.55086,7.09216 -0.5307,2.51548 -1.31461,6.14681 -2.28468,10.58334 -0.44545,2.03729 -1.05317,4.83526 -1.35043,6.21771 -0.29729,1.38244 -0.64804,2.98979 -0.77944,3.57187 -0.13141,0.58208 -0.27148,1.35599 -0.3113,1.71979 l -0.0724,0.66146 -7.63648,0.0703 -7.63648,0.0702 z M -53.490299,173.96641 c 0,-0.41082 0.167378,-1.4096 0.371951,-2.21951 0.342609,-1.3564 1.124112,-4.86184 1.802948,-8.08715 0.153141,-0.7276 0.500343,-2.16395 0.771562,-3.19187 0.271216,-1.02793 0.493122,-2.12926 0.493122,-2.4474 0,-0.556 0.101844,-0.57844 2.625532,-0.57844 2.405547,0 2.690564,0.0547 3.401648,0.65306 2.388309,2.00963 1.318728,10.20158 -1.859214,14.23977 -1.185892,1.5069 -2.560204,2.0907 -5.287738,2.24622 l -2.319811,0.13227 z"
         id="path856" />
      <path
         style="fill:#fc0600;stroke-width:0.264583"
         d="m -79.05299,203.22498 c -3.73547,-3.91563 -6.344119,-8.22006 -8.092249,-13.35272 -1.415669,-4.15652 -1.754037,-6.3991 -1.786772,-11.84206 -0.03009,-5.00368 0.127628,-6.27902 1.237298,-10.00482 0.238376,-0.80037 0.461347,-1.60721 0.495493,-1.79298 0.225032,-1.22434 2.491934,-5.94893 3.741628,-7.79817 l 0.67051,-0.99219 h 8.319414 8.319414 l -0.164605,0.8599 c -0.09053,0.47294 -0.401738,1.93146 -0.691567,3.24115 -0.289829,1.30968 -0.699605,3.21468 -0.910614,4.23333 -0.211008,1.01864 -0.558263,2.68552 -0.771676,3.70417 -0.213414,1.01864 -0.581902,2.80458 -0.818862,3.96875 -0.23696,1.16416 -0.647461,3.06916 -0.912224,4.23333 -0.264764,1.16417 -0.680113,3.06917 -0.922999,4.23333 -0.793275,3.80221 -1.160511,5.51938 -1.69753,7.9375 -0.738427,3.32505 -1.256265,5.73529 -1.762207,8.20209 -0.238772,1.16416 -0.591505,2.77151 -0.783852,3.57187 -0.192347,0.80037 -0.426431,2.01798 -0.520186,2.70581 -0.09376,0.68784 -0.252882,1.28865 -0.353614,1.33514 -0.100733,0.0465 -1.268393,-1.05306 -2.5948,-2.44343 z m 345.41415,-38.7351 c -3.76055,-0.67701 -5.55368,-3.40829 -4.71067,-7.17525 0.62823,-2.80721 3.30428,-4.76265 6.93815,-5.06982 3.42355,-0.2894 6.1002,0.69817 7.34316,2.70934 0.67567,1.09324 0.76629,4.4131 0.15238,5.58146 -0.5003,0.95213 -2.44938,2.81885 -3.47552,3.32867 -0.70554,0.35053 -1.27386,0.47574 -3.83646,0.84521 -0.3638,0.0525 -1.44878,-0.0464 -2.41104,-0.21961 z"
         id="path854" />
    </g>
  </g>
</svg>
