<?xml version="1.0" encoding="UTF-8" standalone="no"?>
<!-- Created with Inkscape (http://www.inkscape.org/) -->

<svg
   width="337"
   height="81"
   viewBox="0 0 89.164581 21.43125"
   version="1.1"
   id="svg225"
   xmlns:inkscape="http://www.inkscape.org/namespaces/inkscape"
   xmlns:sodipodi="http://sodipodi.sourceforge.net/DTD/sodipodi-0.dtd"
   xmlns="http://www.w3.org/2000/svg"
   xmlns:svg="http://www.w3.org/2000/svg">
  <sodipodi:namedview
     id="namedview227"
     pagecolor="#ffffff"
     bordercolor="#000000"
     borderopacity="0.25"
     inkscape:showpageshadow="2"
     inkscape:pageopacity="0.0"
     inkscape:pagecheckerboard="0"
     inkscape:deskcolor="#d1d1d1"
     inkscape:document-units="mm"
     showgrid="false" />
  <defs
     id="defs222" />
  <g
     inkscape:label="Layer 1"
     inkscape:groupmode="layer"
     id="layer1">
    <path
       style="fill:#000000;stroke-width:0.264583"
       d="m 5.2104175,20.761887 c -0.46942,-0.46942 -0.52781,-0.74561 -0.37759,-1.78594 0.30731,-2.12829 1.4476,-6.34228 2.13963,-7.90708 0.81435,-1.8413902 2.56216,-4.2046902 3.2775595,-4.4317502 0.78397,-0.24882 2.96223,0.77889 2.7612,1.30274 -0.0871,0.22701 -0.27038,0.41274 -0.40729,0.41274 -0.53227,0 -3.6444395,4.0757202 -3.3426295,4.3775302 0.21832,0.21833 6.0069395,-2.47859 7.7572795,-3.6141202 2.46662,-1.60022 3.76285,-2.76322 4.66852,-4.18865 1.325,-2.08544 0.77367,-3.3615 -1.61553,-3.73918 -4.14698,-0.65555 -10.8667695,1.62683 -14.5180595,4.93106 -1.6486,1.49189 -2.95952,3.64151 -2.96685,4.8649902 -0.007,1.13291 -0.28338,1.33805 -1.25388,0.92999 -1.66254,-0.69905 -1.77701,-2.4840102 -0.3021,-4.7107302 1.65757,-2.50247 5.74587,-5.01975 10.4235695,-6.41809 3.30435,-0.9878 7.47434,-1.0513 9.72562,-0.14812 2.09173,0.83917 3.37125,2.07932 3.37125,3.26749 v 0.91365 l 1.65365,-0.19267 c 0.90951,-0.10596 3.55865,-0.27539 5.88698,-0.3765 l 4.23333,-0.18384 0.93909,-0.90096 c 0.84956,-0.81507 0.98796,-0.86523 1.4517,-0.52614 0.49121,0.35918 0.49308,0.3964 0.0447,0.8919 -0.4553,0.5031 -0.44091,0.52155 0.53268,0.68244 0.55034,0.091 1.83406,0.17505 2.85271,0.18688 1.018637,0.0118 2.090207,0.12384 2.381247,0.2489 0.33029,0.14193 -0.88468,0.23438 -3.232797,0.24599 l -3.76196,0.0186 -1.90191,2.4474 c -2.32642,2.9936602 -4.77834,6.7236802 -6.44004,9.7969702 -1.13931,2.10713 -1.61402,2.599 -2.06914,2.14388 -0.19209,-0.19208 1.15322,-2.92719 2.85858,-5.81167 0.66128,-1.11852 1.16374,-2.07226 1.11657,-2.11943 -0.0472,-0.0472 -1.26426,0.6238 -2.70464,1.49104 -2.66,1.60158 -3.61561,1.86092 -4.49298,1.21937 -1.43193,-1.04705 0.88481,-5.5759902 3.14217,-6.1425602 0.77999,-0.19576 2.27261,0.53836 2.27261,1.11774 0,0.23375 -0.4252,0.826 -0.94488,1.3161302 -0.73907,0.69703 -1.16899,0.89113 -1.97376,0.89113 -0.97139,0 -1.04662,0.0592 -1.34647,1.06004 -0.17468,0.58302 -0.23072,1.14691 -0.12454,1.25309 0.10617,0.10618 0.69079,-0.0888 1.29916,-0.43331 0.60836,-0.3445 2.20843,-1.21573 3.55572,-1.93607 1.34728,-0.72034 2.58356,-1.5679202 2.74729,-1.8835002 0.16372,-0.31558 0.8771,-1.36226 1.58529,-2.32594 0.70818,-0.96369 1.2876,-1.82689 1.2876,-1.91823 0,-0.26034 -2.41337,-0.18313 -6.9609,0.22269 -4.03136,0.35975 -4.20318,0.39919 -4.74617,1.08949 -1.54693,1.96661 -5.2368,4.4366402 -8.85884,5.9302002 -2.43152,1.00264 -2.85841,1.3212 -1.77815,1.32694 2.46894,0.0131 9.85081,2.29285 10.11801,3.12474 0.078,0.24276 -0.20874,0.18679 -0.93118,-0.18177 -2.52774,-1.28956 -9.33297,-2.38495 -12.6258695,-2.03231 l -1.72181,0.18439 -0.79962,2.49627 c -0.4398,1.37295 -0.79963,2.85204 -0.79963,3.28686 0,0.93091 -0.31952,1.00024 -1.08446,0.2353 z M 27.706727,9.4028068 c 0.35568,-0.53897 0.35851,-0.59781 0.0194,-0.40426 -0.65928,0.37629 -1.5875,1.2820602 -1.5875,1.5491102 0,0.37458 1.09108,-0.42199 1.56811,-1.1448502 z M 74.285814,19.853577 c -0.27152,-0.32717 -0.27193,-0.62026 -0.002,-1.52073 0.35518,-1.18549 2.26683,-5.05969 3.17959,-6.44385 l 0.54681,-0.82922 -1.26302,0.26938 c -0.85155,0.18162 -1.65102,0.6129 -2.45396,1.32382 -0.65501,0.57994 -1.58591,1.2447 -2.06866,1.47724 -0.79056,0.38082 -0.94822,0.38267 -1.5875,0.0187 -0.72579,-0.41327 -0.83827,-0.91566 -0.46169,-2.06217 0.20412,-0.62144 0.18342,-0.61777 -1.29952,0.23069 -1.3109,0.75002 -1.5944,0.82235 -2.17908,0.55595 -0.57136,-0.26033 -0.6507,-0.43375 -0.52925,-1.15673 0.0786,-0.46777 0.23435,-1.08249 0.34614,-1.36604 0.18382,-0.4662102 0.11634,-0.4547402 -0.70509,0.11983 -0.4996,0.34946 -1.69479,1.38801 -2.65597,2.30789 -1.2152,1.16298 -1.88019,1.62163 -2.18281,1.50551 -0.58038,-0.2227 -0.54898,-0.96684 0.0939,-2.22706 0.29104,-0.57049 0.52917,-1.11443 0.52917,-1.20876 0,-0.20844 -1.08433,0.0378 -2.51355,0.57084 l -1.05833,0.39471 -0.005,1.64296 c -0.006,1.86133 -0.54597,3.0272 -1.72517,3.72377 -1.50542,0.88927 -3.42996,0.26968 -3.42806,-1.10362 0.001,-0.9852 0.78757,-2.18056 2.22377,-3.38107 1.12808,-0.94295 1.21483,-1.10456 1.21483,-2.26315 0,-1.0327602 0.12009,-1.3421502 0.69714,-1.7960602 0.40678,-0.31997 1.08685,-0.54837 1.63281,-0.54837 0.51462,0 1.1435,-0.18808 1.39752,-0.41796 0.36734,-0.33244 0.57697,-0.35635 1.02447,-0.11685 0.55922,0.29928 0.55802,0.30542 -0.19891,1.01327 -0.41884,0.39169 -0.81809,0.88242 -0.88721,1.0905 -0.0803,0.24189 -0.29684,0.31265 -0.60028,0.19621 -0.30355,-0.11648 -0.41506,-0.33731 -0.30939,-0.61268 0.14945,-0.38946 0.10788,-0.3927 -0.43557,-0.0339 -0.33044,0.21815 -0.64004,0.72694 -0.68802,1.1306402 -0.0738,0.62059 -0.0124,0.70382 0.39687,0.53874 0.26626,-0.10739 1.20997,-0.32341 2.09713,-0.48006 1.55134,-0.27391 1.64023,-0.33322 2.32495,-1.5513202 0.88425,-1.57304 3.5641,-5.17879 4.45618,-5.99581 0.49667,-0.45489 0.84109,-0.56481 1.36093,-0.43434 0.38278,0.0961 0.69596,0.26572 0.69596,0.37699 0,0.11127 -1.13902,1.72835 -2.53116,3.59351 -1.39214,1.86517 -2.66085,3.6335302 -2.81936,3.9297002 -0.28144,0.52588 -0.27328,0.52762 0.34835,0.0745 1.54675,-1.1275402 3.01233,-2.0365102 3.28361,-2.0365102 0.16198,0 0.5246,0.16825 0.80584,0.37389 0.50275,0.36762 0.50117,0.3948 -0.0938,1.6194902 -0.33284,0.68508 -0.55823,1.29254 -0.50086,1.34991 0.28346,0.28345 3.35437,-1.44543 3.85822,-2.1721202 0.50839,-0.73325 0.70982,-0.81705 2.04857,-0.85227 1.87974,-0.0495 2.47978,0.25976 2.47978,1.27791 0,0.4533602 0.14033,0.7844402 0.33248,0.7844402 0.97385,0 2.22718,-0.62504 2.90692,-1.4496902 0.76726,-0.93082 1.3353,-1.12624 2.01748,-0.69408 0.2854,0.1808 0.14251,0.53019 -0.67463,1.6496002 -0.57019,0.78111 -1.30901,1.83693 -1.6418,2.34625 -0.54907,0.8403 -0.55256,0.8648 -0.0377,0.26458 1.53681,-1.7916 3.57453,-3.6926902 4.26438,-3.9784302 0.98147,-0.40654 2.35787,0.0812 2.35787,0.83553 0,0.4140002 0.21005,0.5001802 1.25677,0.5156702 1.5939,0.0236 2.80733,0.46383 1.35599,0.49197 -2.11284,0.041 -2.57569,0.27852 -3.71937,1.90895 -1.36431,1.94496 -2.52132,2.72405 -3.49542,2.35369 -0.3793,-0.14421 -0.68963,-0.43959 -0.68963,-0.65641 0,-0.55765 1.44607,-2.13603 2.59819,-2.83592 1.11831,-0.67935 1.36085,-0.96539 1.36651,-1.6116102 0.007,-0.78971 -0.50797,-0.52321 -2.30029,1.1906302 -1.07093,1.02404 -2.68152,3.08913 -4.23019,5.42395 -1.37546,2.07368 -2.65595,3.77032 -2.84554,3.77032 -0.1896,0 -0.49608,-0.18238 -0.68107,-0.40527 z m -19.02892,-3.21703 c 1.04765,-0.61886 1.83904,-2.72351 1.32298,-3.5184 -0.21275,-0.3277 -0.41686,-0.23887 -1.21583,0.52917 -1.19484,1.14859 -1.7861,2.24687 -1.57227,2.92058 0.20072,0.63241 0.48796,0.64587 1.46512,0.0687 z m 27.10568,-3.25687 c 0.26339,-0.29104 0.41936,-0.52917 0.3466,-0.52917 -0.0728,0 -0.34779,0.23813 -0.61118,0.52917 -0.26339,0.29104 -0.41936,0.52917 -0.3466,0.52917 0.0728,0 0.34779,-0.23813 0.61118,-0.52917 z m -9.60537,-0.69744 c 1.1597,-0.80367 1.24168,-1.08239 0.4111,-1.39767 -0.50777,-0.19275 -0.68265,-0.0845 -1.18927,0.73613 -0.97174,1.57405 -0.77721,1.73942 0.77817,0.66154 z m 2.05544,-2.19558 c 0.34206,-0.6391602 0.35465,-1.3403102 0.0241,-1.3403102 -0.48772,0 -1.68664,1.2369002 -1.49675,1.5441602 0.29786,0.48194 1.1703,0.36117 1.47269,-0.20385 z m -40.606407,3.68326 c -0.19938,-0.32261 0.91198,-2.81827 2.03426,-4.5680902 0.66872,-1.04266 0.90957,-1.23355 1.37377,-1.08882 0.30959,0.0965 0.64492,0.30354 0.74518,0.46004 0.12047,0.18805 0.36361,0.12046 0.71695,-0.19931 0.82043,-0.74249 1.87889,-0.38069 1.87889,0.64223 0,0.6958802 0.0913,0.7887102 0.77574,0.7887102 0.54904,0 0.931077,-0.2181702 1.307347,-0.7465902 0.46857,-0.65805 0.70982,-0.75129 2.03404,-0.78613 1.91713,-0.0504 2.49745,0.25408 2.49745,1.31052 0,0.7859602 0.0332,0.8099802 0.8599,0.6224002 1.29339,-0.29347 1.64308,-0.29413 1.76026,-0.003 0.0586,0.14552 -0.67997,0.44317 -1.64137,0.66145 -1.14339,0.2596 -2.00391,0.63923 -2.48787,1.09753 -1.08881,1.0311 -2.73132,2.07747 -3.26103,2.07747 -0.254607,0 -0.726627,-0.21353 -1.048927,-0.47451 -0.51365,-0.41593 -0.55348,-0.58745 -0.32259,-1.38907 0.14488,-0.503 0.3486,-1.1229 0.45271,-1.37756 0.1501,-0.36716 0.0539,-0.46302 -0.46479,-0.46302 -0.35975,0 -0.98788,-0.26256 -1.39585,-0.58347 l -0.74176,-0.5834702 -1.41616,1.5756602 c -0.77889,0.86661 -1.68155,1.96179 -2.0059,2.43374 -0.58221,0.84713 -1.32781,1.11532 -1.65025,0.59361 z m 9.822217,-1.37643 c 1.28739,-0.98869 1.36813,-1.34518 0.36413,-1.60774 -0.42404,-0.11089 -0.65172,0.0785 -1.06245,0.88357 -0.28752,0.56358 -0.52277,1.08897 -0.52277,1.16753 0,0.29802 0.48505,0.12191 1.22109,-0.44336 z m 2.20919,-2.30683 c 0.34206,-0.6391602 0.35465,-1.3403102 0.0241,-1.3403102 -0.48772,0 -1.68664,1.2369002 -1.49675,1.5441602 0.29786,0.48194 1.1703,0.36117 1.47269,-0.20385 z"
       id="path201" />
  </g>
</svg>
