<?xml version="1.0" encoding="UTF-8" standalone="no"?>
<!-- Created with Inkscape (http://www.inkscape.org/) -->

<svg
   xmlns:dc="http://purl.org/dc/elements/1.1/"
   xmlns:cc="http://creativecommons.org/ns#"
   xmlns:rdf="http://www.w3.org/1999/02/22-rdf-syntax-ns#"
   xmlns:svg="http://www.w3.org/2000/svg"
   xmlns="http://www.w3.org/2000/svg"
   xmlns:sodipodi="http://sodipodi.sourceforge.net/DTD/sodipodi-0.dtd"
   xmlns:inkscape="http://www.inkscape.org/namespaces/inkscape"
   width="40px"
   height="40px"
   viewBox="0 0 40 40"
   version="1.1"
   id="SVGRoot"
   inkscape:version="0.92.4 (5da689c313, 2019-01-14)"
   sodipodi:docname="close.svg">
  <defs
     id="defs3850" />
  <sodipodi:namedview
     id="base"
     pagecolor="#ffffff"
     bordercolor="#666666"
     borderopacity="1.0"
     inkscape:pageopacity="0.0"
     inkscape:pageshadow="2"
     inkscape:zoom="11.313708"
     inkscape:cx="21.406223"
     inkscape:cy="35.084575"
     inkscape:document-units="px"
     inkscape:current-layer="layer1"
     showgrid="false"
     inkscape:window-width="1920"
     inkscape:window-height="1024"
     inkscape:window-x="0"
     inkscape:window-y="27"
     inkscape:window-maximized="1" />
  <metadata
     id="metadata3853">
    <rdf:RDF>
      <cc:Work
         rdf:about="">
        <dc:format>image/svg+xml</dc:format>
        <dc:type
           rdf:resource="http://purl.org/dc/dcmitype/StillImage" />
        <dc:title></dc:title>
      </cc:Work>
    </rdf:RDF>
  </metadata>
  <g
     inkscape:label="Layer 1"
     inkscape:groupmode="layer"
     id="layer1">
    <path
       inkscape:connector-curvature="0"
       id="path3728"
       d="m 19.054303,39.987403 c -0.0587,-0.01529 -0.10679,-0.0497 -0.10679,-0.0766 0,-0.0268 -0.28147,-0.0682 -0.625499,-0.0919 -0.933229,-0.0644 -1.635559,-0.167212 -2.761327,-0.404202 -0.636819,-0.134049 -2.010818,-0.54608 -2.241797,-0.67226 -0.0583,-0.0318 -0.1479,-0.0579 -0.19916,-0.0579 -0.0513,0 -0.14088,-0.0231 -0.19915,-0.0512 -0.0583,-0.0282 -0.25744,-0.12449 -0.442569,-0.214009 -0.18513,-0.0895 -0.37099,-0.162772 -0.41303,-0.162772 -0.042,0 -0.42188,-0.16555 -0.844089,-0.367901 -0.5264,-0.25227 -0.777549,-0.40579 -0.799129,-0.48847 -0.0173,-0.0663 -0.0547,-0.106201 -0.0831,-0.0886 -0.0284,0.0176 -0.10077,0.007 -0.16087,-0.0245 -0.0601,-0.031 -0.2139798,-0.107649 -0.3419499,-0.170231 -0.12797,-0.0626 -0.277589,-0.163259 -0.332489,-0.223729 -0.0943,-0.10386 0.186929,-0.39722 5.0840639,-5.30334 2.851147,-2.856366 5.205684,-5.193851 5.232314,-5.194411 0.0935,-0.002 10.551627,10.50931 10.527698,10.581222 -0.0434,0.130439 -1.490409,0.89156 -2.494517,1.312103 -0.383738,0.160719 -0.72517,0.311949 -0.758729,0.336069 -0.0336,0.0241 -0.157139,0.0613 -0.274611,0.0826 -0.11747,0.0213 -0.405809,0.116912 -0.640748,0.212501 -0.61884,0.25177 -2.678227,0.745671 -3.090547,0.741192 -0.079,-7.94e-4 -0.432059,0.0414 -0.784469,0.0939 -0.352409,0.0525 -0.764329,0.0877 -0.915359,0.0781 -0.18829,-0.01191 -0.27013,0.006 -0.26036,0.056 0.0105,0.0544 -0.221159,0.074 -0.893428,0.0758 -0.49922,0.0011 -0.945,0.0132 -0.990629,0.0263 -0.0456,0.0132 -0.13101,0.0114 -0.18975,-0.004 z m 12.803796,-15.07196 c -2.871866,-2.877146 -5.221575,-5.269211 -5.221575,-5.315711 0,-0.0465 2.276448,-2.365394 5.058774,-5.15311 3.726086,-3.733287 5.084896,-5.05853 5.157905,-5.03045 0.0545,0.021 0.116861,0.0869 0.13853,0.1465 0.0217,0.0596 0.110299,0.218911 0.19695,0.353981 0.28589,0.445671 0.310589,0.487351 0.343649,0.579871 0.01799,0.0504 0.0898,0.201781 0.159451,0.336301 0.0697,0.13452 0.176339,0.34089 0.23704,0.458591 0.192068,0.372461 0.476958,1.019202 0.611078,1.387253 0.523951,1.437912 0.665871,1.894573 0.8896,2.862345 0.15585,0.674172 0.32677,1.706834 0.36654,2.214645 0.0217,0.27641 0.0599,0.489841 0.0851,0.474281 0.02511,-0.0156 0.0447,0.1235 0.0434,0.30903 -0.0011,0.185531 0.0154,0.355031 0.037,0.376661 0.0506,0.0507 0.0516,2.065134 0.0011,2.115764 -0.02101,0.021 -0.0374,0.218231 -0.0364,0.438211 7.93e-4,0.219971 -0.02299,0.399951 -0.0534,0.399951 -0.0303,0 -0.0552,0.0721 -0.0552,0.1603 0,0.535931 -0.43298,2.756056 -0.66635,3.416707 -0.0356,0.10089 -0.13761,0.428921 -0.22661,0.728961 -0.204211,0.688453 -0.576259,1.647945 -0.814868,2.101505 -0.10101,0.192001 -0.183711,0.395619 -0.18378,0.452481 -6e-5,0.0569 -0.0259,0.11934 -0.0574,0.13883 -0.0315,0.0195 -0.158768,0.23577 -0.282889,0.480632 -0.124119,0.244859 -0.28879,0.524501 -0.365918,0.62142 L 37.07954,30.146625 31.857967,24.915443 Z M 2.7151521,29.820602 c 0,-0.0661 -0.0491,-0.14649 -0.1092,-0.1787 -0.0601,-0.0322 -0.1397,-0.1226 -0.17697,-0.20087 -0.5019,-1.054133 -0.812259,-1.741385 -0.812259,-1.798614 0,-0.0374 -0.1528,-0.403991 -0.23991,-0.57551 -0.0256,-0.0504 -0.0816,-0.243052 -0.12439,-0.428012 -0.0787,-0.34016 -0.10223,-0.409511 -0.269609,-0.794891 -0.0757,-0.174241 -0.22560999,-0.685932 -0.37625999,-1.284053 -0.18079,-0.717771 -0.45316,-2.598165 -0.45391,-3.133696 -2.3e-4,-0.24024 -0.0247,-0.351581 -0.0768,-0.351581 -0.0978,0 -0.10266,-2.065904 -0.005,-2.129674 0.0345,-0.0225 0.0804,-0.316141 0.10186,-0.652441 0.0339,-0.529901 0.10372,-1.096652 0.256259,-2.078944 0.0209,-0.134521 0.0617,-0.299611 0.0907,-0.366871 0.029,-0.0673 0.0649,-0.232351 0.0798,-0.366871 0.0318,-0.28671 0.26887,-1.203202 0.37958999,-1.467493 0.0423,-0.10089 0.11021,-0.307251 0.15099,-0.458591 0.0408,-0.15133 0.15322,-0.44835 0.249869,-0.660051 0.0967,-0.2117 0.17573,-0.418821 0.17573,-0.460271 0,-0.0414 0.0362,-0.12964 0.0804,-0.19598 0.0442,-0.0663 0.13128,-0.258181 0.19344,-0.426331 0.13414,-0.362821 0.615089,-1.306143 0.732539,-1.436793 0.0454,-0.0505 0.13604,-0.22849 0.20138,-0.395511 0.0653,-0.16701 0.16275,-0.331441 0.21646,-0.36539 0.0802,-0.0507 0.994819,0.839361 5.103474,4.966039 2.7531969,2.765266 5.0058139,5.05115 5.0058139,5.07973 0,0.0286 -0.674199,0.723322 -1.498208,1.543874 -0.824019,0.820551 -1.6684279,1.667423 -1.8764879,1.881933 -0.47348,0.488181 -0.0106,0.026 -3.696516,3.691428 -1.750048,1.740353 -3.209116,3.164277 -3.242376,3.164277 -0.0333,0 -0.0605,-0.0541 -0.0605,-0.120142 z M 14.832718,7.867619 9.8330631,2.860149 9.9813132,2.738089 C 10.114963,2.628048 10.391903,2.483228 11.685671,1.846897 c 0.21816,-0.1073 0.56142,-0.257131 0.762799,-0.332941 0.20138,-0.0758 0.41382,-0.16317 0.47211,-0.19411 0.0583,-0.031 0.18535,-0.0563 0.28239,-0.0563 0.097,0 0.209089,-0.0394 0.249019,-0.0876 0.0642,-0.0775 0.29877,-0.153271 0.796689,-0.257271 0.0839,-0.0175 0.23494,-0.0708 0.33563,-0.11835 0.22128,-0.10453 1.001939,-0.295661 1.586618,-0.388451 0.23494,-0.0373 0.674309,-0.10845 0.976379,-0.15815 0.30207,-0.0497 0.649909,-0.0905 0.772969,-0.0906 0.12461,-1.11e-4 0.23502,-0.0341 0.24918,-0.0766 0.0356,-0.10707 3.707206,-0.11899 3.707206,-0.012 0,0.0434 0.161549,0.0882 0.410399,0.113711 0.948819,0.0974 2.915287,0.481801 3.034397,0.593151 0.0319,0.0298 0.1066,0.0542 0.166029,0.0542 0.0594,0 0.43152,0.10701 0.82687,0.2378 1.177007,0.389371 2.114528,0.788662 2.423477,1.032162 0.0952,0.075 0.225739,0.136381 0.290149,0.136381 0.12858,0 0.7582,0.328031 0.903829,0.470901 0.0809,0.0794 -0.494749,0.672921 -4.973444,5.12752 -2.785737,2.770755 -5.078714,5.03707 -5.095494,5.03625 -0.0168,-9.26e-4 -2.280357,-2.254845 -5.030154,-5.00896 z"
       style="fill:#2e2e2e;stroke-width:0.06108459" />
  </g>
</svg>
