<?xml version="1.0" encoding="UTF-8" standalone="no"?>
<svg
   xmlns:dc="http://purl.org/dc/elements/1.1/"
   xmlns:cc="http://creativecommons.org/ns#"
   xmlns:rdf="http://www.w3.org/1999/02/22-rdf-syntax-ns#"
   xmlns:svg="http://www.w3.org/2000/svg"
   xmlns="http://www.w3.org/2000/svg"
   xmlns:sodipodi="http://sodipodi.sourceforge.net/DTD/sodipodi-0.dtd"
   xmlns:inkscape="http://www.inkscape.org/namespaces/inkscape"
   width="210mm"
   height="35.228001mm"
   viewBox="0 0 210 35.228001"
   version="1.1"
   id="svg8"
   inkscape:version="1.0.2 (e86c870879, 2021-01-15)"
   sodipodi:docname="dekujeme.svg">
  <defs
     id="defs2" />
  <sodipodi:namedview
     id="base"
     pagecolor="#ffffff"
     bordercolor="#666666"
     borderopacity="1.0"
     inkscape:pageopacity="0.0"
     inkscape:pageshadow="2"
     inkscape:zoom="0.26279139"
     inkscape:cx="481.7659"
     inkscape:cy="-98.910397"
     inkscape:document-units="mm"
     inkscape:current-layer="layer1"
     inkscape:document-rotation="0"
     showgrid="false"
     inkscape:window-width="1920"
     inkscape:window-height="1032"
     inkscape:window-x="0"
     inkscape:window-y="25"
     inkscape:window-maximized="1" />
  <metadata
     id="metadata5">
    <rdf:RDF>
      <cc:Work
         rdf:about="">
        <dc:format>image/svg+xml</dc:format>
        <dc:type
           rdf:resource="http://purl.org/dc/dcmitype/StillImage" />
        <dc:title></dc:title>
      </cc:Work>
    </rdf:RDF>
  </metadata>
  <g
     inkscape:label="Layer 1"
     inkscape:groupmode="layer"
     id="layer1">
    <g
       id="g1018"
       transform="matrix(0.43089077,0,0,0.43089077,59.593551,-48.198576)">
      <path
         style="fill:#fefefe;stroke-width:0.264583"
         d="m -92.794818,170.19861 v -0.13229 h 0.132292 0.132292 v 0.13229 0.1323 h -0.132292 -0.132292 z m 1.322917,-0.26458 v -0.13229 h 0.132292 0.132291 v 0.13229 0.13229 h -0.132291 -0.132292 z m -8.995829,-0.26458 v -0.13229 h 0.13229 0.13229 v 0.13229 0.13229 h -0.13229 -0.13229 z m -0.79375,-0.26459 v -0.13229 h 0.13229 0.13229 v 0.13229 0.1323 h -0.13229 -0.13229 z m 11.641662,0 v -0.13229 h 0.132292 0.132292 v 0.13229 0.1323 h -0.132292 -0.132292 z m -12.435412,-0.26458 v -0.13229 h 0.13229 0.13229 v 0.13229 0.13229 h -0.13229 -0.13229 z m -2.24896,-1.17675 -1.32292,-0.77491 -0.74934,-0.61732 -0.74933,-0.61732 1.63753,-3.56623 1.63753,-3.56622 3.1467,-7.07313 3.146702,-7.07313 v -0.36895 -0.36895 l -0.369644,-0.30678 -0.369644,-0.30678 -5.951624,0.0759 -5.95162,0.0759 0.48575,-0.66146 0.48575,-0.66146 1.00687,-1.07388 1.00687,-1.07388 -0.47028,0.56949 -0.47028,0.5695 3.62097,0.17365 3.62097,0.17366 h 3.868043 3.868044 l 0.581295,0.40716 0.581297,0.40715 0.854681,-0.44197 0.854684,-0.44197 1.634884,-0.13123 1.634884,-0.13124 1.340885,0.32168 1.340887,0.32167 0.674206,0.67421 0.674206,0.6742 v 0.50062 0.50061 l -0.919044,1.9367 -0.919043,1.9367 -1.210514,1.11581 -1.210514,1.11582 -1.599811,0.75659 -1.599813,0.75659 0.767442,0.39686 0.767443,0.39686 0.316092,0.69375 0.316095,0.69375 v 0.92857 0.92857 l -0.926042,2.23707 -0.926041,2.23709 v 0.26148 0.26149 h 0.516596 0.516596 l 2.063091,-1.08791 2.063092,-1.0879 3.471095,-1.8274 3.471095,-1.82739 -0.196342,1.0737 -0.196339,1.07371 -0.103122,0.10312 -0.103124,0.10312 -5.525518,2.96666 -5.525516,2.96667 -1.193895,0.35931 -1.193893,0.35931 h -1.234747 -1.234744 l -0.575289,-0.61237 -0.575286,-0.61236 v -0.85769 -0.85769 l 1.20882,-2.77615 1.208821,-2.77616 -0.172189,-0.78396 -0.172188,-0.78396 -0.916546,-0.69909 -0.916545,-0.69908 -0.208481,0.23915 -0.208484,0.23915 -3.417335,7.86549 -3.417329,7.86548 -0.13229,0.003 -0.1323,0.003 -1.32291,-0.77491 z m 11.325775,-17.75898 1.638806,-0.81177 0.6301,-0.57729 0.630102,-0.57729 0.758751,-1.5875 0.758754,-1.5875 2.09e-4,-0.5424 2.09e-4,-0.54239 -0.3175,-0.3175 -0.3175,-0.3175 h -0.681961 -0.681964 l -0.626001,0.43847 -0.626004,0.43847 -1.37364,2.93496 -1.373638,2.93497 -0.167592,0.46302 -0.167592,0.46302 h 0.138827 0.138826 z m 5.210681,18.40656 v -0.13229 h 0.132291 0.132292 v 0.13229 0.1323 h -0.132292 -0.132291 z m 0.529166,-0.26458 v -0.13229 h 0.132292 0.132292 v 0.13229 0.13229 h -0.132292 -0.132292 z m 68.038265,-1.5963 -0.569516,-0.72402 v -0.56983 -0.56984 l 0.500644,-0.98198 0.500645,-0.98199 h -0.441772 -0.441775 l -0.562549,-0.39402 -0.562546,-0.39403 -0.943034,0.39403 -0.943033,0.39402 h -0.917316 -0.917315 l -0.684424,-0.26022 -0.684425,-0.26021 -0.161689,-0.80845 -0.161692,-0.80846 -0.163296,0.0903 -0.163298,0.0903 -1.766311,0.8398 -1.76631,0.83981 -1.065467,0.17037 -1.065469,0.17038 -0.669922,-0.16814 -0.66992,-0.16814 -0.16301,-0.64948 -0.16301,-0.64948 0.61444,-1.71326 0.614439,-1.71325 -0.203565,-0.20356 -0.203568,-0.20357 -0.428575,0.27034 -0.428577,0.27034 -1.045697,2.43228 -1.045697,2.43228 h -2.084911 -2.084911 v -0.14543 -0.14543 l 0.418862,-0.80999 0.418859,-0.80998 -0.220422,0.1082 -0.220424,0.10821 -1.5875,0.78107 -1.5875,0.78106 h -2.734887 -2.734889 l -0.665076,-0.7732 -0.665075,-0.77319 0.158962,-0.99409 0.158962,-0.99409 1.089488,-2.52968 1.089485,-2.52968 1.001067,-0.90441 1.001067,-0.9044 1.536681,-0.31901 1.536679,-0.31902 1.259837,0.14921 1.25984,0.14921 0.536742,0.28726 0.536742,0.28725 v 1.21144 1.21144 l -0.5725,1.01862 -0.572503,1.01863 -0.827688,0.39277 -0.827686,0.39276 -1.179499,0.27181 -1.179499,0.27181 -0.839378,0.006 -0.839377,0.006 -0.309221,0.93695 -0.309224,0.93695 0.148108,0.38597 0.148109,0.38596 h 1.015262 1.015264 l 1.636313,-0.55259 1.636313,-0.55259 1.282991,-1.15352 1.282988,-1.15352 3.019052,-6.88776 3.019049,-6.88775 2.050521,-0.005 2.050521,-0.005 v 0.15279 0.15279 l -1.752031,4.0144 -1.752034,4.0144 -0.224152,0.43032 -0.224153,0.43032 0.973797,-0.49646 0.973793,-0.49647 h 1.346349 1.346348 l 0.3175,0.3175 0.3175,0.3175 v 0.69133 0.69133 l -0.727604,0.68075 -0.727605,0.68076 -0.872662,0.44047 -0.872664,0.44048 0.607764,0.49214 0.607763,0.49214 -0.46777,1.2621 -0.46777,1.26211 0.266999,0.267 0.266999,0.267 0.870098,-0.41492 0.870096,-0.41492 0.813443,-0.68446 0.813443,-0.68447 1.276283,-2.91963 1.276284,-2.91963 h 1.909358 1.90936 l -1.691531,3.83014 -1.691534,3.83015 v 0.53548 0.53548 h 0.223575 0.223576 l 0.394874,-0.46302 0.394873,-0.46302 1.782918,-4.10104 1.782919,-4.10105 0.223157,-0.23004 0.223158,-0.23005 1.476518,0.84478 1.476515,0.84477 v 0.11184 0.11184 l -1.353529,3.03774 -1.353526,3.03774 0.150918,0.39329 0.150921,0.3933 0.776401,-0.27066 0.776401,-0.27065 1.040834,-0.89092 1.040837,-0.89092 1.407996,-3.19446 1.407996,-3.19447 h 0.2534864 0.253484 l 1.2954953,0.7276 1.2954978,0.72761 2.646e-4,0.30905 2.646e-4,0.30906 -1.4348301,3.19667 -1.4348327,3.19668 h 0.6111795 0.6111796 l 1.2759293,-0.8599 1.2759292,-0.8599 1.0875301,-2.16438 1.0875275,-2.16438 0.3607223,-0.43464 0.3607223,-0.43465 1.0760339,-0.55554 1.076034,-0.55554 2.3070449,-0.0204 2.3070423,-0.0204 0.5710184,0.57031 0.5710185,0.57031 -0.1736673,1.1581 -0.1736698,1.15811 -0.5286375,0.86927 -0.5286375,0.86928 -1.1281701,0.49904 -1.1281674,0.49904 -1.69925732,0.21056 -1.69925728,0.21057 -0.2422367,0.84503 -0.2422392,0.84503 0.1719791,0.44817 0.1719792,0.44817 1.4937502,-0.15417 1.49375012,-0.15417 1.66615528,-0.82024 1.6661553,-0.82025 0.7370233,-0.89543 0.7370234,-0.89543 1.1683206,-2.73065 1.1683206,-2.73065 0.1885817,-0.21919 0.1885791,-0.21919 1.2962493,0.65686 1.2962522,0.65686 0.65414,-0.36215 0.65414,-0.36214 1.434375,-0.009 1.434375,-0.009 0.459795,0.41611 0.459798,0.41612 0.804667,-0.41612 0.804669,-0.41611 h 1.559632 1.559631 l 0.437883,0.48386 0.437883,0.48385 v 0.85256 0.85255 l -1.058334,2.48656 -1.058333,2.48656 v 0.14578 0.14578 h 0.679932 0.679934 l 1.198419,-0.82453 1.198417,-0.82453 0.990616,-2.15437 0.990613,-2.15438 0.951569,-0.83548 0.951571,-0.83549 1.526633,-0.31693 1.526635,-0.31693 1.259838,0.14921 1.25984,0.14921 0.536741,0.28725 0.536742,0.28726 v 1.21144 1.21143 l -0.5725,1.01863 -0.572503,1.01863 -0.827688,0.39276 -0.827686,0.39277 -1.179499,0.27181 -1.179499,0.27181 -0.839377,0.006 -0.839378,0.006 -0.309221,0.93695 -0.309224,0.93695 0.148109,0.38597 0.148108,0.38596 h 1.015262 1.015264 l 1.636313,-0.55259 1.636313,-0.55259 1.340432,-1.20517 1.34043,-1.20516 0.283175,0.28318 0.283176,0.28317 -0.169402,0.67495 -0.169402,0.67495 -1.397556,1.05517 -1.397556,1.05516 -1.310859,0.60436 -1.310857,0.60436 H 26.31091 23.576021 l -0.610579,-0.70984 -0.610582,-0.70984 -0.09411,-0.26856 -0.09411,-0.26855 -1.911241,0.95042 -1.911239,0.95042 -1.299194,0.12483 -1.299194,0.12484 -0.587439,-0.58744 -0.587438,-0.58744 0.162772,-0.81387 0.162774,-0.81387 1.319996,-2.89834 1.319995,-2.89834 v -0.36127 -0.36127 h -0.364479 -0.364477 l -0.273987,0.33073 -0.273986,0.33073 -1.773179,4.10104 -1.773177,4.10104 -0.193143,0.21031 -0.193141,0.2103 -1.989121,-0.078 -1.989122,-0.078 1.924793,-4.36562 1.924794,-4.36563 -0.22352,-0.23357 -0.22352,-0.23357 -0.36893,0.14158 -0.368932,0.14157 -1.9639572,4.51907 -1.9639571,4.51907 -2.0813791,0.005 -2.0813791,0.005 0.133133,-0.46302 0.1331304,-0.46302 0.1903121,-0.46223 0.1903095,-0.46222 -1.809361,0.8467 -1.80936102,0.84671 -2.25353558,0.0943 -2.2535356,0.0943 -0.9260416,-0.47877 -0.9260417,-0.47877 -0.079438,-0.68324 -0.079439,-0.68324 -1.7726448,0.87143 -1.7726452,0.87143 -0.437951,0.12462 -0.437952,0.12461 -0.87268,1.63731 -0.872678,1.63731 -1.046752,0.69271 -1.046756,0.69271 -1.901745,0.096 -1.901746,0.096 -0.569515,-0.72402 z m 3.836659,-3.05801 0.583798,-1.15954 -0.118065,-0.11806 -0.118068,-0.11807 -0.706927,0.5278 -0.706924,0.52779 -0.515604,0.6906 -0.515607,0.6906 0.171781,0.44764 0.171778,0.44765 0.585017,-0.38844 0.58502,-0.38844 z m -27.953279,-7.31809 0.80291,-0.7276 0.240104,-0.85633 0.240104,-0.85633 -0.25776,-0.1593 -0.257759,-0.15931 -0.39732,0.15247 -0.397317,0.15247 -0.648345,1.46602 -0.648346,1.46602 v 0.12475 0.12475 h 0.260408 0.260411 z m 42.60576332,0.32625 0.77613403,-0.40135 0.40135174,-0.77613 0.40135439,-0.77613 v -0.54231 -0.5423 H 0.51181326 0.15594603 l -0.4052808,0.46302 -0.40527816,0.46302 -0.54689377,1.25677 -0.5468911,1.25677 h 0.1305534 0.1305533 z m 29.36090168,-0.32625 0.80291,-0.7276 0.240104,-0.85633 0.240104,-0.85633 -0.25776,-0.1593 -0.257759,-0.15931 -0.39732,0.15247 -0.397317,0.15247 -0.648345,1.46602 -0.648346,1.46602 v 0.12475 0.12475 h 0.260408 0.260411 z m -59.548743,-1.08637 0.644776,-0.46718 0.104876,-0.31463 0.104878,-0.31463 h -0.555101 -0.555101 l -0.988303,0.9473 -0.988301,0.9473 0.79375,-0.16549 0.79375,-0.16549 z m 216.383901,11.68129 -0.45503,-0.50278 -0.048,-0.51508 -0.048,-0.51508 0.0419,-0.71839 0.0419,-0.7184 0.85989,-0.97936 0.85987,-0.97936 0.75671,-0.46018 0.75671,-0.46017 -0.58518,-0.31318 -0.58518,-0.31318 -0.70067,0.65497 -0.70069,0.65497 -0.92605,0.48191 -0.92604,0.4819 -1.77792,0.0113 -1.77789,0.0113 -0.60336,-0.60279 -0.60333,-0.60278 0.0313,-1.11701 0.0313,-1.117 0.69633,-1.55428 0.6963,-1.55427 v -0.0994 -0.0994 l -0.59531,0.004 -0.59531,0.004 -0.3048,0.19439 -0.3048,0.19438 -1.15041,2.23883 -1.15041,2.23882 -1.11922,0.85033 -1.11924,0.85034 -1.47724,0.18457 -1.47728,0.18457 -1.06206,-0.14245 -1.06207,-0.14245 -0.50863,-0.46031 -0.50864,-0.4603 v -0.91972 -0.91973 l 1.07458,-2.4502 1.07458,-2.45021 0.95988,-1.12141 0.95988,-1.12141 0.86747,-0.36244 0.86746,-0.36245 h 0.92813 0.92816 l 0.86627,-0.52818 0.8663,-0.52818 0.53644,-0.001 0.53645,-0.001 0.62042,0.43456 0.62042,0.43457 -0.15221,1.28522 -0.15222,1.28523 h 0.77086 0.77084 l 0.29599,-0.33073 0.29596,-0.33073 2.17199,-4.89479 2.17197,-4.89479 2.04039,-0.0773 2.04041,-0.0773 v 0.23354 0.23355 l -1.71979,3.91072 -1.71979,3.91072 v 0.0614 0.0614 l 1.28677,-0.12364 1.28678,-0.12365 0.43301,0.61823 0.43302,0.61823 v 0.87243 0.87242 l -0.66146,1.62786 -0.66146,1.62786 v 0.35126 0.35126 h 0.75806 0.75809 l 0.66122,-0.52013 0.66124,-0.52012 1.39856,-3.1179 1.39859,-3.11789 0.0933,-0.11102 0.0933,-0.11101 1.33056,0.6232 1.33054,0.6232 0.23059,0.28156 0.23055,0.28157 -1.28846,2.8726 -1.28847,2.8726 -0.15896,0.50084 -0.15897,0.50083 h 0.42527 0.42524 l 0.98163,-0.50342 0.98165,-0.50341 0.56031,-0.62107 0.56031,-0.62106 1.12025,-2.17786 1.12024,-2.17786 0.88636,-0.5478 0.88635,-0.5478 1.5507,-0.28838 1.55067,-0.28838 1.23706,0.18551 1.23706,0.18551 0.4291,0.42909 0.42907,0.42909 -0.12441,1.29467 -0.12438,1.29467 -0.51371,0.7079 -0.51372,0.70789 -1.1794,0.59272 -1.17941,0.59272 -1.63388,0.17078 -1.63388,0.17077 -0.30525,0.73693 -0.30525,0.73693 0.0978,0.48395 0.0978,0.48395 1.47215,-0.028 1.47214,-0.028 1.42999,-0.65731 1.43002,-0.65732 0.87392,-0.73906 0.87392,-0.73906 0.78748,-1.56002 0.7875,-1.56001 0.96454,-1.06763 0.96454,-1.06764 0.81148,-0.41963 0.8115,-0.41964 1.29125,-0.0262 1.29124,-0.0263 1.77806,-3.96875 1.77805,-3.96875 2.15654,-0.0768 2.15656,-0.0768 -0.87802,1.9289 -0.87802,1.9289 -2.73642,6.02781 -2.7364,6.02782 0.25635,0.25636 0.25636,0.25636 1.37371,-0.68455 1.37372,-0.68455 0.50821,-0.71372 0.50821,-0.71371 1.25754,-2.90154 1.25754,-2.90153 0.0868,-0.10892 0.0868,-0.10892 1.25809,0.68377 1.2581,0.68376 0.66146,-0.36703 0.66145,-0.36704 1.63865,-0.009 1.63864,-0.009 0.41188,0.58804 0.41188,0.58804 -0.005,0.66873 -0.005,0.66873 -0.94557,2.24896 -0.94559,2.24896 -0.13878,0.46302 -0.13877,0.46302 h 0.60293 0.60294 l 1.1503,-0.67413 1.15033,-0.67413 0.82632,-1.64097 0.82634,-1.64098 0.75486,-1.1006 0.75486,-1.1006 0.87582,-0.5413 0.87585,-0.54129 1.12998,-0.18069 1.12999,-0.18069 0.7562,0.55909 0.75623,0.55909 0.091,-0.27288 0.091,-0.27289 1.50244,0.0812 1.50243,0.0812 -1.57361,3.56201 -1.57358,3.56201 v 0.2083 0.2083 h 0.57206 0.57208 l 1.13043,-0.66248 1.13043,-0.66248 0.50253,-0.72658 0.50252,-0.72658 1.03613,-2.44136 1.03611,-2.44136 1.91167,-0.006 1.91169,-0.006 -0.23206,0.59531 -0.23207,0.59531 -1.48116,3.28655 -1.48119,3.28654 v 0.48377 0.48377 h 0.38571 0.38573 l 0.65165,-1.12448 0.65164,-1.12448 1.5141,-3.57187 1.51411,-3.57188 0.093,-0.10892 0.0931,-0.10891 1.39038,0.74129 1.39039,0.7413 0.1978,0.17397 0.1978,0.17397 -1.57609,3.1966 -1.57613,3.19659 -1.22861,1.08146 -1.2286,1.08146 -1.4379,0.53799 -1.43791,0.53799 h -0.90368 -0.90366 l -0.66625,-0.30356 -0.66624,-0.30357 -0.28686,-0.86917 -0.28687,-0.86916 -0.93128,0.63198 -0.93128,0.63199 -1.44528,0.54075 -1.44526,0.54074 h -0.77068 -0.77068 l -0.24712,-0.44155 -0.24709,-0.44155 -0.93052,0.44155 -0.93051,0.44155 h -1.04881 -1.04881 l -0.69712,-0.54837 -0.69715,-0.54837 v -0.53201 -0.53201 l -0.19844,0.10007 -0.19844,0.10007 -1.75024,0.85626 -1.75027,0.85626 -1.32565,0.157 -1.32564,0.15701 -0.5919,-0.59191 -0.5919,-0.5919 0.13981,-0.86166 0.13983,-0.86165 1.34517,-2.85175 1.34517,-2.85175 v -0.35785 -0.35785 h -0.36449 -0.36447 l -0.30919,0.37255 -0.30919,0.37255 -1.82859,4.19151 -1.82856,4.19151 -2.12796,0.0769 -2.12797,0.0768 v -0.15613 -0.15613 l 0.41886,-0.80999 0.41887,-0.80998 -0.22043,0.10821 -0.22042,0.1082 -1.55933,0.7517 -1.55932,0.7517 -1.10476,0.12452 -1.10475,0.12452 -0.42193,-0.42193 -0.42193,-0.42193 -0.94038,0.39292 -0.94041,0.39292 h -0.89884 -0.89887 l -0.69712,-0.54837 -0.69716,-0.54837 v -0.66823 -0.66824 l -0.85989,0.57071 -0.8599,0.57071 -1.19062,0.54232 -1.19063,0.54232 -2.24895,0.1357 -2.24896,0.13571 -0.99645,-0.41729 -0.99647,-0.41729 -0.16013,-0.80062 -0.16013,-0.80062 -0.76636,0.5457 -0.76637,0.54571 -1.38435,0.48129 -1.38433,0.48128 -0.81081,1.54727 -0.81084,1.54727 -1.12406,0.79004 -1.12408,0.79003 -1.90347,0.0961 -1.90346,0.0961 -0.45501,-0.50279 z m 3.72841,-3.22873 0.62378,-1.11362 -0.14552,-0.14551 -0.1455,-0.14551 -0.81298,0.57889 -0.81299,0.57889 -0.4037,0.78066 -0.40367,0.78066 0.1683,0.27234 0.16833,0.27235 0.57009,-0.37277 0.5701,-0.37277 z m -16.70722,-2.61716 0.3207,-0.2038 1.19536,-2.69601 1.19533,-2.696 -0.16398,-0.81999 -0.16402,-0.81999 -0.34377,0.35041 -0.34378,0.35042 -1.35339,3.11082 -1.3534,3.11082 0.1623,0.26262 0.16229,0.26261 0.18283,-0.004 0.18283,-0.004 0.3207,-0.20381 z m 11.39351,-0.3834 0.26966,-0.33073 1.35025,-3.00028 1.35025,-3.00028 v -0.25927 -0.25926 l -0.55663,0.0845 -0.55663,0.0846 -1.42775,3.12271 -1.42774,3.1227 v 0.38302 0.38303 h 0.36449 0.36446 z m 30.77019,-3.24115 1.53824,-3.43958 0.0153,-0.19844 0.0153,-0.19843 h -0.35586 -0.35587 l -0.39277,0.46302 -0.39275,0.46302 -1.23806,2.91041 -1.2381,2.91042 0.003,0.35013 0.003,0.35013 0.4309,-0.0855 0.4309,-0.0855 1.53823,-3.43959 z m 23.57943,2.97657 0.33348,-0.59532 1.26402,-2.89647 1.26405,-2.89648 -0.24752,-0.24751 -0.24751,-0.24751 -0.35399,0.13585 -0.35401,0.13584 -1.38359,3.19809 -1.38356,3.1981 v 0.40536 0.40536 h 0.38756 0.38757 z m -33.51694,-4.48375 0.65831,-0.78237 v -0.79286 -0.79285 l -0.46302,0.0889 -0.46302,0.0889 -0.72141,1.31962 -0.72144,1.31961 -0.006,0.30596 -0.006,0.30596 0.53231,-0.1392 0.53229,-0.1392 0.65834,-0.78237 z m -26.79102,-3.16152 -0.2858,-0.28581 -0.28765,0.17777 -0.28763,0.17776 v 0.49151 0.4915 l 0.33073,0.11807 0.33073,0.11807 0.24272,-0.50153 0.24271,-0.50153 z m -262.798578,13.92912 v -0.13229 h 0.132292 0.132292 v 0.13229 0.13229 h -0.132292 -0.132292 z m -24.234642,-2.81901 -0.18879,-0.30546 0.30547,0.18879 0.30546,0.18878 v 0.11668 0.11668 h -0.11667 -0.11668 z m -0.90077,-1.14974 v -0.13229 h 0.13229 0.13229 v 0.13229 0.13229 h -0.13229 -0.13229 z m 45.203753,-0.95931 0.498552,-1.15736 3.2356,-7.23751 3.235603,-7.23751 -0.223737,-0.21661 -0.223734,-0.21661 -0.79375,-0.0865 -0.79375,-0.0865 -0.0822,-0.57741 -0.0822,-0.57741 0.586845,-0.31407 0.586849,-0.31407 2.052735,0.11883 2.052736,0.11883 0.628766,0.41199 0.628769,0.41198 0.754862,-0.39551 0.754858,-0.39551 1.503381,-0.13632 1.503384,-0.13632 1.226468,0.54252 1.226468,0.54253 0.177776,0.70832 0.177779,0.70832 -0.672311,1.62603 -0.672309,1.62602 -2.055789,4.4615 -2.055786,4.46148 -1.265293,1.38444 -1.26529,1.38443 -1.664624,0.7523 -1.66462,0.7523 -3.907293,0.11538 -3.907295,0.11538 z m 6.843361,-1.54546 0.850241,-0.51842 0.922928,-1.26653 0.922924,-1.26653 2.274763,-5.00798 2.274761,-5.00799 -0.07918,-0.68055 -0.07918,-0.68056 -0.814099,-0.0795 -0.814102,-0.0795 -0.566486,0.47637 -0.566484,0.47637 -3.162842,7.0776 -3.162845,7.07761 0.57468,-0.001 0.574678,-0.001 0.850244,-0.51842 z m 97.452837,2.1695 -0.645375,-0.52259 0.0083,-0.89399 0.0083,-0.89398 3.091881,-6.87487 3.091881,-6.87486 -0.121697,-0.31714 -0.121695,-0.31713 -0.872901,-0.084 -0.8729,-0.084 -0.08153,-0.4309 -0.08153,-0.43091 0.462984,-0.46298 0.462986,-0.46299 2.153825,0.13437 2.153827,0.13438 0.56828,0.30413 0.568283,0.30414 0.168717,0.67223 0.168719,0.67223 -3.203093,7.18346 -3.203096,7.18347 0.264088,0.26409 0.264086,0.26408 0.970106,-0.52065 0.970105,-0.52065 1.281443,-1.71979 1.281446,-1.71979 1.534644,-3.04271 1.534647,-3.04271 1.17003,-3.23758 1.17003,-3.23759 2.05052,-0.004 2.050545,-0.004 v 0.21317 0.21317 l -0.951452,2.36652 -0.95145,2.36652 -1.289751,2.51354 -1.289748,2.51354 -1.472253,1.85208 -1.472256,1.85209 -1.77665,1.52796 -1.776648,1.52795 -1.928299,0.96465 -1.928297,0.96466 -1.38185,0.11459 -1.381847,0.11459 z m 13.832937,0.15304 -0.576479,-0.2787 -0.311865,-0.75291 -0.311864,-0.75291 0.546521,-1.79475 0.546518,-1.79475 0.9549,-1.5875 0.954899,-1.5875 0.688697,-0.72291 0.688698,-0.7229 1.140685,-0.43564 1.140687,-0.43563 0.847471,0.16949 0.847474,0.1695 0.48038,0.43474 0.480383,0.43474 v -0.30559 -0.30559 h 1.567399 1.5674 l -1.5674,3.57432 -1.567399,3.57431 v 0.26214 0.26215 h 0.542305 0.542306 l 0.714465,-0.37431 0.714465,-0.3743 0.838743,-0.88247 0.838745,-0.88247 1.255932,-2.91041 1.255934,-2.91042 0.102751,-0.12486 0.102749,-0.12485 1.279667,0.71933 1.279666,0.71934 0.75624,-0.39441 0.75624,-0.39441 1.434375,-0.002 1.434375,-0.002 0.444031,0.40184 0.444035,0.40185 0.767424,-0.40022 0.767426,-0.40021 1.406456,-0.002 1.406457,-0.002 0.490267,0.26238 0.490268,0.26238 0.17249,0.78535 0.172492,0.78535 -0.965652,2.32571 -0.965655,2.3257 -0.142219,0.59531 -0.142216,0.59531 h 0.577402 0.577406 l 0.577919,-0.29586 0.577918,-0.29587 1.003004,-0.95901 1.003004,-0.95902 0.249716,0.39498 0.249714,0.39499 0.004,0.37138 0.004,0.37137 -1.119166,1.03321 -1.119164,1.0332 -1.634109,0.77989 -1.634109,0.77989 -1.208492,0.16564 -1.208492,0.16564 -0.668441,-0.43798 -0.668443,-0.43798 0.0068,-0.85379 0.0068,-0.8538 1.437778,-3.17241 1.43778,-3.17241 -0.236159,-0.23616 -0.236159,-0.23616 -0.357164,0.13706 -0.357166,0.13706 -1.96936,4.52828 -1.969363,4.52828 h -2.056881 -2.056884 v -0.1316 -0.13161 l 1.852083,-4.21626 1.852084,-4.21626 v -0.28234 -0.28235 h -0.36448 -0.364477 l -0.274179,0.33073 -0.274177,0.33073 -1.86394,4.23334 -1.863939,4.23333 -2.127612,0.0769 -2.127613,0.0768 v -0.15613 -0.15613 l 0.40367,-0.78061 0.403669,-0.78061 -0.07294,0.003 -0.07294,0.003 -1.528675,0.77528 -1.528678,0.77529 -1.193696,0.179 -1.193697,0.17901 -0.494715,-0.44771 -0.494716,-0.44771 -0.804666,0.41611 -0.80467,0.41611 -1.005326,-0.0179 -1.005327,-0.0179 -0.576479,-0.27871 z m 3.280471,-1.75073 0.322739,-0.20506 1.446326,-3.29662 1.446326,-3.29661 -0.229928,-0.23357 -0.229928,-0.23357 -0.373481,0.14332 -0.37348,0.14332 -1.364094,3.09921 -1.364096,3.09921 v 0.49677 0.49677 l 0.198437,-0.004 0.198438,-0.004 0.322741,-0.20506 z m 31.656665,1.67212 -0.165851,-0.43221 0.76197,-0.80023 0.761974,-0.80022 3.108854,-2.79974 3.108854,-2.79975 v -0.22069 -0.22069 h -1.702567 -1.702567 l -0.678683,0.25803 -0.678683,0.25804 v -0.53112 -0.53112 l 0.383128,-0.91695 0.383127,-0.91695 0.669253,-0.30493 0.669255,-0.30494 1.842855,0.30434 1.842857,0.30435 h 1.999554 1.999556 v 0.2205 0.2205 l -0.8599,0.93462 -0.859893,0.93462 -2.874219,2.61519 -2.874216,2.61519 1.948174,0.13229 1.948177,0.13229 0.885468,-0.17634 0.885471,-0.17634 0.662659,-0.61741 0.662659,-0.61741 0.8962,-1.77323 0.89619,-1.77323 0.8607,-0.98028 0.8607,-0.98028 1.0606,-0.48183 1.0606,-0.48182 0.57809,-0.006 0.57809,-0.006 0.74483,0.30576 0.74483,0.30575 1.67954,-0.0666 1.67955,-0.0666 -0.18783,0.5918 -0.18783,0.5918 -1.29328,2.90252 -1.29328,2.90252 v 0.36756 0.36756 h 0.60259 0.60259 l 0.65418,-0.43685 0.65418,-0.43687 0.83704,-0.7835 0.83703,-0.78351 0.28745,0.17765 0.28744,0.17765 v 0.47734 0.47735 l -1.33094,1.24494 -1.33094,1.24494 -1.44793,0.64034 -1.44792,0.64034 -1.06435,0.1702 -1.06434,0.17019 -0.48121,-0.43549 -0.48121,-0.43548 -0.95875,0.40059 -0.95874,0.40059 h -0.78503 -0.78502 l -0.70263,-0.26714 -0.70263,-0.26714 -0.27412,-0.72623 -0.274124,-0.72622 -1.866024,0.92722 -1.866021,0.92722 -3.789844,0.0857 -3.789842,0.0857 -0.165851,-0.43221 z m 16.085726,-1.92197 0.38985,-0.46302 1.23865,-2.85558 1.23866,-2.85558 v -0.38557 -0.38556 h -0.36448 -0.36448 l -0.28321,0.34124 -0.28321,0.34125 -1.33714,3.12286 -1.33714,3.12287 0.14836,0.24005 0.14836,0.24006 h 0.20796 0.20796 z m 14.25462,1.84754 -0.64538,-0.52259 0.008,-0.89399 0.008,-0.89398 3.09188,-6.87487 3.09188,-6.87486 -0.1217,-0.31714 -0.12169,-0.31713 -0.8729,-0.084 -0.8729,-0.084 -0.0815,-0.4309 -0.0815,-0.43091 0.46298,-0.46298 0.46299,-0.46299 2.15382,0.13437 2.15383,0.13438 0.56829,0.30413 0.56828,0.30414 0.16872,0.67223 0.1687,0.67223 -3.20308,7.18346 -3.2031,7.18347 0.26409,0.26409 0.26409,0.26408 0.9701,-0.52065 0.97011,-0.52065 1.28144,-1.71979 1.28144,-1.71979 1.53464,-3.04271 1.53466,-3.04271 1.17002,-3.23758 1.17004,-3.23759 2.05052,-0.004 2.05052,-0.004 v 0.21317 0.21317 l -0.95144,2.36652 -0.95147,2.36652 -1.28974,2.51354 -1.28976,2.51354 -1.47225,1.85208 -1.47225,1.85209 -1.77665,1.52796 -1.77665,1.52795 -1.9283,0.96465 -1.9283,0.96466 -1.38185,0.11459 -1.38184,0.11459 -0.64538,-0.52259 z m 13.83294,0.15304 -0.57648,-0.2787 -0.31186,-0.75291 -0.31186,-0.75291 0.54649,-1.79475 0.54653,-1.79475 0.9549,-1.5875 0.95491,-1.5875 0.68869,-0.72291 0.68871,-0.7229 1.14067,-0.43564 1.1407,-0.43563 0.84746,0.16949 0.84748,0.1695 0.48038,0.43474 0.48038,0.43474 v -0.30559 -0.30559 h 1.56739 1.56742 l -1.56742,3.57432 -1.56739,3.57431 v 0.26214 0.26215 h 0.54231 0.54229 l 0.71448,-0.37431 0.71446,-0.3743 0.81992,-0.88247 0.81991,-0.88247 0.44181,-0.66145 0.44182,-0.66146 1.14885,-1.19063 1.14885,-1.19062 0.1824,-1.23739 0.18243,-1.23738 0.58621,-0.86989 0.58621,-0.86989 0.99584,-0.37901 0.99584,-0.37902 0.6536,0.29781 0.6536,0.2978 v 0.87143 0.87143 l -0.81769,0.992 -0.8177,0.992 0.85852,1.33787 0.85852,1.33788 0.12092,1.25847 0.12091,1.25846 -0.42905,0.82973 -0.42907,0.82972 -0.54909,0.29386 -0.54909,0.29387 0.13631,0.1363 0.13631,0.13631 1.62597,-0.86664 1.626,-0.86664 0.73046,-0.88618 0.73046,-0.88619 1.26895,-2.90283 1.26894,-2.90284 h 0.13136 0.13134 l 1.4437,0.826 1.4437,0.826 -0.1275,0.43077 -0.1275,0.43077 -1.26813,2.8469 -1.26812,2.8469 0.24903,0.24903 0.24902,0.24903 1.05805,-0.48396 1.05801,-0.48395 0.88715,-0.88408 0.88715,-0.88408 0.36052,0.49302 0.36049,0.49302 -0.52466,0.73685 -0.5247,0.73685 -1.60951,1.07479 -1.60954,1.0748 -1.34427,0.39921 -1.3443,0.39921 h -0.68685 -0.68686 l -0.58804,-0.41187 -0.58804,-0.41188 v -0.62101 -0.62101 l -1.38906,0.73788 -1.38906,0.73788 -1.41182,0.32685 -1.41179,0.32686 -1.19811,-0.13505 -1.19811,-0.13504 -0.69737,-0.51101 -0.69738,-0.511 -0.36616,-0.81234 -0.36616,-0.81234 -1.59861,1.03324 -1.59864,1.03324 -1.32437,0.3933 -1.3244,0.3933 h -0.52647 -0.52644 l -0.45979,-0.41611 -0.45979,-0.41611 -0.80468,0.41611 -0.80468,0.41611 -1.00531,-0.0179 -1.00534,-0.0179 -0.57647,-0.27871 z m 3.28046,-1.75073 0.32274,-0.20506 1.44632,-3.29662 1.44634,-3.29661 -0.22992,-0.23357 -0.22995,-0.23357 -0.37346,0.14332 -0.37348,0.14332 -1.36412,3.09921 -1.36408,3.09921 v 0.49677 0.49677 l 0.19844,-0.004 0.19843,-0.004 0.32274,-0.20506 z m 12.65388,-1.23001 0.64942,-0.64943 0.0385,-0.60734 0.0384,-0.60734 -0.0616,-0.92604 -0.0617,-0.92605 -0.20886,-0.21882 -0.20886,-0.21882 -0.95959,0.98806 -0.95957,0.98805 -0.26614,0.98837 -0.26615,0.98837 0.16317,0.42521 0.16317,0.42521 h 0.64516 0.64519 z m 2.76609,-8.94819 v -0.23606 l -0.33073,0.10892 -0.33073,0.10892 -0.0739,0.64073 -0.0739,0.64073 0.40466,-0.51359 0.40465,-0.51359 z m 104.08332,11.82992 0.1587,-0.41353 4.02185,-9.11147 4.02188,-9.11147 h 2.06547 2.06545 v 0.0982 0.0982 l -1.74946,3.93672 -1.74945,3.93672 -0.21336,0.5558 -0.21333,0.55579 0.96041,-0.48965 0.96041,-0.48964 h 1.34633 1.34636 l 0.3175,0.3175 0.3175,0.3175 v 0.57286 0.57286 l -0.55417,0.70452 -0.55419,0.70452 -1.09945,0.56355 -1.09948,0.56355 0.33377,0.11359 0.33375,0.11358 0.26432,0.49387 0.26429,0.49386 -0.43527,1.08785 -0.43526,1.08785 0.2654,0.26541 0.2654,0.26541 0.92253,-0.38546 0.92252,-0.38545 0.89823,-0.89879 0.89824,-0.89878 1.16684,-2.70261 1.16686,-2.70261 h 1.91373 1.91376 l -1.69153,3.83014 -1.69154,3.83015 v 0.53548 0.53548 h 0.22357 0.22358 l 0.39489,-0.46302 0.39486,-0.46302 1.78292,-4.10104 1.78292,-4.10105 0.22315,-0.23004 0.22315,-0.23005 1.47654,0.84478 1.4765,0.84477 v 0.11184 0.11184 l -1.35352,3.03774 -1.35353,3.03774 0.15092,0.39329 0.15091,0.3933 0.79275,-0.27635 0.79274,-0.27636 1.22735,-1.08035 1.22732,-1.08035 0.23683,0.3741 0.23681,0.3741 0.004,0.28951 0.004,0.28951 -1.12448,1.11396 -1.12448,1.11396 -1.82149,0.91163 -1.82147,0.91164 h -0.83164 -0.83161 l -0.56256,-0.39402 -0.56253,-0.39403 -1.01013,0.42206 -1.01012,0.42206 -1.30874,-0.12576 -1.30873,-0.12575 -0.35248,-0.48202 -0.35245,-0.48201 v -0.59996 -0.59996 l -1.25677,0.77645 -1.25678,0.77646 -1.72204,0.44796 -1.72204,0.44796 -0.72133,-0.18104 -0.72131,-0.18104 -0.17647,-0.7031 -0.17648,-0.70309 0.4685,-1.21111 0.46847,-1.2111 0.13168,-0.59531 0.13168,-0.59531 h -0.41272 -0.41272 l -0.39772,0.56783 -0.39773,0.56782 -0.83764,2.07801 -0.83765,2.078 h -2.11523 -2.11524 l 0.1587,-0.41353 z m 9.14165,-7.22128 0.64479,-0.46718 0.10488,-0.31463 0.10488,-0.31463 h -0.55512 -0.5551 l -0.9883,0.9473 -0.98829,0.9473 0.79375,-0.16549 0.79375,-0.16549 z m -374.79085,6.80018 -0.18879,-0.30546 0.30546,0.18879 0.30547,0.18878 v 0.11668 0.11668 h -0.11668 -0.11668 z m -0.37161,-0.62058 v -0.13229 h 0.13229 0.13229 v 0.13229 0.1323 h -0.13229 -0.13229 z m -0.26459,-0.52916 v -0.13229 h 0.13229 0.1323 v 0.13229 0.13229 h -0.1323 -0.13229 z m -0.26458,-0.52917 v -0.13229 h 0.13229 0.13229 v 0.13229 0.13229 h -0.13229 -0.13229 z m -0.26458,-0.52917 v -0.13229 h 0.13229 0.13229 v 0.13229 0.1323 h -0.13229 -0.13229 z m -0.26459,-0.79375 v -0.13229 h 0.13229 0.1323 v 0.13229 0.1323 h -0.1323 -0.13229 z m 32.808335,-0.26458 v -0.13229 h 0.132292 0.132292 v 0.13229 0.13229 h -0.132292 -0.132292 z m -33.072915,-0.39687 v -0.35278 l 0.17639,0.17639 0.17639,0.17639 -0.17639,0.17639 -0.17639,0.17638 z m -0.26458,-0.79375 v -0.35278 l 0.17639,0.17639 0.17638,0.17639 -0.17638,0.17639 -0.17639,0.17638 z m -0.26459,-1.05834 v -0.35277 l 0.17639,0.17638 0.17639,0.17639 -0.17639,0.17639 -0.17639,0.17639 z m -0.24369,-1.74184 0.0209,-0.50712 0.13896,0.34727 0.13896,0.34727 -0.15985,0.15985 -0.15985,0.15985 0.0209,-0.50712 z m 173.150837,-3.81226 -0.450652,-0.49797 0.206217,-0.3474 0.206216,-0.3474 1.441622,-1.98438 1.441622,-1.98437 0.229648,-0.25084 0.22965,-0.25084 0.926555,0.89805 0.926557,0.89806 v 0.15985 0.15986 l -2.353391,2.02267 -2.35339,2.02267 z m 181.242163,0.003 -0.45783,-0.50591 1.68185,-2.31126 1.68187,-2.31126 0.17124,-0.25418 0.17127,-0.25417 1.0633,0.89271 1.06334,0.89271 -0.0995,0.16104 -0.0995,0.16105 -2.35906,2.01759 -2.35907,2.01759 z m -354.393,-0.15934 0.0209,-0.50712 0.13896,0.34727 0.13896,0.34727 -0.15985,0.15985 -0.15985,0.15985 0.0209,-0.50712 z m 71.205023,-0.0806 -0.87304,-0.16188 -1.186468,-2.17082 -1.186469,-2.17083 0.681712,-0.44667 0.681715,-0.44668 1.245505,1.36131 1.245505,1.36131 1.804035,-1.3642 1.804032,-1.3642 0.507119,0.50712 0.507116,0.50712 -2.178859,2.27515 -2.17886,2.27515 z m -36.565498,-0.42647 v -0.13229 h 0.132292 0.132292 v 0.13229 0.1323 h -0.132292 -0.132292 z m 238.284405,-0.73181 -0.50202,-0.37648 0.17841,-0.71083 0.17841,-0.71083 0.85278,-0.51997 0.8528,-0.51997 1.0921,-0.001 1.09206,-10e-4 0.31729,0.38231 0.31729,0.38232 -0.0864,0.58333 -0.0865,0.58333 -0.69739,0.51866 -0.69737,0.51866 -1.15472,0.12396 -1.15469,0.12396 -0.50205,-0.37647 z m -168.910656,-0.24714 -0.3175,-0.3175 v -0.45274 -0.45272 l 0.8015393,-0.67446 0.8015367,-0.67445 0.8952521,-0.16794 0.8952494,-0.16795 0.55245,0.17533 0.55245,0.17535 0.2736136,0.51124 0.2736109,0.51125 -0.2817363,0.52643 -0.2817363,0.52643 -0.7727658,0.39961 -0.7727686,0.39962 H -7.4006385 -8.551486 Z m 204.621176,-0.0983 -0.41576,-0.41577 v -0.18681 -0.18682 l 0.43145,-0.61599 0.43146,-0.61598 0.88297,-0.36893 0.88296,-0.36892 h 0.64064 0.64063 l 0.59209,0.47944 0.59211,0.47945 -0.18955,0.59714 -0.18952,0.59714 -0.83627,0.50993 -0.83627,0.50992 -1.10558,0.001 -1.10556,0.001 -0.4158,-0.41577 z m -308.39076,0.0189 v -0.13229 h 0.13229 0.1323 v 0.13229 0.13229 h -0.1323 -0.13229 z m 34.131252,-0.26458 v -0.13229 h 0.132292 0.132291 v 0.13229 0.13229 h -0.132291 -0.132292 z m -33.866662,-0.79375 v -0.13229 h 0.13229 0.13229 v 0.13229 0.13229 h -0.13229 -0.13229 z m 264.05522,-0.10994 -0.92496,-0.15465 -1.12871,-2.10615 -1.12872,-2.10614 0.53102,-0.53103 0.53102,-0.53103 1.26717,1.24812 1.26717,1.24811 h 0.20809 0.20807 l 1.7357,-1.23857 1.73569,-1.23857 0.36224,0.49539 0.36224,0.49539 -0.0114,0.14787 -0.0114,0.14786 -2.03901,2.13902 -2.03902,2.13902 -0.92498,-0.15464 z m -230.453141,-0.15465 v -0.13229 h 0.132291 0.132292 v 0.13229 0.1323 h -0.132292 -0.132291 z m -33.337499,-0.52916 v -0.13229 h 0.13229 0.13229 v 0.13229 0.13229 h -0.13229 -0.13229 z m 0.26458,-0.79375 v -0.13229 h 0.13229 0.1323 v 0.13229 0.13229 h -0.1323 -0.13229 z m 0.52917,-1.32292 v -0.13229 h 0.13229 0.13229 v 0.13229 0.13229 h -0.13229 -0.13229 z m 30.956249,-1.05833 v -0.13229 h 0.132291 0.132292 v 0.13229 0.13229 h -0.132292 -0.132291 z m -1.852083,-2.64584 v -0.13229 h 0.132291 0.132292 v 0.13229 0.1323 h -0.132292 -0.132291 z m -23.812496,-2.64583 v -0.13229 h 0.13229 0.13229 v 0.13229 0.13229 h -0.13229 -0.13229 z m 20.637496,-0.26458 v -0.13229 h 0.132291 0.132292 v 0.13229 0.13229 h -0.132292 -0.132291 z m -19.579166,-0.52917 v -0.13229 h 0.13229 0.13229 v 0.13229 0.13229 h -0.13229 -0.13229 z m 18.785416,0 v -0.13229 h 0.132291 0.132292 v 0.13229 0.13229 h -0.132292 -0.132291 z m -18.256246,-0.26458 v -0.13229 h 0.13229 0.13229 v 0.13229 0.13229 h -0.13229 -0.13229 z m 16.933329,-0.52917 v -0.13229 h 0.132292 0.132291 v 0.13229 0.13229 h -0.132291 -0.132292 z m -13.493749,-1.05833 v -0.13229 h 0.13229 0.13229 v 0.13229 0.13229 h -0.13229 -0.13229 z m 10.054166,-0.26459 v -0.13229 h 0.132291 0.132292 v 0.13229 0.1323 h -0.132292 -0.132291 z m -7.9375,-0.26458 v -0.13229 h 0.132292 0.132291 v 0.13229 0.13229 h -0.132291 -0.132292 z m 6.879166,0 v -0.13229 h 0.132292 0.132292 v 0.13229 0.13229 h -0.132292 -0.132292 z m -5.203473,-0.30868 0.17639,-0.17639 0.17639,0.17639 0.176387,0.17639 h -0.352777 -0.352777 z m 3.175,0 0.17639,-0.17639 0.17639,0.17639 0.176387,0.17639 h -0.352777 -0.352777 z"
         id="path1024" />
      <path
         style="fill:#398abc;stroke-width:0.264583"
         d="M -138.30315,152.73611 V 111.85799 H 105.3781 349.05934 v 40.87812 40.87813 H 105.3781 -138.30315 Z m 46.974098,17.19258 1.576943,-0.40221 1.322916,-0.5593 1.322917,-0.55931 1.463469,-0.99341 1.463468,-0.9934 1.590305,-1.70004 1.590304,-1.70004 1.090557,-2.09973 1.090554,-2.09972 0.419735,-2.03937 0.419733,-2.03936 -0.0039,-2.06168 -0.0039,-2.06167 -0.382741,-1.62299 -0.382738,-1.62298 -0.671245,-1.5178 -0.671246,-1.51781 -1.213463,-1.70052 -1.213464,-1.70051 -1.698549,-1.40104 -1.698545,-1.40104 -1.65249,-0.80553 -1.652489,-0.80554 -1.446842,-0.4295 -1.446843,-0.4295 -2.137259,-0.16428 -2.137259,-0.16428 -2.232517,0.45236 -2.232519,0.45237 -1.93828,0.89554 -1.93828,0.89554 -1.37322,1.07347 -1.37323,1.07348 -1.33111,1.56807 -1.33111,1.56807 -0.86206,1.73215 -0.86206,1.73215 -0.51881,2.02853 -0.5188,2.02853 0.005,2.00819 0.005,2.0082 0.38519,1.81812 0.3852,1.81813 1.0978,2.26805 1.0978,2.26806 2.15043,2.13804 2.15043,2.13805 1.90911,0.9953 1.9091,0.99531 1.927358,0.50496 1.92735,0.50497 2.524098,0.0146 2.524099,0.0146 1.576943,-0.40222 z m 77.54851,-3.33922 1.046753,-0.6927 0.872678,-1.63732 0.87268,-1.63731 0.437952,-0.12461 0.437951,-0.12462 1.7726452,-0.87143 1.7726448,-0.87143 0.079438,0.68324 0.079439,0.68324 0.9260416,0.47877 0.9260417,0.47877 2.2535355,-0.0943 2.25353561,-0.0943 1.80936099,-0.8467 1.8093611,-0.84671 -0.1903095,0.46223 -0.1903122,0.46222 -0.1331304,0.46302 -0.133133,0.46302 2.0813791,-0.005 2.0813792,-0.005 1.963957,-4.51907 1.9639573,-4.51907 0.368932,-0.14157 0.36893,-0.14158 0.22352,0.23358 0.22352,0.23356 -1.924794,4.36563 -1.924793,4.36562 1.989122,0.078 1.989121,0.078 0.193141,-0.2103 0.193143,-0.21031 1.773176,-4.10104 1.77318,-4.10104 0.273986,-0.33073 0.273987,-0.33073 h 0.364477 0.364479 v 0.36127 0.36127 l -1.319996,2.89835 -1.319995,2.89834 -0.162774,0.81386 -0.162772,0.81387 0.587438,0.58744 0.587439,0.58744 1.299194,-0.12484 1.299194,-0.12483 1.911239,-0.95042 1.911241,-0.95042 0.09412,0.26856 0.09411,0.26855 0.610582,0.70984 0.610579,0.70984 h 2.734889 2.734887 l 1.310857,-0.60436 1.310859,-0.60436 1.397556,-1.05516 1.397556,-1.05517 0.169402,-0.67495 0.169402,-0.67495 -0.283176,-0.28317 -0.283175,-0.28318 -1.34043,1.20517 -1.340432,1.20516 -1.636313,0.55259 -1.636313,0.55259 h -1.015264 -1.015262 l -0.148108,-0.38596 -0.148109,-0.38596 0.309224,-0.93696 0.309221,-0.93695 0.839378,-0.006 0.839377,-0.006 1.179499,-0.27181 1.179499,-0.27181 0.827686,-0.39276 0.827688,-0.39277 0.572503,-1.01863 0.5725,-1.01862 v -1.21144 -1.21144 l -0.536742,-0.28725 -0.536742,-0.28726 -1.25984,-0.14921 -1.259837,-0.14921 -1.526635,0.31693 -1.526633,0.31693 -0.951571,0.83549 -0.951569,0.83549 -0.990613,2.15437 -0.990616,2.15437 -1.198417,0.82453 -1.198419,0.82454 H 19.803862 19.12393 v -0.14579 -0.14578 l 1.058333,-2.48656 1.058334,-2.48656 v -0.85255 -0.85256 l -0.437883,-0.48385 -0.437883,-0.48385 H 18.8052 17.245568 l -0.804669,0.41611 -0.804667,0.41611 -0.459798,-0.41611 -0.459795,-0.41611 -1.434375,0.009 -1.434375,0.009 -0.65414,0.36214 -0.65414,0.36215 -1.2962522,-0.65686 -1.2962493,-0.65686 -0.1885791,0.21919 -0.1885818,0.2192 -1.1683206,2.73064 -1.1683206,2.73065 -0.7370233,0.89543 -0.7370233,0.89543 -1.6661553,0.82025 -1.66615535,0.82024 -1.49375015,0.15417 -1.4937502,0.15417 -0.1719791,-0.44817 -0.1719792,-0.44817 0.2422393,-0.84503 0.2422366,-0.84503 1.69925732,-0.21056 1.69925732,-0.21056 1.12816746,-0.49905 1.1281701,-0.49904 0.5286374,-0.86928 0.5286375,-0.86927 0.1736699,-1.15811 0.1736672,-1.1581 -0.5710185,-0.57031 -0.5710184,-0.5703 -2.3070423,0.0204 -2.3070449,0.0204 -1.0760339,0.55554 -1.076034,0.55554 -0.3607223,0.43465 -0.3607223,0.43465 -1.0875274,2.16437 -1.0875301,2.16439 -1.2759293,0.85989 -1.2759293,0.8599 h -0.6111795 -0.6111796 l 1.4348327,-3.19668 1.4348301,-3.19667 -2.645e-4,-0.30906 -2.646e-4,-0.30905 -1.2954979,-0.72761 -1.2954952,-0.7276 h -0.2534841 -0.2534863 l -1.407996,3.19447 -1.407996,3.19447 -1.040837,0.89091 -1.040834,0.89092 -0.776401,0.27065 -0.776401,0.27066 -0.150921,-0.3933 -0.150918,-0.39329 1.353526,-3.03774 1.353529,-3.03773 v -0.11184 -0.11184 l -1.476515,-0.84478 -1.476518,-0.84478 -0.223158,0.23005 -0.223157,0.23005 -1.782919,4.10104 -1.782918,4.10104 -0.394873,0.46302 -0.394874,0.46302 h -0.223576 -0.223575 v -0.53548 -0.53548 l 1.691534,-3.83014 1.691531,-3.83015 h -1.90936 -1.909358 l -1.276284,2.91963 -1.276283,2.91963 -0.813443,0.68447 -0.813443,0.68447 -0.870096,0.41491 -0.870098,0.41492 -0.266999,-0.26699 -0.266999,-0.267 0.46777,-1.26211 0.46777,-1.26211 -0.607763,-0.49214 -0.607764,-0.49213 0.872664,-0.44048 0.872662,-0.44048 0.727604,-0.68075 0.727605,-0.68076 v -0.69133 -0.69133 l -0.3175,-0.3175 -0.3175,-0.3175 h -1.346348 -1.346349 l -0.973793,0.49647 -0.973797,0.49647 0.224153,-0.43033 0.224152,-0.43032 1.752034,-4.0144 1.752031,-4.0144 v -0.15279 -0.15279 l -2.050521,0.005 -2.050521,0.005 -3.019049,6.88776 -3.019052,6.88776 -1.282988,1.15351 -1.282991,1.15352 -1.636313,0.5526 -1.636313,0.55259 h -1.015264 -1.015262 l -0.148109,-0.38597 -0.148108,-0.38596 0.309224,-0.93695 0.309221,-0.93696 0.839377,-0.006 0.839378,-0.006 1.179499,-0.27182 1.179499,-0.27181 0.827686,-0.39276 0.827688,-0.39276 0.572502,-1.01863 0.572501,-1.01863 v -1.21144 -1.21143 l -0.536742,-0.28726 -0.536742,-0.28725 -1.25984,-0.14921 -1.259837,-0.14921 -1.536679,0.31901 -1.536681,0.31901 -1.001067,0.90441 -1.001067,0.9044 -1.089485,2.52968 -1.089488,2.52969 -0.158962,0.99409 -0.158962,0.99408 0.665075,0.7732 0.665076,0.7732 h 2.734889 2.734887 l 1.5875,-0.78107 1.5875,-0.78106 0.220424,-0.10821 0.220422,-0.10821 -0.41886,0.80999 -0.418861,0.80999 v 0.14543 0.14543 h 2.084911 2.084911 l 1.045697,-2.43229 1.045697,-2.43228 0.428577,-0.27034 0.428575,-0.27033 0.203568,0.20356 0.203565,0.20357 -0.614439,1.71325 -0.61444,1.71325 0.16301,0.64948 0.16301,0.64948 0.66992,0.16814 0.669922,0.16814 1.065469,-0.17037 1.065467,-0.17038 1.76631,-0.8398 1.766311,-0.83981 0.163298,-0.0903 0.163296,-0.0903 0.161692,0.80845 0.161689,0.80845 0.684425,0.26022 0.684424,0.26022 h 0.917315 0.917316 l 0.943033,-0.39403 0.943033,-0.39402 0.562547,0.39402 0.562549,0.39403 h 0.441775 0.441772 l -0.500645,0.98198 -0.500644,0.98199 v 0.56983 0.56983 l 0.569515,0.72403 0.569516,0.72402 1.901746,-0.096 1.901745,-0.096 1.046755,-0.69271 z m -3.508718,-1.40849 -0.171781,-0.44764 0.515607,-0.6906 0.515604,-0.6906 0.706924,-0.52779 0.706927,-0.5278 0.118068,0.11807 0.118065,0.11806 -0.583798,1.15954 -0.583801,1.15953 -0.58502,0.38844 -0.585017,0.38844 z m -27.351392,-8.20399 v -0.12475 l 0.648346,-1.46602 0.648345,-1.46602 0.397317,-0.15247 0.39732,-0.15247 0.257759,0.15931 0.25776,0.1593 -0.240104,0.85633 -0.240104,0.85633 -0.80291,0.7276 -0.80291,0.72761 h -0.260411 -0.260408 z m 43.4391453,-1.13202 0.54689377,-1.25677 0.40527816,-0.46302 0.4052808,-0.46302 h 0.35586723 0.35586722 v 0.5423 0.54231 l -0.40135439,0.77613 -0.40135174,0.77613 -0.77613403,0.40135 -0.77613142,0.40136 h -0.1305533 -0.1305534 z m 28.5275197,1.13202 v -0.12475 l 0.648346,-1.46602 0.648345,-1.46602 0.397317,-0.15247 0.39732,-0.15247 0.257759,0.15931 0.25776,0.1593 -0.240104,0.85633 -0.240104,0.85633 -0.80291,0.7276 -0.80291,0.72761 h -0.260411 -0.260408 z m -59.468989,-1.83837 0.988303,-0.9473 h 0.555101 0.555101 l -0.104878,0.31463 -0.104876,0.31463 -0.644776,0.46718 -0.644776,0.46718 -0.79375,0.16549 -0.79375,0.16549 z m 223.013896,11.35095 1.12406,-0.79004 0.81084,-1.54727 0.81081,-1.54727 1.38433,-0.48128 1.38435,-0.48129 0.76637,-0.54571 0.76637,-0.5457 0.16012,0.80062 0.16013,0.80062 0.99647,0.41729 0.99645,0.41729 2.24896,-0.13571 2.24895,-0.1357 1.19063,-0.54232 1.19062,-0.54232 0.8599,-0.57071 0.8599,-0.57071 v 0.66823 0.66824 l 0.69715,0.54837 0.69712,0.54837 h 0.89887 0.89884 l 0.94041,-0.39292 0.94038,-0.39292 0.42193,0.42193 0.42194,0.42193 1.10474,-0.12452 1.10476,-0.12452 1.55933,-0.7517 1.55932,-0.7517 0.22042,-0.10821 0.22043,-0.1082 -0.41887,0.80998 -0.41886,0.80999 v 0.15613 0.15613 l 2.12797,-0.0768 2.12796,-0.0769 1.82856,-4.19151 1.82859,-4.19151 0.30919,-0.37255 0.3092,-0.37255 h 0.36446 0.36449 v 0.35784 0.35786 l -1.34517,2.85175 -1.34517,2.85174 -0.13983,0.86166 -0.13981,0.86166 0.5919,0.5919 0.5919,0.5919 1.32565,-0.157 1.32564,-0.157 1.75027,-0.85626 1.75024,-0.85626 0.19844,-0.10007 0.19844,-0.10007 v 0.53201 0.53201 l 0.69715,0.54837 0.69712,0.54837 h 1.04881 1.04881 l 0.93051,-0.44155 0.93052,-0.44156 0.24709,0.44156 0.24712,0.44155 h 0.77068 0.77068 l 1.44526,-0.54075 1.44528,-0.54074 0.93129,-0.63199 0.93128,-0.63199 0.28686,0.86917 0.28686,0.86917 0.66625,0.30357 0.66624,0.30356 h 0.90366 0.90368 l 1.43791,-0.53799 1.4379,-0.53799 1.2286,-1.08146 1.22862,-1.08146 1.57612,-3.1966 1.5761,-3.19659 -0.19781,-0.17397 -0.1978,-0.17397 -1.39039,-0.7413 -1.39038,-0.74129 -0.093,0.10891 -0.093,0.10892 -1.51411,3.57188 -1.5141,3.57187 -0.65164,1.12448 -0.65165,1.12448 h -0.38573 -0.38571 v -0.48377 -0.48377 l 1.48119,-3.28654 1.48116,-3.28655 0.23207,-0.59531 0.23207,-0.59531 -1.9117,0.006 -1.91167,0.006 -1.0361,2.44136 -1.03614,2.44135 -0.50252,0.72659 -0.50253,0.72658 -1.13043,0.66248 -1.13043,0.66248 h -0.57208 -0.57206 v -0.2083 -0.2083 l 1.57359,-3.56201 1.5736,-3.56202 -1.50243,-0.0812 -1.50244,-0.0812 -0.091,0.27289 -0.091,0.27288 -0.75623,-0.55909 -0.7562,-0.55909 -1.12999,0.18069 -1.12998,0.18069 -0.87585,0.54129 -0.87582,0.5413 -0.75486,1.1006 -0.75485,1.1006 -0.82635,1.64098 -0.82632,1.64097 -1.15033,0.67413 -1.1503,0.67413 h -0.60294 -0.60293 l 0.13878,-0.46302 0.13877,-0.46302 0.94559,-2.24896 0.94557,-2.24896 0.005,-0.66873 0.005,-0.66873 -0.41188,-0.58804 -0.41188,-0.58804 -1.63864,0.009 -1.63864,0.009 -0.66146,0.36703 -0.66146,0.36704 -1.25809,-0.68377 -1.2581,-0.68376 -0.0868,0.10892 -0.0868,0.10892 -1.25754,2.90153 -1.25753,2.90154 -0.50822,0.71371 -0.50821,0.71372 -1.37371,0.68455 -1.37372,0.68455 -0.25636,-0.25636 -0.25635,-0.25636 2.7364,-6.02782 2.73643,-6.02781 0.87802,-1.9289 0.87802,-1.9289 -2.15657,0.0768 -2.15654,0.0768 -1.77805,3.96875 -1.77806,3.96875 -1.29124,0.0263 -1.29125,0.0262 -0.8115,0.41964 -0.81148,0.41963 -0.96454,1.06764 -0.96453,1.06763 -0.78751,1.56001 -0.78748,1.56002 -0.87392,0.73906 -0.87392,0.73906 -1.43002,0.65731 -1.42999,0.65731 -1.47214,0.028 -1.47214,0.028 -0.0979,-0.48395 -0.0978,-0.48395 0.30525,-0.73693 0.30525,-0.73693 1.63388,-0.17077 1.63388,-0.17078 1.17941,-0.59272 1.17941,-0.59272 0.51371,-0.70789 0.51372,-0.7079 0.12438,-1.29467 0.1244,-1.29467 -0.42907,-0.42909 -0.4291,-0.4291 -1.23706,-0.1855 -1.23706,-0.18551 -1.55067,0.28838 -1.5507,0.28838 -0.88635,0.5478 -0.88636,0.54779 -1.12024,2.17787 -1.12025,2.17786 -0.56031,0.62106 -0.5603,0.62107 -0.98166,0.50341 -0.98163,0.50342 h -0.42524 -0.42526 l 0.15896,-0.50084 0.15896,-0.50083 1.28847,-2.8726 1.28846,-2.8726 -0.23055,-0.28157 -0.23059,-0.28156 -1.33053,-0.6232 -1.33057,-0.6232 -0.0933,0.11101 -0.0933,0.11102 -1.39859,3.11789 -1.39856,3.1179 -0.66124,0.52012 -0.66122,0.52013 h -0.75809 -0.75806 v -0.35126 -0.35126 l 0.66146,-1.62786 0.66146,-1.62786 v -0.87243 -0.87242 l -0.43302,-0.61823 -0.43301,-0.61823 -1.28678,0.12364 -1.28677,0.12364 v -0.0614 -0.0614 l 1.71979,-3.91072 1.71979,-3.91072 v -0.23355 -0.23354 l -2.04041,0.0773 -2.04039,0.0773 -2.17196,4.89479 -2.172,4.89479 -0.29596,0.33073 -0.29599,0.33073 h -0.77083 -0.77087 l 0.15222,-1.28523 0.15221,-1.28522 -0.62042,-0.43457 -0.62042,-0.43456 -0.53644,0.001 -0.53645,10e-4 -0.8663,0.52818 -0.86627,0.52818 h -0.92816 -0.92813 l -0.86746,0.36245 -0.86746,0.36244 -0.95989,1.12141 -0.95988,1.12141 -1.07458,2.45021 -1.07458,2.4502 v 0.91972 0.91973 l 0.50864,0.4603 0.50863,0.46031 1.06207,0.14245 1.06206,0.14245 1.47728,-0.18457 1.47725,-0.18457 1.11924,-0.85034 1.11921,-0.85033 1.15041,-2.23883 1.15041,-2.23882 0.3048,-0.19438 0.3048,-0.19439 0.59531,-0.004 0.59531,-0.004 v 0.0994 0.0994 l -0.6963,1.55428 -0.69633,1.55428 -0.0313,1.117 -0.0313,1.11701 0.60333,0.60278 0.60336,0.60279 1.77789,-0.0113 1.77792,-0.0113 0.92604,-0.4819 0.92605,-0.48191 0.70069,-0.65497 0.70067,-0.65497 0.58518,0.31318 0.58518,0.31318 -0.75671,0.46017 -0.75671,0.46018 -0.85987,0.97936 -0.85989,0.97936 -0.0419,0.7184 -0.0419,0.71839 0.048,0.51508 0.048,0.51508 0.45503,0.50278 0.455,0.50279 1.90346,-0.0961 1.90347,-0.0961 1.12408,-0.79004 z m -3.58989,-1.16245 -0.1683,-0.27234 0.40367,-0.78066 0.4037,-0.78066 0.81299,-0.57889 0.81298,-0.57889 0.1455,0.14551 0.14552,0.14551 -0.62378,1.11362 -0.62376,1.11361 -0.5701,0.37277 -0.57009,0.37277 z m -15.62359,-4.25466 -0.1623,-0.26262 1.3534,-3.11082 1.35339,-3.11082 0.34378,-0.35042 0.34377,-0.35041 0.16402,0.81999 0.16398,0.81999 -1.19533,2.696 -1.19536,2.69601 -0.3207,0.2038 -0.3207,0.20381 -0.18283,0.004 -0.18283,0.004 -0.16229,-0.26261 z m 11.24357,-0.385 v -0.38302 l 1.42774,-3.1227 1.42775,-3.12271 0.55663,-0.0846 0.55663,-0.0845 v 0.25926 0.25927 l -1.35025,3.00028 -1.35025,3.00028 -0.26966,0.33073 -0.26964,0.33073 h -0.36446 -0.36449 z m 29.36642,0.0717 -0.003,-0.35013 1.23809,-2.91042 1.23806,-2.91041 0.39275,-0.46302 0.39277,-0.46302 h 0.35587 0.35586 l -0.0153,0.19843 -0.0153,0.19844 -1.53823,3.43958 -1.53824,3.43959 -0.4309,0.0855 -0.4309,0.0855 -0.003,-0.35013 z m 24.87316,-0.094 v -0.40536 l 1.38356,-3.1981 1.38359,-3.19809 0.35401,-0.13584 0.35399,-0.13585 0.24751,0.24751 0.24752,0.24751 -1.26405,2.89648 -1.26402,2.89647 -0.33348,0.59532 -0.3335,0.59531 h -0.38757 -0.38756 z m -34.12506,-3.91889 0.006,-0.30596 0.72144,-1.31961 0.72141,-1.31962 0.46302,-0.0889 0.46302,-0.0889 v 0.79285 0.79286 l -0.65831,0.78237 -0.65833,0.78237 -0.53229,0.1392 -0.53232,0.1392 0.006,-0.30596 z m -25.60462,-2.74553 -0.33073,-0.11807 v -0.4915 -0.49151 l 0.28763,-0.17776 0.28765,-0.17777 0.2858,0.28581 0.28581,0.28581 -0.24271,0.50153 -0.24272,0.50153 z m -233.219233,8.00455 1.664624,-0.7523 1.26529,-1.38443 1.265293,-1.38444 2.055786,-4.46148 2.055789,-4.4615 0.672309,-1.62602 0.672311,-1.62603 -0.177779,-0.70832 -0.177776,-0.70832 -1.226468,-0.54253 -1.226468,-0.54252 -1.503384,0.13632 -1.503381,0.13632 -0.754858,0.39551 -0.754862,0.39551 -0.628769,-0.41198 -0.628766,-0.41199 -2.052736,-0.11883 -2.052735,-0.11883 -0.586849,0.31407 -0.586845,0.31407 0.0822,0.57741 0.0822,0.57741 0.79375,0.0865 0.79375,0.0865 0.223734,0.21661 0.223737,0.21661 -3.235603,7.23751 -3.2356,7.23751 -0.498552,1.15736 -0.498554,1.15735 3.907295,-0.11538 3.907293,-0.11538 z m -0.97405,-8.27696 3.162842,-7.0776 0.566484,-0.47637 0.566486,-0.47637 0.814102,0.0795 0.814099,0.0795 0.07918,0.68056 0.07918,0.68055 -2.274761,5.00799 -2.274763,5.00798 -0.922924,1.26653 -0.922928,1.26653 -0.850241,0.51842 -0.850244,0.51842 -0.574678,0.001 -0.57468,0.001 3.162845,-7.0776 z m 101.626962,8.05546 1.928299,-0.96465 1.776648,-1.52795 1.77665,-1.52796 1.472256,-1.85209 1.472253,-1.85208 1.289748,-2.51354 1.289751,-2.51354 0.95145,-2.36652 0.951452,-2.36652 v -0.21317 -0.21317 l -2.050521,0.004 -2.050521,0.004 -1.170029,3.23759 -1.17003,3.23758 -1.534647,3.04271 -1.534644,3.04271 -1.281446,1.71979 -1.281443,1.71979 -0.970106,0.52065 -0.970105,0.52065 -0.264086,-0.26408 -0.264088,-0.26409 3.203096,-7.18347 3.203093,-7.18346 -0.168719,-0.67223 -0.168717,-0.67223 -0.568283,-0.30414 -0.56828,-0.30413 -2.153827,-0.13438 -2.153825,-0.13437 -0.462986,0.46299 -0.462984,0.46298 0.08153,0.43091 0.08153,0.4309 0.8729,0.084 0.8729,0.084 0.121695,0.31713 0.121698,0.31714 -3.091881,6.87486 -3.091881,6.87487 -0.0083,0.89398 -0.0083,0.89399 0.645374,0.52259 0.645375,0.52259 1.381847,-0.11459 1.38185,-0.11459 1.928297,-0.96466 z m 11.887371,0.7227 0.804667,-0.41611 0.494715,0.44771 0.494716,0.44771 1.193696,-0.179 1.193697,-0.17901 1.528678,-0.77528 1.528675,-0.77529 0.07294,-0.003 0.07294,-0.003 -0.40367,0.78061 -0.403669,0.78061 v 0.15613 0.15613 l 2.127612,-0.0768 2.127613,-0.0769 1.863939,-4.23333 1.863939,-4.23333 0.274177,-0.33073 0.27418,-0.33073 h 0.364477 0.364479 v 0.28234 0.28234 l -1.852083,4.21626 -1.852083,4.21626 v 0.13161 0.1316 h 2.056884 2.056881 l 1.969363,-4.52828 1.96936,-4.52828 0.357166,-0.13706 0.357164,-0.13706 0.236159,0.23616 0.236159,0.23616 -1.43778,3.17241 -1.437778,3.17241 -0.0068,0.8538 -0.0068,0.85379 0.668444,0.43798 0.66844,0.43798 1.208493,-0.16564 1.208492,-0.16564 1.634109,-0.77989 1.634109,-0.77989 1.119164,-1.0332 1.119166,-1.03321 -0.004,-0.37137 -0.004,-0.37137 -0.249714,-0.39499 -0.249716,-0.39499 -1.003004,0.95902 -1.003004,0.95901 -0.577919,0.29587 -0.577918,0.29587 h -0.577406 -0.577403 l 0.142217,-0.59532 0.142218,-0.59531 0.965655,-2.3257 0.965653,-2.32571 -0.172493,-0.78535 -0.172489,-0.78535 -0.490268,-0.26238 -0.490268,-0.26238 -1.406456,0.002 -1.406456,0.002 -0.767427,0.40022 -0.767424,0.40021 -0.444034,-0.40184 -0.444032,-0.40185 -1.434375,0.002 -1.434375,0.002 -0.75624,0.39441 -0.75624,0.39441 -1.279665,-0.71934 -1.279668,-0.71933 -0.102748,0.12486 -0.102751,0.12485 -1.255935,2.91042 -1.255932,2.91042 -0.838745,0.88247 -0.838742,0.88247 -0.714465,0.3743 -0.714465,0.3743 H 61.99965 61.457344 v -0.26214 -0.26215 l 1.5674,-3.57431 1.567399,-3.57432 h -1.567399 -1.5674 v 0.30559 0.30559 l -0.480382,-0.43474 -0.480381,-0.43474 -0.847473,-0.16949 -0.847471,-0.1695 -1.140688,0.43564 -1.140685,0.43563 -0.688697,0.7229 -0.688697,0.72291 -0.9549,1.5875 -0.954899,1.5875 -0.546518,1.79476 -0.546521,1.79475 0.311864,0.7529 0.311865,0.75291 0.576479,0.27871 0.576479,0.2787 1.005327,0.0179 1.005327,0.0179 0.804669,-0.41611 z m -0.830947,-1.93274 v -0.49677 l 1.364096,-3.09921 1.364094,-3.09921 0.37348,-0.14332 0.373481,-0.14332 0.229928,0.23357 0.229928,0.23357 -1.446326,3.29661 -1.446326,3.29662 -0.322739,0.20506 -0.322741,0.20506 -0.198438,0.004 -0.198437,0.004 z m 41.987839,1.28934 1.866024,-0.92722 0.274124,0.72623 0.27412,0.72622 0.70263,0.26714 0.70263,0.26714 h 0.78502 0.78503 l 0.95874,-0.40059 0.95875,-0.40059 0.48121,0.43549 0.48121,0.43548 1.06434,-0.17019 1.06435,-0.1702 1.44792,-0.64034 1.44793,-0.64034 1.33094,-1.24494 1.33094,-1.24494 v -0.47734 -0.47735 l -0.28744,-0.17765 -0.28745,-0.17765 -0.83703,0.78351 -0.83704,0.78351 -0.65418,0.43686 -0.65418,0.43686 h -0.60259 -0.60259 v -0.36757 -0.36756 l 1.29328,-2.90252 1.29328,-2.90252 0.18783,-0.5918 0.18783,-0.5918 -1.67955,0.0666 -1.67954,0.0666 -0.74483,-0.30576 -0.74483,-0.30576 -0.57809,0.006 -0.57809,0.006 -1.0606,0.48183 -1.0606,0.48182 -0.8607,0.98028 -0.8607,0.98028 -0.89619,1.77323 -0.8962,1.77324 -0.662659,0.6174 -0.662659,0.61741 -0.885471,0.17634 -0.885468,0.17632 -1.948177,-0.13229 -1.948174,-0.13229 2.874216,-2.61519 2.874219,-2.61519 0.859893,-0.93462 0.8599,-0.93462 v -0.2205 -0.2205 H 98.880624 96.88107 l -1.842857,-0.30435 -1.842855,-0.30434 -0.669255,0.30494 -0.669253,0.30493 -0.383127,0.91695 -0.383128,0.91695 v 0.53112 0.53112 l 0.678683,-0.25804 0.678683,-0.25803 h 1.702567 1.702567 v 0.22069 0.22069 l -3.108854,2.79975 -3.108854,2.79974 -0.761974,0.80022 -0.76197,0.80023 0.165851,0.43221 0.165851,0.4322 3.789842,-0.0857 3.789844,-0.0857 z m 5.520028,-1.03263 -0.14836,-0.24005 1.33714,-3.12287 1.33714,-3.12286 0.28321,-0.34125 0.28321,-0.34124 h 0.36448 0.36448 v 0.38556 0.38557 l -1.23866,2.85558 -1.23865,2.85558 -0.38985,0.46302 -0.38986,0.46302 h -0.20796 -0.20796 z m 20.54612,0.95333 1.9283,-0.96465 1.77665,-1.52795 1.77665,-1.52796 1.47225,-1.85209 1.47225,-1.85208 1.28976,-2.51354 1.28974,-2.51354 0.95147,-2.36652 0.95144,-2.36652 v -0.21317 -0.21317 l -2.05052,0.004 -2.05052,0.004 -1.17004,3.23759 -1.17001,3.23758 -1.53467,3.04271 -1.53463,3.04271 -1.28145,1.71979 -1.28144,1.71979 -0.97011,0.52065 -0.9701,0.52065 -0.26409,-0.26408 -0.26409,-0.26409 3.2031,-7.18347 3.20308,-7.18346 -0.16869,-0.67223 -0.16873,-0.67223 -0.56827,-0.30414 -0.5683,-0.30413 -2.15382,-0.13438 -2.15383,-0.13437 -0.46298,0.46299 -0.46299,0.46298 0.0815,0.43091 0.0815,0.4309 0.8729,0.084 0.8729,0.084 0.1217,0.31713 0.12169,0.31714 -3.09188,6.87486 -3.09188,6.87487 -0.008,0.89398 -0.008,0.89399 0.64537,0.52259 0.64537,0.52259 1.38185,-0.11459 1.38185,-0.11459 1.9283,-0.96466 z m 11.88738,0.7227 0.80468,-0.41611 0.45979,0.41611 0.45979,0.41611 h 0.52644 0.52647 l 1.3244,-0.3933 1.32437,-0.3933 1.59864,-1.03324 1.59861,-1.03324 0.36616,0.81234 0.36616,0.81234 0.69738,0.511 0.69737,0.51101 1.19811,0.13504 1.19811,0.13505 1.41179,-0.32686 1.41182,-0.32685 1.38906,-0.73788 1.38906,-0.73788 v 0.62101 0.62101 l 0.58804,0.41188 0.58804,0.41187 h 0.68686 0.68685 l 1.3443,-0.39921 1.34427,-0.39921 1.60954,-1.0748 1.60951,-1.07479 0.5247,-0.73685 0.52466,-0.73685 -0.36049,-0.49302 -0.36052,-0.49302 -0.88715,0.88408 -0.88715,0.88408 -1.05801,0.48395 -1.05805,0.48396 -0.24902,-0.24903 -0.24903,-0.24903 1.26812,-2.8469 1.26813,-2.8469 0.1275,-0.43077 0.1275,-0.43077 -1.4437,-0.826 -1.4437,-0.826 h -0.13134 -0.13136 l -1.26894,2.90284 -1.26895,2.90283 -0.73046,0.88619 -0.73046,0.88618 -1.626,0.86664 -1.62597,0.86664 -0.13631,-0.13631 -0.13631,-0.1363 0.54909,-0.29387 0.54909,-0.29386 0.42907,-0.82972 0.42905,-0.82973 -0.12091,-1.25846 -0.12092,-1.25847 -0.85852,-1.33788 -0.85852,-1.33787 0.8177,-0.992 0.81769,-0.992 v -0.87143 -0.87143 l -0.6536,-0.2978 -0.6536,-0.29781 -0.99584,0.37902 -0.99584,0.37901 -0.58621,0.86989 -0.58621,0.86989 -0.18243,1.23738 -0.1824,1.23739 -1.14885,1.19062 -1.14885,1.19063 -0.44182,0.66146 -0.44181,0.66145 -0.81991,0.88247 -0.81992,0.88247 -0.71446,0.3743 -0.71448,0.37431 h -0.54229 -0.54231 v -0.26215 -0.26214 l 1.56739,-3.57431 1.56742,-3.57432 h -1.56742 -1.56739 v 0.30559 0.30559 l -0.48038,-0.43474 -0.48038,-0.43474 -0.84748,-0.1695 -0.84746,-0.16949 -1.1407,0.43563 -1.14067,0.43564 -0.68871,0.7229 -0.68869,0.72291 -0.95491,1.5875 -0.9549,1.5875 -0.54653,1.79475 -0.54649,1.79475 0.31186,0.75291 0.31186,0.75291 0.57648,0.2787 0.57647,0.27871 1.00534,0.0179 1.00531,0.0179 0.80468,-0.41611 z m -0.83095,-1.93274 v -0.49677 l 1.36408,-3.09921 1.36412,-3.09921 0.37348,-0.14332 0.37346,-0.14332 0.22995,0.23357 0.22992,0.23357 -1.44634,3.29661 -1.44632,3.29662 -0.32274,0.20506 -0.32274,0.20506 -0.19843,0.004 -0.19844,0.004 v -0.49677 z m 11.27053,-0.72219 -0.16317,-0.42521 0.26615,-0.98837 0.26614,-0.98837 0.95957,-0.98805 0.95959,-0.98806 0.20886,0.21882 0.20886,0.21882 0.0617,0.92605 0.0616,0.92604 -0.0384,0.60734 -0.0385,0.60734 -0.64942,0.64943 -0.64944,0.64943 h -0.64519 -0.64516 z m 4.13367,-8.5499 0.0739,-0.64073 0.33073,-0.10892 0.33073,-0.10892 v 0.23606 0.23606 l -0.40465,0.51359 -0.40466,0.51359 z m 109.72813,9.54294 0.83764,-2.07801 0.39772,-0.56782 0.39773,-0.56783 h 0.41272 0.41272 l -0.13168,0.59531 -0.13168,0.59531 -0.46847,1.2111 -0.4685,1.21111 0.17647,0.70309 0.17648,0.7031 0.72131,0.18104 0.72133,0.18104 1.72204,-0.44796 1.72204,-0.44796 1.25677,-0.77646 1.25677,-0.77645 v 0.59996 0.59996 l 0.35246,0.48201 0.35247,0.48202 1.30874,0.12575 1.30873,0.12576 1.01013,-0.42206 1.01013,-0.42206 0.56253,0.39403 0.56255,0.39402 h 0.83162 0.83163 l 1.82148,-0.91164 1.82149,-0.91163 1.12448,-1.11396 1.12448,-1.11396 -0.004,-0.28951 -0.004,-0.28951 -0.2368,-0.3741 -0.23683,-0.3741 -1.22732,1.08035 -1.22735,1.08035 -0.79274,0.27636 -0.79275,0.27635 -0.15092,-0.3933 -0.15091,-0.39329 1.35352,-3.03774 1.35353,-3.03774 v -0.11184 -0.11184 l -1.4765,-0.84477 -1.47654,-0.84478 -0.22315,0.23005 -0.22315,0.23004 -1.78292,4.10105 -1.78292,4.10104 -0.39486,0.46302 -0.39489,0.46302 h -0.22358 -0.22357 v -0.53548 -0.53548 l 1.69153,-3.83015 1.69154,-3.83014 h -1.91376 -1.91373 l -1.16687,2.70261 -1.16683,2.70261 -0.89824,0.89878 -0.89823,0.89879 -0.92253,0.38545 -0.92252,0.38546 -0.2654,-0.26541 -0.2654,-0.26541 0.43526,-1.08785 0.43527,-1.08785 -0.2643,-0.49386 -0.26431,-0.49387 -0.33375,-0.11358 -0.33377,-0.11359 1.09947,-0.56355 1.09945,-0.56355 0.5542,-0.70452 0.55417,-0.70452 v -0.57286 -0.57286 l -0.3175,-0.3175 -0.3175,-0.3175 h -1.34636 -1.34633 l -0.96041,0.48964 -0.96041,0.48965 0.21333,-0.55579 0.21336,-0.5558 1.74945,-3.93672 1.74945,-3.93672 v -0.0982 -0.0982 h -2.06544 -2.06547 l -4.02188,9.11147 -4.02185,9.11147 -0.1587,0.41353 -0.15869,0.41353 h 2.11523 2.11524 l 0.83765,-2.078 z m 2.98825,-5.70595 0.9883,-0.9473 h 0.5551 0.55512 l -0.10488,0.31463 -0.10488,0.31463 -0.64479,0.46718 -0.64476,0.46718 -0.79375,0.16549 -0.79375,0.16549 z M 65.426012,147.31123 v -0.15985 l -0.926557,-0.89806 -0.926555,-0.89805 -0.22965,0.25084 -0.229648,0.25084 -1.441622,1.98437 -1.441622,1.98438 -0.206216,0.3474 -0.206217,0.3474 0.450652,0.49797 0.450654,0.49796 2.35339,-2.02267 2.353391,-2.02267 z m 181.360228,0.0198 0.0995,-0.16105 -1.06334,-0.89271 -1.0633,-0.89271 -0.17127,0.25417 -0.17124,0.25418 -1.68187,2.31126 -1.68185,2.31126 0.45783,0.50592 0.45784,0.5059 2.35907,-2.01759 2.35906,-2.01759 z m -283.739831,-1.44522 -0.507119,-0.50711 -1.804032,1.36419 -1.804035,1.3642 -1.245505,-1.36131 -1.245505,-1.36131 -0.681715,0.44668 -0.681712,0.44667 1.186469,2.17083 1.186468,2.17082 0.87304,0.16188 0.873043,0.16188 2.17886,-2.27515 2.178859,-2.27515 z m 200.504091,3.34714 0.69739,-0.51865 0.0865,-0.58333 0.0864,-0.58333 -0.31729,-0.38232 -0.31729,-0.38231 -1.09206,0.001 -1.0921,0.001 -0.8528,0.51997 -0.85278,0.51997 -0.17841,0.71083 -0.17841,0.71083 0.50202,0.37648 0.50205,0.37647 1.15469,-0.12396 1.15472,-0.12397 0.69737,-0.51866 z m -169.0275224,0.0609 0.7727658,-0.39961 0.2817363,-0.52643 0.2817363,-0.52643 -0.2736109,-0.51124 -0.2736136,-0.51125 -0.55245,-0.17534 -0.55245,-0.17534 -0.8952494,0.16795 -0.8952521,0.16795 -0.8015367,0.67445 -0.8015393,0.67445 v 0.45273 0.45273 l 0.3175,0.3175 0.3175,0.3175 h 1.1508475 1.1508475 z M 199.2154,149.1815 l 0.83627,-0.50993 0.18952,-0.59714 0.18955,-0.59714 -0.59211,-0.47945 -0.59209,-0.47944 h -0.64063 -0.64064 l -0.88296,0.36892 -0.88297,0.36893 -0.43146,0.61599 -0.43145,0.61598 v 0.18682 0.18681 l 0.41576,0.41577 0.4158,0.41578 1.10556,-0.001 1.10558,-0.001 0.83627,-0.50992 z m -42.51965,-5.32451 0.0114,-0.14787 -0.36224,-0.49539 -0.36224,-0.49538 -1.7357,1.23856 -1.73569,1.23857 h -0.20807 -0.20809 l -1.26717,-1.24811 -1.26717,-1.24812 -0.53102,0.53103 -0.53102,0.53103 1.12871,2.10615 1.12872,2.10615 0.92495,0.15464 0.92499,0.15464 2.03901,-2.13902 2.03901,-2.13901 0.0114,-0.14787 z"
         id="path1022" />
      <path
         style="fill:#fd0b00;stroke-width:0.264583"
         d="m -99.144817,169.9604 -1.190623,-0.33479 -1.12448,-0.35069 -1.12448,-0.35069 -7.9e-4,-0.28885 -8e-4,-0.28885 3.353233,-7.67292 3.353231,-7.67291 0.207169,-0.23915 0.207166,-0.23915 0.916546,0.69908 0.916546,0.69909 0.172188,0.78396 0.172188,0.78396 -1.20882,2.77616 -1.208821,2.77615 v 0.89476 0.89477 l 0.612365,0.57529 0.612365,0.57529 h 1.197668 1.197668 l 1.193893,-0.35931 1.193895,-0.35931 5.501209,-2.95361 5.501206,-2.95362 0.114003,0.11401 0.114001,0.114 -0.653957,1.61903 -0.653957,1.61904 -0.887577,1.47696 -0.887574,1.47696 -1.899274,1.77998 -1.899272,1.77998 -1.857682,0.97618 -1.857684,0.97619 -2.040054,0.52176 -2.040057,0.52176 -2.40507,-0.0179 -2.405073,-0.0179 -1.190625,-0.33479 z m -9.328943,-5.49897 -1.19768,-1.40657 -0.93382,-1.71979 -0.93382,-1.71979 -0.60993,-1.98437 -0.60993,-1.98438 0.0214,-2.91042 0.0214,-2.91041 0.69971,-2.11667 0.6997,-2.11667 0.60406,-1.05833 0.60405,-1.05833 5.91159,-0.0713 5.911587,-0.0713 0.364045,0.30213 0.364043,0.30213 v 0.36895 0.36895 l -3.147015,7.07313 -3.14702,7.07313 -1.50961,3.30729 -1.50962,3.30729 -0.20274,0.21595 -0.20275,0.21594 -1.19769,-1.40657 z m 18.324776,-3.88394 v -0.29455 l 0.926041,-2.23709 0.926042,-2.23707 v -0.92857 -0.92857 l -0.316095,-0.69375 -0.316092,-0.69375 -0.767443,-0.39686 -0.767442,-0.39686 1.599813,-0.75659 1.599811,-0.75659 1.210514,-1.11582 1.210514,-1.11581 0.919043,-1.9367 0.919044,-1.9367 v -0.50061 -0.50062 l -0.674206,-0.6742 -0.674206,-0.67421 -1.340887,-0.32167 -1.340885,-0.32168 -1.634884,0.13124 -1.634884,0.13123 -0.854684,0.44197 -0.854681,0.44197 -0.581297,-0.40715 -0.581295,-0.40716 h -3.868044 -3.868043 l -3.6689,-0.17596 -3.6689,-0.17595 1.51706,-1.37868 1.51707,-1.37867 1.91156,-0.95791 1.91156,-0.9579 1.719796,-0.44846 1.719792,-0.44845 2.645833,0.0112 2.645833,0.0112 1.7009,0.45574 1.700901,0.45575 1.341808,0.67358 1.341808,0.67359 1.650817,1.17036 1.650817,1.17036 1.323859,1.63613 1.323861,1.63614 0.903814,1.85824 0.903814,1.85824 0.420989,1.90432 0.420987,1.90431 v 1.96808 1.96808 l -5.319086,2.82043 -5.319082,2.82044 -0.766334,0.15327 -0.766331,0.15326 z m -4.5783,-10.02419 0.167592,-0.46302 1.373638,-2.93497 1.37364,-2.93496 0.626004,-0.43847 0.626001,-0.43847 h 0.681964 0.681961 l 0.3175,0.3175 0.3175,0.3175 -2.09e-4,0.54239 -2.09e-4,0.5424 -0.758754,1.5875 -0.758751,1.5875 -0.630102,0.57729 -0.6301,0.57729 -1.638806,0.81177 -1.638808,0.81177 h -0.138826 -0.138827 z"
         id="path1020" />
    </g>
  </g>
</svg>
