<?xml version="1.0" encoding="UTF-8" standalone="no"?>
<svg
   xmlns:dc="http://purl.org/dc/elements/1.1/"
   xmlns:cc="http://creativecommons.org/ns#"
   xmlns:rdf="http://www.w3.org/1999/02/22-rdf-syntax-ns#"
   xmlns:svg="http://www.w3.org/2000/svg"
   xmlns="http://www.w3.org/2000/svg"
   width="47.599998mm"
   height="47.599998mm"
   viewBox="0 0 47.599998 47.599998"
   version="1.1"
   id="svg2666">
  <defs
     id="defs2660" />
  <metadata
     id="metadata2663">
    <rdf:RDF>
      <cc:Work
         rdf:about="">
        <dc:format>image/svg+xml</dc:format>
        <dc:type
           rdf:resource="http://purl.org/dc/dcmitype/StillImage" />
        <dc:title></dc:title>
      </cc:Work>
    </rdf:RDF>
  </metadata>
  <g
     id="layer1">
    <path
       style="fill:#368bbb;stroke:none;stroke-width:0.264583"
       d="m 4.7180644,9.7580484 c 2.145083,-0.01188 7.5316556,-0.998617 9.1840576,0.4213746 1.435126,1.233276 1.436476,5.197131 1.663859,6.986958 h 16.933333 c 1.54649,0 4.813565,-0.617828 5.966883,0.613278 0.848784,0.906277 0.321204,2.290101 0.139965,3.355472 -0.420952,2.475707 -0.943769,4.933183 -1.365779,7.408334 -0.1778,1.04246 -0.306123,2.32675 -1.330325,2.90301 -1.208617,0.68024 -3.385873,0.27199 -4.733661,0.27199 H 20.328481 c -1.3607,0 -3.823679,0.47228 -4.841108,-0.644 -1.043226,-1.14432 -1.008539,-3.459952 -1.297173,-4.91225 -0.878734,-4.421188 -1.973077,-8.997633 -2.328386,-13.49375 -2.1402666,0 -7.3290906,-0.959247 -9.0917976,0.271938 -1.715045,1.197901 -2.24025296,5.224331 -2.51516296,7.136395 -1.084361,7.541948 1.29254496,15.898547 7.11293396,21.090207 4.1951796,3.74173 9.6585606,6.28332 15.3419436,6.42249 4.70826,0.11536 9.460706,-0.96361 13.49375,-3.45281 3.574256,-2.2061 6.548437,-5.25886 8.524345,-8.97864 6.003132,-11.301039 2.03888,-25.9558866 -9.318095,-32.1966926 -7.747265,-4.257257 -17.485757,-3.918001 -24.870834,0.976894 -2.2158056,1.468649 -4.6903736,3.351874 -5.8208326,5.819802 M 27.207647,20.341381 v 1.852084 h 8.202084 l 0.264583,-2.116667 -8.466667,0.264583 m -11.1125,0 c 0.84381,3.08229 6.320235,1.852084 8.995834,1.852084 v -1.852084 h -8.995834 m 0.79375,3.175 c 0.169016,3.050646 5.898039,1.852084 8.202084,1.852084 v -1.852084 h -8.202084 m 10.31875,0 v 1.852084 h 7.672917 l 0.264583,-1.852084 h -7.9375 m -9.789583,3.175001 c 0.29927,3.286923 5.189511,2.116663 7.672917,2.116663 v -2.116663 h -7.672917 m 9.789583,0 v 2.116663 c 2.439194,0 7.064375,1.16073 7.14375,-2.116663 h -7.14375 m -7.9375,6.439963 c 5.523072,-1.05807 7.413096,7.48638 1.852084,8.55133 -5.520082,1.05701 -7.390236,-7.49036 -1.852084,-8.55133 m 11.90625,0 c 5.519473,-1.05728 7.376054,7.36097 1.852084,8.53783 -5.535348,1.17925 -7.408201,-7.47342 -1.852084,-8.53783 z"
       id="path2636" />
  </g>
</svg>
