<?xml version="1.0" encoding="UTF-8" standalone="no"?>
<svg
   xmlns:dc="http://purl.org/dc/elements/1.1/"
   xmlns:cc="http://creativecommons.org/ns#"
   xmlns:rdf="http://www.w3.org/1999/02/22-rdf-syntax-ns#"
   xmlns:svg="http://www.w3.org/2000/svg"
   xmlns="http://www.w3.org/2000/svg"
   width="49mm"
   height="49mm"
   viewBox="0 0 49 49"
   version="1.1"
   id="svg876">
  <defs
     id="defs870" />
  <metadata
     id="metadata873">
    <rdf:RDF>
      <cc:Work
         rdf:about="">
        <dc:format>image/svg+xml</dc:format>
        <dc:type
           rdf:resource="http://purl.org/dc/dcmitype/StillImage" />
        <dc:title></dc:title>
      </cc:Work>
    </rdf:RDF>
  </metadata>
  <g
     id="layer1">
    <path
       style="fill:#2fa7d5;stroke:none;stroke-width:0.264583"
       d="m 38.987741,43.415711 v -0.264583 c -1.522412,-1.525588 -4.490773,-6.027473 -6.614583,-6.351588 -1.388798,-0.211931 -3.35915,1.361546 -4.7625,1.677723 -4.021905,0.905933 -8.245952,0.182827 -11.641667,-2.216679 -1.734529,-1.225815 -3.349546,-2.903802 -4.408699,-4.751123 -7.5946792,-13.245755 8.433752,-28.3390957 21.077449,-19.462802 1.862402,1.307386 3.347244,2.947882 4.493154,4.91072 1.316832,2.255441 1.868223,4.819835 1.856582,7.408332 -0.01455,3.316023 -1.396736,5.887508 -2.910153,8.73125 l 6.614584,6.614583 c 2.171964,-1.768475 3.507581,-4.808802 4.4069,-7.408333 C 49.963716,24.02297 48.293137,14.529324 42.382081,7.961546 33.912768,-1.4489289 19.011249,-2.7003234 9.089824,5.1873104 6.5191594,7.231005 4.3752671,9.8394792 2.8216867,12.724046 1.4430224,15.283863 0.65753002,18.062702 0.24731212,20.926129 -2.7593679,41.913407 22.320394,56.225248 38.987741,43.415711 M 22.054408,14.713104 c -12.200917,2.603077 -7.86519,21.52843 4.233333,18.909055 12.389379,-2.682346 8.107098,-21.541871 -4.233333,-18.909055 z"
       id="path851" />
  </g>
</svg>
