<?xml version="1.0" encoding="UTF-8" standalone="no"?>
<!-- Created with Inkscape (http://www.inkscape.org/) -->

<svg
   width="351.98529"
   height="355.03735"
   viewBox="0 0 93.12944 93.936965"
   version="1.1"
   id="svg1034"
   inkscape:export-filename="RecyKlucy_Red.svg"
   inkscape:export-xdpi="25.31"
   inkscape:export-ydpi="25.31"
   xmlns:inkscape="http://www.inkscape.org/namespaces/inkscape"
   xmlns:sodipodi="http://sodipodi.sourceforge.net/DTD/sodipodi-0.dtd"
   xmlns="http://www.w3.org/2000/svg"
   xmlns:svg="http://www.w3.org/2000/svg">
  <sodipodi:namedview
     id="namedview1036"
     pagecolor="#ffffff"
     bordercolor="#666666"
     borderopacity="1.0"
     inkscape:showpageshadow="2"
     inkscape:pageopacity="0.0"
     inkscape:pagecheckerboard="0"
     inkscape:deskcolor="#d1d1d1"
     inkscape:document-units="mm"
     showgrid="false" />
  <defs
     id="defs1031" />
  <g
     inkscape:label="Layer 1"
     inkscape:groupmode="layer"
     id="layer1">
    <g
       id="g1268"
       transform="translate(-66.339678,-101.82605)">
      <path
         style="fill:#ff0000;stroke-width:0.264583"
         d="m 109.61784,195.6084 c -0.20579,-0.13685 -0.76614,-0.18521 -1.24521,-0.10747 -0.47908,0.0777 -1.08461,0.0483 -1.34563,-0.0654 -0.26102,-0.11372 -0.63336,-0.18048 -0.82743,-0.14836 -0.48016,0.0795 -5.33569,-1.03841 -5.33569,-1.22844 0,-0.17867 1.48369,-7.09825 3.69871,-17.24989 0.87107,-3.99222 1.52734,-7.31502 1.45837,-7.38399 -0.069,-0.069 0.006,-0.28366 0.16648,-0.4771 0.16054,-0.19344 0.22424,-0.528 0.14156,-0.74348 -0.0827,-0.21547 -0.0284,-0.46715 0.12073,-0.5593 0.14908,-0.0921 0.20861,-0.33026 0.13229,-0.52916 -0.0763,-0.1989 -0.0145,-0.43842 0.1373,-0.53226 0.15184,-0.0939 0.21735,-0.3952 0.14558,-0.66967 -0.0718,-0.27448 -0.0306,-0.56077 0.0914,-0.6362 0.12206,-0.0754 0.2164,-0.4625 0.20965,-0.86016 -0.007,-0.39765 0.53147,-3.16379 1.19606,-6.14696 0.66458,-2.98318 1.28603,-5.91356 1.381,-6.51195 0.095,-0.5984 0.26711,-1.24083 0.38256,-1.42762 0.5572,-0.90157 1.10121,0.28254 3.42586,7.45682 1.33558,4.12182 3.53971,10.82795 4.89808,14.90254 1.35836,4.07458 2.78652,8.45013 3.17369,9.72344 l 0.70394,2.3151 10.36889,0.001 10.36888,10e-4 -0.79375,0.65691 c -1.87538,1.55207 -5.48351,3.86747 -7.9375,5.09362 -4.36427,2.18063 -11.3446,4.59759 -12.0389,4.16849 -0.14532,-0.0898 -0.26422,-0.0287 -0.26422,0.13582 0,0.16452 -0.26789,0.27291 -0.59531,0.24085 -0.32743,-0.032 -0.80545,0.0324 -1.06229,0.14319 -0.25684,0.1108 -0.7032,0.13968 -0.99193,0.0642 -0.28872,-0.0755 -0.59469,-0.0244 -0.67993,0.1135 -0.0852,0.13793 -0.65091,0.25358 -1.25704,0.25702 -0.60612,0.003 -2.53079,0.0616 -4.27704,0.12918 -1.77148,0.0686 -3.3404,0.013 -3.54917,-0.12588 z m 33.24999,-14.28601 c -0.53928,-1.40065 -1.64404,-4.21351 -2.455,-6.2508 -3.19409,-8.02411 -7.30489,-18.63573 -7.37973,-19.05 -0.0263,-0.14552 -0.19508,-0.53248 -0.37511,-0.8599 -0.18002,-0.32742 -0.24901,-0.59531 -0.15331,-0.59531 0.0957,0 0.0359,-0.16645 -0.13298,-0.36988 -0.16883,-0.20344 -0.35698,-0.62957 -0.41811,-0.94697 -0.0611,-0.31739 -0.47334,-1.51633 -0.91605,-2.66429 -0.4427,-1.14796 -0.80491,-2.2004 -0.80491,-2.33875 0,-0.13835 0.75471,-0.5027 1.67713,-0.80966 4.87985,-1.62391 9.05832,-5.95313 10.97002,-11.36579 0.64799,-1.83469 0.7089,-2.34425 0.69883,-5.84633 -0.01,-3.34583 -0.0876,-4.03016 -0.60961,-5.35113 -1.70832,-4.32296 -5.41072,-7.13754 -10.91156,-8.29502 -3.63332,-0.76452 -8.17545,-0.90154 -30.13522,-0.90911 l -22.357303,-0.008 1.32292,-1.19123 c 5.42923,-4.88876 10.82762,-8.11072 17.10743,-10.21035 1.72708,-0.57744 3.257643,-0.97727 3.401253,-0.88852 0.14361,0.0888 0.26111,0.0544 0.26111,-0.0764 0,-0.1308 0.86321,-0.39866 1.91823,-0.59525 5.30489,-0.98847 10.67531,-1.14132 15.54427,-0.44242 0.50932,0.0731 1.50745,0.20716 2.21807,0.29789 0.71061,0.0907 1.4196,0.24382 1.57553,0.34019 0.15593,0.0964 0.59556,0.20938 0.97695,0.25113 2.39315,0.262 9.82908,3.40667 13.47314,5.69784 9.12075,5.73457 16.38758,15.01286 19.71586,25.17321 5.26342,16.06779 1.71273,33.3661 -9.48184,46.19378 -1.14491,1.31194 -2.45692,2.67157 -2.91557,3.0214 l -0.83392,0.63606 z m -31.42061,-37.2539 c 0,-0.13911 0.53703,-2.62627 1.1934,-5.527 1.90984,-8.44023 3.5691,-15.92276 3.5691,-16.09506 0,-0.0876 1.3806,-0.15922 3.06801,-0.15922 2.68269,0 3.16502,0.0691 3.84045,0.55003 1.67247,1.19091 2.32486,3.98691 1.8481,7.92063 -0.60514,4.99297 -1.89801,8.53918 -3.96949,10.88791 -1.66519,1.88807 -2.93927,2.38395 -6.5326,2.54252 -1.83523,0.081 -3.01697,0.0341 -3.01697,-0.11981 z"
         id="path862" />
      <path
         style="fill:#000000;stroke-width:0.264583"
         d="m 79.508817,181.73868 c -6.57032,-6.66348 -10.67525,-14.43178 -12.56409,-23.77669 -0.52977,-2.62102 -0.60599,-3.7819 -0.60504,-9.21644 0.001,-5.5193 0.0708,-6.54463 0.62225,-9.12813 1.20166,-5.63026 3.34532,-11.11699 6.02142,-15.41198 l 1.1952,-1.91823 h 10.56453 c 5.85638,0 10.56454,0.10313 10.56454,0.2314 0,0.12726 -0.59673,2.955 -1.32606,6.28385 -4.05083,18.48892 -7.6707,35.28237 -7.77574,36.07347 -0.049,0.36886 -0.17477,0.87332 -0.27956,1.12101 -0.10479,0.24769 -0.1185,0.56689 -0.0305,0.70932 0.088,0.14244 0.0573,0.32248 -0.0683,0.40011 -0.1256,0.0776 -0.23844,0.47281 -0.25075,0.87818 -0.0123,0.40537 -0.67706,3.7136 -1.47724,7.35162 -0.80017,3.63802 -1.53621,7.06238 -1.63564,7.6097 -0.0994,0.5473 -0.26505,1.04718 -0.36804,1.11083 -0.10299,0.0636 -1.26713,-0.97946 -2.58699,-2.31802 z"
         id="path860" />
    </g>
  </g>
</svg>
