<?xml version="1.0" encoding="UTF-8" standalone="no"?>
<svg
   xmlns:dc="http://purl.org/dc/elements/1.1/"
   xmlns:cc="http://creativecommons.org/ns#"
   xmlns:rdf="http://www.w3.org/1999/02/22-rdf-syntax-ns#"
   xmlns:svg="http://www.w3.org/2000/svg"
   xmlns="http://www.w3.org/2000/svg"
   width="221mm"
   height="54mm"
   viewBox="0 0 221 54"
   version="1.1"
   id="svg887">
  <defs
     id="defs881" />
  <metadata
     id="metadata884">
    <rdf:RDF>
      <cc:Work
         rdf:about="">
        <dc:format>image/svg+xml</dc:format>
        <dc:type
           rdf:resource="http://purl.org/dc/dcmitype/StillImage" />
        <dc:title></dc:title>
      </cc:Work>
    </rdf:RDF>
  </metadata>
  <g
     id="layer1">
    <g
       id="g1512"
       transform="translate(5.8561895,-1.701094)">
      <path
         style="fill:#fd0000;stroke-width:0.264583"
         d="m 40.595421,45.411447 c -1.398323,-0.234667 -2.319507,-0.649587 -2.98477,-1.344401 -0.613902,-0.641173 -0.697859,-0.960369 -0.75421,-2.867409 l -0.06341,-2.145921 2.205415,-4.436283 c 2.453828,-4.935976 4.016121,-6.88278 6.491767,-8.089524 1.240647,-0.604748 1.597316,-0.644851 5.735285,-0.644851 4.085797,0 4.467656,0.04155 5.159375,0.561427 0.685872,0.515479 0.74599,0.699532 0.734576,2.248959 -0.0094,1.27326 -0.221665,2.198799 -0.864753,3.770178 -1.088044,2.658621 -1.68325,3.479091 -3.047701,4.201149 -0.973688,0.515269 -1.518661,0.585018 -4.674074,0.598205 l -3.571875,0.01492 -0.845997,1.710913 c -0.465296,0.940998 -0.85225,2.097862 -0.859896,2.570805 l -0.0139,0.859901 1.91823,-0.0046 c 2.66896,-0.0064 5.23576,-0.607648 7.588165,-1.777474 l 2.00298,-0.996048 2.422766,-5.423958 2.422768,-5.423959 -1.023125,-0.08084 -1.023128,-0.08084 0.565023,-1.162985 c 0.510342,-1.050436 0.666025,-1.170638 1.608725,-1.242074 l 1.043702,-0.07909 3.122134,-7.011459 c 1.717174,-3.856302 3.304672,-7.33888 3.527768,-7.739063 l 0.405631,-0.727604 h 3.74733 c 3.444341,0 3.73633,0.03744 3.611248,0.463021 -0.07485,0.254661 -1.577015,3.711974 -3.338153,7.682918 -1.761135,3.970943 -3.202064,7.274927 -3.202064,7.342187 0,0.06726 0.429456,0.122291 0.954349,0.122291 0.804006,0 0.924785,0.07294 0.766689,0.463021 -0.103214,0.254662 -0.306194,0.790443 -0.451067,1.190625 -0.231349,0.639059 -0.400921,0.727605 -1.393415,0.727605 H 67.3878 l -2.548273,5.755857 c -1.401551,3.165721 -2.548274,5.904158 -2.548274,6.085417 0,0.795607 3.098903,-0.171519 4.666065,-1.456217 0.313973,-0.257384 1.941769,-3.578479 3.663606,-7.474641 1.704221,-3.856302 3.137503,-7.051969 3.18507,-7.101481 0.189185,-0.196924 12.098491,6.736526 12.339973,7.184177 0.498737,0.924541 0.284909,1.927865 -1.076431,5.050785 -0.755015,1.73201 -1.311174,3.309588 -1.235906,3.505729 0.19975,0.520544 1.674279,0.436107 2.920638,-0.167246 1.015997,-0.491834 1.177351,-0.738558 2.638764,-4.034896 1.912178,-4.313073 3.508512,-6.797133 5.255439,-8.177998 1.991675,-1.574328 2.768794,-1.88989 4.949032,-2.009633 1.491707,-0.08193 2.312817,-0.283295 3.307297,-0.811066 1.8247,-0.96838 4.52747,-1.017757 5.50484,-0.100568 0.91776,0.861241 1.06129,1.934734 0.48637,3.637695 l -0.48513,1.437002 h 1.16811 1.1681 l 1.21032,-2.629285 1.21032,-2.629285 2.39785,1.204275 c 1.90571,0.957105 2.48163,1.142383 2.80604,0.90272 1.14778,-0.847967 3.29628,-1.641106 4.83468,-1.784763 2.02926,-0.189495 3.44449,0.344863 4.05861,1.532433 0.21561,0.416939 0.43652,0.758072 0.49092,0.758072 0.0544,0 0.70223,-0.406004 1.43962,-0.902231 2.82654,-1.902118 6.87279,-1.941803 8.0931,-0.07938 0.67496,1.030119 0.79917,3.059875 0.29365,4.798793 -0.24372,0.838372 -1.15699,3.137829 -2.02948,5.109906 -0.87249,1.972077 -1.52449,3.746802 -1.44888,3.943834 0.21743,0.566616 1.63949,0.418889 3.10205,-0.322249 1.08391,-0.549259 1.42559,-0.89367 1.77177,-1.785937 0.90562,-2.334226 2.66783,-5.669503 3.81009,-7.211238 3.38358,-4.566884 8.48299,-6.386323 11.72773,-4.184383 0.8737,0.592905 1.02501,0.624582 1.23039,0.257587 0.18632,-0.332941 0.71812,-0.418456 2.60228,-0.418456 1.30246,0 2.3681,0.0583 2.3681,0.129561 0,0.07126 -1.25015,2.944014 -2.77812,6.383899 -1.52797,3.439885 -2.77813,6.536737 -2.77813,6.881897 0,0.549566 0.12331,0.62702 0.99219,0.623208 0.5457,-0.0024 1.45941,-0.270286 2.03046,-0.595313 0.97559,-0.555284 1.19122,-0.934863 3.57187,-6.287408 1.39349,-3.133045 2.86692,-6.435267 3.27429,-7.338272 l 0.74069,-1.641827 2.42301,1.216909 c 1.92609,0.967341 2.50672,1.155066 2.83119,0.915354 1.14128,-0.843162 3.2963,-1.641067 4.81404,-1.782422 2.77342,-0.258303 4.05499,0.581223 4.57499,2.996947 0.30637,1.423243 -0.27111,3.522045 -2.1172,7.694924 -0.9752,2.204336 -1.70063,4.188753 -1.61388,4.414816 0.25076,0.653481 1.75226,0.486966 3.22469,-0.357619 l 1.33072,-0.763296 3.15132,-7.054882 c 1.73323,-3.880185 3.21899,-7.096702 3.3017,-7.147817 0.13325,-0.08235 5.35412,2.730264 5.68828,3.064418 0.0728,0.0728 -0.82873,2.268685 -2.00341,4.879747 -2.62466,5.834118 -3.10032,7.036644 -2.95054,7.459364 0.27379,0.772692 3.51268,-0.01355 3.51268,-0.852707 0,-0.791816 3.36909,-8.04235 4.37164,-9.4081 1.36529,-1.85989 3.31545,-3.343804 5.06153,-3.851403 1.11683,-0.324673 2.35683,-0.400856 5.39559,-0.331495 3.87328,0.08841 3.95848,0.103048 4.65471,0.799707 0.95634,0.956928 0.91246,2.324408 -0.17025,5.30531 -1.062,2.923889 -1.70818,3.876032 -3.18388,4.691433 -1.04524,0.577546 -1.59903,0.668427 -4.83679,0.79375 l -3.65641,0.141526 -0.79197,1.799666 c -0.43558,0.989817 -0.75473,2.06138 -0.70921,2.38125 0.0755,0.530297 0.25424,0.588487 2.02749,0.659855 3.5136,0.141418 7.6685,-1.288161 10.85915,-3.736305 0.78475,-0.602126 1.67772,-1.482437 1.98438,-1.956242 0.30666,-0.473806 0.61709,-0.862127 0.68985,-0.862934 0.0728,-7.93e-4 0.41256,0.410113 0.75512,0.913157 l 0.62283,0.914622 -0.57561,0.931355 c -0.98282,1.590238 -3.41648,3.513487 -6.20814,4.9061 -3.48071,1.736352 -5.09318,2.119267 -8.92427,2.119267 -4.09748,0 -5.64479,-0.342775 -6.81082,-1.508805 l -0.90937,-0.90937 -1.74102,0.801076 c -1.91489,0.881084 -4.66698,1.607657 -6.10664,1.612199 -1.17482,0.0037 -2.49969,-0.797097 -3.03665,-1.835483 -0.48188,-0.931839 -0.48957,-0.934241 -1.29712,-0.405114 -1.09566,0.717904 -4.80694,1.941094 -6.45531,2.127586 -2.93545,0.332108 -4.81353,-1.141772 -4.49184,-3.525102 0.0733,-0.542957 1.29363,-3.572643 2.71186,-6.732633 1.4306,-3.187536 2.50923,-5.926246 2.42277,-6.151563 -0.19402,-0.505595 -0.94582,-0.523256 -1.63794,-0.03848 -0.30405,0.212965 -2.02645,3.773844 -4.09377,8.463457 l -3.56887,8.095811 -3.90616,0.0032 -3.90615,0.0032 0.39843,-0.953585 c 0.37194,-0.890188 0.36778,-0.940075 -0.0626,-0.750398 -3.29202,1.450875 -6.78086,2.044658 -7.85981,1.337702 -0.36906,-0.241805 -0.67101,-0.617194 -0.67101,-0.834184 0,-0.296815 -0.26977,-0.216011 -1.08918,0.326253 -1.19523,0.790966 -3.42925,1.08994 -5.65279,0.756502 -1.31341,-0.196961 -2.68484,-1.17705 -3.07202,-2.195428 -0.13389,-0.352153 -0.332,-0.594656 -0.44024,-0.538898 -4.094,2.108885 -7.51313,3.108796 -9.40279,2.749812 -0.55214,-0.104894 -1.38557,-0.531752 -1.85208,-0.948576 -1.47449,-1.317456 -1.27955,-2.331498 1.73704,-9.035622 1.41578,-3.146446 2.57414,-5.904728 2.57414,-6.129515 0,-0.544171 -0.50518,-0.6901 -1.36582,-0.394542 -0.61364,0.210733 -1.17529,1.296078 -4.36044,8.426191 l -3.65606,8.184301 h -3.77551 c -2.07653,0 -3.7755,-0.09963 -3.7755,-0.221406 0,-0.121774 1.55435,-3.705031 3.45411,-7.962794 1.89976,-4.257762 3.41659,-7.938365 3.37073,-8.179115 -0.11898,-0.624634 -1.14816,-0.690452 -1.7281,-0.110514 -0.27062,0.270624 -2.08909,4.087945 -4.04105,8.482936 l -3.549,7.990893 h -3.89789 -3.89789 l 1.08721,-2.447395 c 0.59796,-1.346068 1.82891,-4.114271 2.73542,-6.151563 0.90652,-2.037292 1.60925,-3.745754 1.56162,-3.796581 -0.0476,-0.05083 -0.5411,-0.0136 -1.09661,0.08271 -0.97784,0.169548 -1.04229,0.250031 -2.02337,2.526866 -1.97074,4.573569 -4.16313,7.538506 -6.552858,8.861947 -1.389102,0.769287 -1.546439,0.794237 -5.551606,0.880308 -4.762,0.102336 -5.891059,-0.168844 -6.408296,-1.539163 -0.165746,-0.439108 -0.398272,-0.798378 -0.516726,-0.798378 -0.118454,0 -0.818144,0.305449 -1.554863,0.678773 -1.597748,0.809638 -4.936641,1.702477 -6.366656,1.702477 -1.636011,0 -2.818392,-0.630515 -3.287413,-1.753041 -0.577694,-1.382612 -0.358627,-2.216696 1.920708,-7.312978 1.091165,-2.439694 1.945793,-4.62959 1.899168,-4.866431 -0.112545,-0.571736 -0.837551,-1.007317 -1.349589,-0.810829 -0.225885,0.08668 -0.924957,1.147426 -1.55349,2.35721 -1.575829,3.033117 -3.940588,5.355296 -8.161195,8.014235 -1.818624,1.145714 -4.071657,2.430018 -5.006739,2.854005 -1.788433,0.810913 -4.572958,1.505492 -6.066475,1.513236 -1.228225,0.0064 -2.636404,-0.719873 -3.087585,-1.592363 l -0.378457,-0.731853 -2.076548,0.897779 c -1.142103,0.493778 -2.709209,1.017762 -3.482461,1.164405 -1.354791,0.256931 -6.587398,0.311938 -7.948269,0.08356 z m 55.483365,-3.45495 c 0.359519,-0.400183 1.597745,-2.859384 2.751616,-5.464893 1.897368,-4.284385 2.059618,-4.779632 1.697108,-5.180208 -0.22046,-0.243607 -0.40084,-0.8205 -0.40084,-1.281983 0,-0.875877 -0.279741,-1.071436 -0.727154,-0.508334 -0.472908,0.595194 -5.358262,11.836726 -5.358262,12.329732 0,1.081469 1.109215,1.139003 2.037532,0.105686 z M 146.2754,41.824205 c 0.69274,-0.615609 5.7096,-11.531836 5.7096,-12.423567 0,-0.342635 -0.20261,-0.473744 -0.7276,-0.47082 -0.40018,0.0021 -0.87893,0.100094 -1.06388,0.217479 -0.34249,0.217377 -4.7412,9.70088 -5.33732,11.507121 -0.25667,0.777746 -0.25807,1.075283 -0.006,1.378464 0.43183,0.520324 0.63951,0.489926 1.42564,-0.208677 z M 49.723916,31.984808 c 0.547153,-1.227942 0.923468,-2.418567 0.836258,-2.645833 -0.21422,-0.558253 -1.316304,-0.523449 -1.84268,0.05819 -0.364289,0.402532 -2.30124,4.360741 -2.30124,4.702636 0,0.0647 0.520391,0.117634 1.156423,0.117634 h 1.156419 z m 154.680134,-0.05242 c 1.12208,-2.428734 1.15276,-3.006616 0.15962,-3.006616 -0.97671,0 -1.40366,0.500957 -2.53684,2.976562 l -1.05972,2.315105 h 1.19062 1.19063 z M 105.8336,28.814401 c 0.26856,-1.070033 0.0363,-1.601578 -0.73903,-1.691256 -0.57427,-0.06642 -0.7486,0.04661 -0.88013,0.570669 -0.0902,0.359425 -0.0306,0.902713 0.13237,1.20731 0.41047,0.766963 1.28534,0.715933 1.48679,-0.08672 z m 50.64932,-8.619884 3.48858,-2.910417 h 2.80654 c 1.90156,0 2.71982,0.08673 2.53757,0.268972 -0.14793,0.147935 -1.98745,1.455715 -4.08781,2.906178 l -3.81884,2.637205 -2.20731,0.0042 -2.20731,0.0042 z m 35.32187,1.670118 c -1.94163,-0.412052 -2.8651,-1.554892 -2.23878,-2.770593 0.60226,-1.169013 1.67661,-2.073654 3.09123,-2.60293 4.19467,-1.569427 7.33502,0.844196 4.64302,3.568546 -1.22383,1.238537 -3.94818,2.133343 -5.49547,1.804977 z"
         id="path1518" />
      <path
         style="fill:#570000;stroke-width:0.264583"
         d="m 40.264692,45.419289 c 0.181901,-0.0734 0.479557,-0.0734 0.661458,0 0.181901,0.0734 0.03307,0.133453 -0.330729,0.133453 -0.363802,0 -0.51263,-0.06006 -0.330729,-0.133453 z m -2.737117,-1.213834 -0.504029,-0.595313 0.595313,0.504029 c 0.559445,0.473662 0.715761,0.686596 0.504028,0.686596 -0.05021,0 -0.318098,-0.26789 -0.595312,-0.595312 z m -0.818917,-2.711979 c 0.0016,-0.873125 0.05088,-1.198415 0.109765,-0.722866 0.05888,0.475549 0.05767,1.189924 -0.0027,1.5875 -0.06037,0.397576 -0.108551,0.0085 -0.107065,-0.864634 z m 7.855513,-3.671772 c 0,-0.05494 0.208359,-0.2633 0.463021,-0.46302 0.419645,-0.329108 0.429003,-0.319749 0.0999,0.0999 -0.345644,0.440729 -0.562917,0.580887 -0.562917,0.363124 z m -3.439583,-7.672917 c 0,-0.05494 0.208359,-0.2633 0.463021,-0.46302 0.419645,-0.329108 0.429003,-0.319749 0.0999,0.0999 -0.345644,0.440729 -0.562917,0.580887 -0.562917,0.363124 z"
         id="path1516" />
      <path
         style="fill:#000000;stroke-width:0.264583"
         d="M 16.076593,54.462994 C 14.273519,54.135845 10.377021,52.951326 9.7367047,52.535697 9.4532436,52.351701 10.347283,50.224713 18.404463,31.914439 l 1.886597,-4.287369 0.957909,0.491308 c 1.613146,0.827375 2.677702,2.323819 2.677702,3.764036 0,0.297522 -0.833437,2.411625 -1.852083,4.698006 -2.025995,4.547404 -2.224763,5.621459 -1.316135,7.111791 0.299926,0.491934 0.963813,1.055415 1.514641,1.285565 1.98224,0.828234 6.28313,-0.431204 11.443161,-3.350924 l 2.778125,-1.571956 0.132291,1.560156 c 0.174726,2.060596 0.81693,2.901167 2.74697,3.595468 l 1.506792,0.542044 -1.796153,1.725067 c -6.097024,5.85573 -14.7516,8.483347 -23.007687,6.985363 z M 0.99970307,46.017435 C -4.0205095,40.569199 -6.5066049,32.971209 -5.7097645,25.512 -5.3557034,22.197639 -4.015326,17.881062 -2.5662309,15.388503 l 0.974535,-1.676278 8.8826315,-0.06962 c 8.6576534,-0.06785 8.9004004,-0.05564 9.5841834,0.482224 0.385854,0.303513 0.701553,0.756558 0.701553,1.006768 0,0.665799 -14.0183838,31.958816 -14.6887544,32.789476 -0.034444,0.04268 -0.8841406,-0.813959 -1.88821453,-1.903641 z M 43.354615,42.068717 c -0.206507,-0.538149 0.800748,-3.363235 1.529403,-4.289568 0.666739,-0.847625 1.375098,-0.883066 1.118925,-0.05599 -0.219302,0.708038 -1.248756,2.783607 -1.963856,3.959498 -0.425299,0.699346 -0.539528,0.763772 -0.684472,0.386056 z M 28.689171,39.72453 c 0,-0.356399 0.618639,-2.009185 1.374754,-3.672859 1.23053,-2.707526 1.376257,-3.221228 1.389063,-4.896628 0.01251,-1.638411 -0.07488,-1.988802 -0.701051,-2.81056 -0.393446,-0.51634 -1.192199,-1.174721 -1.775002,-1.46307 l -1.059646,-0.524271 1.113547,-0.326269 c 1.933352,-0.566474 4.494397,-2.166945 6.219187,-3.88655 1.304713,-1.300794 1.923775,-2.212552 2.854322,-4.203868 1.466086,-3.137336 1.582317,-3.715533 0.980102,-4.875475 C 37.790793,10.573244 31.713473,9.6741388 27.489789,11.349616 L 25.893531,11.98283 24.711664,11.392319 C 23.552289,10.813046 23.313738,10.800296 12.176834,10.722352 L 0.82387105,10.642896 1.9903756,9.4407456 C 11.032637,0.12217466 26.46642,-0.92408596 36.863981,7.076654 c 2.287852,1.7604622 5.296189,5.108616 6.713728,7.472102 1.412719,2.355451 2.864848,6.192852 3.361838,8.884021 0.393356,2.129987 0.294516,2.477132 -0.771993,2.711376 -0.976056,0.214378 -3.029712,1.728835 -4.27355,3.151504 -0.49594,0.567243 -1.556552,2.340933 -2.356916,3.941535 l -1.455208,2.910184 -3.641741,1.971122 c -2.058453,1.114153 -4.100245,2.032619 -4.696354,2.112574 -0.981194,0.131606 -1.054614,0.09634 -1.054614,-0.506542 z M 21.4878,25.004668 c 1.470671,-3.728847 4.316897,-9.55462 5.014656,-10.264207 1.27498,-1.29659 3.37253,-1.524416 4.417171,-0.479774 0.628579,0.628578 0.516983,1.273616 -0.700706,4.050141 -1.396966,3.185301 -2.515386,4.322782 -5.861405,5.9613 -2.746473,1.344925 -3.152076,1.448462 -2.869716,0.73254 z"
         id="path1514" />
    </g>
  </g>
</svg>
