<?xml version="1.0" encoding="UTF-8" standalone="no"?>
<svg
   xmlns:dc="http://purl.org/dc/elements/1.1/"
   xmlns:cc="http://creativecommons.org/ns#"
   xmlns:rdf="http://www.w3.org/1999/02/22-rdf-syntax-ns#"
   xmlns:svg="http://www.w3.org/2000/svg"
   xmlns="http://www.w3.org/2000/svg"
   xmlns:sodipodi="http://sodipodi.sourceforge.net/DTD/sodipodi-0.dtd"
   xmlns:inkscape="http://www.inkscape.org/namespaces/inkscape"
   width="210mm"
   height="35.358002mm"
   viewBox="0 0 210 35.358001"
   version="1.1"
   id="svg1064"
   inkscape:version="1.0.2 (e86c870879, 2021-01-15)"
   sodipodi:docname="tesime-se.svg">
  <defs
     id="defs1058" />
  <sodipodi:namedview
     id="base"
     pagecolor="#ffffff"
     bordercolor="#666666"
     borderopacity="1.0"
     inkscape:pageopacity="0.0"
     inkscape:pageshadow="2"
     inkscape:zoom="0.27609525"
     inkscape:cx="402.21325"
     inkscape:cy="849.96649"
     inkscape:document-units="mm"
     inkscape:current-layer="layer1"
     inkscape:document-rotation="0"
     showgrid="false"
     inkscape:window-width="1920"
     inkscape:window-height="1032"
     inkscape:window-x="0"
     inkscape:window-y="25"
     inkscape:window-maximized="1" />
  <metadata
     id="metadata1061">
    <rdf:RDF>
      <cc:Work
         rdf:about="">
        <dc:format>image/svg+xml</dc:format>
        <dc:type
           rdf:resource="http://purl.org/dc/dcmitype/StillImage" />
        <dc:title></dc:title>
      </cc:Work>
    </rdf:RDF>
  </metadata>
  <g
     inkscape:label="Layer 1"
     inkscape:groupmode="layer"
     id="layer1">
    <g
       id="use1660"
       transform="matrix(0.7383263,0,0,0.7383263,-1.6883249,-2.9076981)">
      <path
         style="fill:#f4faf8;stroke-width:0.264583"
         d="m 51.598854,31.799307 0.885052,-2.064203 1.227434,-2.815356 1.227437,-2.815357 v -0.161206 -0.161206 h -1.190625 -1.190625 v -0.529166 -0.529167 h 4.406632 4.406633 l -0.435853,0.481611 -0.435851,0.48161 0.736005,0.705138 0.736005,0.705138 0.967718,-0.657582 0.967719,-0.657582 h 0.278622 0.27862 l -0.0031,0.33073 -0.0031,0.330729 -1.222528,1.269423 -1.222529,1.269424 -0.420825,-0.08104 -0.420825,-0.08104 -0.594188,-1.056089 -0.594188,-1.056088 -0.574289,0.08902 -0.574291,0.08902 0.144362,-0.55204 0.144365,-0.552039 h -0.901272 -0.901271 l -0.0092,0.463021 -0.0092,0.463021 -1.934536,4.497917 -1.934535,4.497917 -1.359395,0.07983 -1.359398,0.07983 z m 5.91961,1.751063 -0.463021,-0.269685 V 32.471764 31.66284 l 0.792623,-1.660789 0.792621,-1.660791 0.901012,-0.427557 0.901009,-0.427557 h 1.062853 1.062855 l 0.418512,0.160599 0.418516,0.160599 v 0.782837 0.782837 l -0.28588,0.534171 -0.28588,0.534173 -0.896247,0.374475 -0.896247,0.374476 h -0.77394 -0.773941 l -0.160599,0.418515 -0.1606,0.418513 v 0.375237 0.375235 h 0.678556 0.678556 l 1.286721,-0.553532 1.286722,-0.553535 0.692081,-0.998673 0.692081,-0.998675 0.649933,-0.61058 0.649934,-0.61058 v -0.579656 -0.579657 l 0.54837,-0.697139 0.54837,-0.69714 h 0.774546 0.774547 v 0.602587 0.602587 l -0.415372,0.593026 -0.415372,0.593026 0.547664,0.886138 0.547663,0.886137 v 0.637504 0.637503 l -0.42786,0.610854 -0.42786,0.610857 0.758589,-0.394555 0.75859,-0.394552 0.561893,-0.620453 0.561895,-0.620451 0.734915,-1.662348 0.734915,-1.662349 0.158398,0.08334 0.1584,0.08334 0.727605,0.364709 0.727604,0.364709 v 0.19745 0.19745 l -0.79375,1.769119 -0.79375,1.769118 v 0.10763 0.107627 h 0.376573 0.376576 l 0.832581,-0.700569 0.832577,-0.700569 0.810647,-1.812973 0.810643,-1.812972 h 0.170289 0.170288 l 0.58343,0.40865 0.58343,0.40865 0.51638,-0.276358 0.516382,-0.276359 h 0.795528 0.79553 l 0.157271,0.254473 0.157274,0.254474 0.669317,-0.254474 0.669316,-0.254473 h 0.723609 0.723609 l 0.3175,0.3175 0.3175,0.3175 v 0.468706 0.468706 l -0.661458,1.495675 -0.661459,1.495674 v 0.09937 0.09937 h 0.376574 0.376576 l 0.827058,-0.695923 0.827056,-0.695923 0.662787,-1.307942 0.662784,-1.307941 0.903208,-0.377386 0.903211,-0.377385 h 0.951933 0.951934 l 0.511773,0.273893 0.511773,0.273892 v 0.532997 0.532997 l -0.398415,0.770451 -0.398417,0.770453 -0.990645,0.271391 -0.990648,0.271394 -0.661458,0.06949 -0.661459,0.06949 -0.08372,0.727605 -0.08372,0.727604 h 0.68753 0.68753 l 0.983689,-0.410911 0.983689,-0.410911 0.698583,-0.669118 0.698579,-0.669116 0.184121,0.297913 0.184121,0.297913 -0.405712,0.619196 -0.405712,0.619197 -1.388835,0.692084 -1.388835,0.692086 H 87.013681 85.5904 l -0.542211,-0.608732 -0.542213,-0.608732 -1.202399,0.608732 -1.202402,0.608732 h -0.71651 -0.716513 l -0.342706,-0.412935 -0.342707,-0.412935 0.598085,-1.373003 0.598083,-1.373002 0.377235,-0.859896 0.377235,-0.859896 h -0.371221 -0.371219 l -1.129765,2.645834 -1.129763,2.645833 h -1.29 -1.290003 l 0.28683,-0.535942 0.286827,-0.535946 0.90307,-2.109888 0.903071,-2.109891 h -0.357635 -0.357632 l -1.129765,2.645834 -1.129763,2.645833 h -1.29 -1.290003 l 0.277032,-0.517636 0.27703,-0.517633 -1.127617,0.511823 -1.127618,0.511826 -0.725363,0.0058 -0.72536,0.0058 -0.305435,-0.489077 -0.305433,-0.489077 -1.287147,0.489077 -1.287145,0.489077 h -0.953678 -0.953677 l -0.687213,-0.750038 -0.687213,-0.750041 -1.425848,0.750041 -1.425847,0.750038 -1.362197,-0.008 -1.362194,-0.008 -0.463021,-0.269685 z m 8.479896,-1.619224 0.3175,-0.3175 v -1.005417 -1.005416 h -0.246568 -0.246565 l -0.547185,0.768448 -0.547182,0.768448 v 0.554468 0.554469 h 0.47625 0.47625 z m -5.193437,-1.972465 0.483854,-0.437882 v -0.48816 -0.48816 h -0.257789 -0.257789 l -0.403669,0.780611 -0.40367,0.780611 v 0.145431 0.145431 h 0.177604 0.177605 z m 27.993475,-0.428226 0.389827,-0.691389 -0.214165,-0.213439 -0.214167,-0.213439 -0.506391,0.624624 -0.506391,0.624624 v 0.389612 0.389613 l 0.330729,-0.109409 0.330729,-0.109408 z M 67.506485,26.956979 67.670006,26.692396 H 67.389809 67.10961 v 0.264583 0.264584 h 0.116676 0.116679 z m 27.771718,5.961232 -0.980903,-0.980905 0.359976,-0.672624 0.359979,-0.672627 0.995138,-1.130533 0.995135,-1.130535 v -0.519031 -0.519031 l 0.54837,-0.697139 0.54837,-0.69714 h 0.774546 0.774547 v 0.602587 0.602587 l -0.415372,0.593026 -0.415372,0.593026 0.547664,0.886138 0.547663,0.886137 v 0.637504 0.637503 l -0.431305,0.615773 -0.431302,0.615772 0.62974,-0.325382 0.629743,-0.325381 0.60904,-0.555115 0.60903,-0.555117 0.49745,-1.124555 0.49744,-1.124555 0.87789,-0.535235 0.8779,-0.535235 1.14187,-9.79e-4 1.14188,-9.79e-4 0.53996,0.288981 0.53997,0.288981 -0.16456,0.822779 -0.16455,0.822778 -0.56801,0.604611 -0.568,0.604611 -1.28962,0.171075 -1.28963,0.171074 -0.2672,0.499274 -0.26721,0.499271 0.16014,0.259118 0.16015,0.259114 0.4474,-0.0016 0.44741,-0.0016 0.99942,-0.277543 0.99942,-0.27754 0.88977,-0.781227 0.88977,-0.781227 0.14912,0.388614 0.14913,0.388618 -1.09498,0.937265 -1.09499,0.937263 -0.94333,0.262054 -0.94333,0.262056 -1.23787,0.0016 -1.23787,0.0016 -0.41578,-0.415774 -0.41577,-0.415774 v -0.21249 -0.212489 l -1.086403,0.537509 -1.086397,0.537506 -1.272186,0.12224 -1.272185,0.122243 -0.980906,-0.980906 z m 1.940991,-0.987065 0.3175,-0.3175 v -1.005417 -1.005416 h -0.246568 -0.246565 l -0.547185,0.768448 -0.547182,0.768448 v 0.554468 0.554469 h 0.47625 0.47625 z m 7.661056,-1.865312 0.2646,-0.33073 0.1825,-0.595312 0.18251,-0.595313 h -0.36571 -0.3657 l -0.4416,0.926042 -0.44159,0.926042 h 0.36019 0.3602 z m -6.152931,-3.108855 0.163521,-0.264583 h -0.280197 -0.280199 v 0.264583 0.264584 h 0.116676 0.116679 z m 11.492541,6.283855 0.23466,-0.595313 0.7167,-1.5875 0.7167,-1.5875 0.49199,-1.134021 0.49199,-1.134021 0.73292,0.372607 0.73292,0.372606 0.52916,-0.212177 0.52917,-0.212176 0.86557,-0.0186 0.86557,-0.01859 0.28105,0.616835 0.28104,0.616834 -0.68359,1.624152 -0.6836,1.624152 v 0.140264 0.140263 h 0.36119 0.3612 l 0.67121,-0.527973 0.67121,-0.527973 0.81746,-1.448459 0.81746,-1.448459 0.78283,-0.404818 0.78283,-0.404818 h 0.6305 0.6305 l 0.18766,0.18766 0.18766,0.187659 1.04186,-0.07522 1.04186,-0.07522 -0.4215,1.012043 -0.4215,1.012045 -0.49934,0.981646 -0.49934,0.981647 v 0.275124 0.275124 h 0.38767 0.38767 l 0.90621,-0.79566 0.9062,-0.79566 0.15879,0.413782 0.15878,0.413782 -0.72506,0.68232 -0.72505,0.682321 -1.05833,0.487498 -1.05834,0.487497 -0.57969,0.0058 -0.5797,0.0058 -0.16397,-0.265298 -0.16396,-0.2653 -0.52533,0.281151 -0.52534,0.281149 -0.84767,-0.082 -0.84767,-0.08202 -0.23667,-0.538398 -0.23667,-0.538396 -1.29736,0.620893 -1.29736,0.620895 -0.68824,-0.0825 -0.68825,-0.0825 -0.2799,-0.44716 -0.27991,-0.447156 0.88319,-2.009682 0.88319,-2.009682 -0.14935,-0.149342 -0.14934,-0.149342 -0.22404,0.138462 -0.22403,0.138461 -1.05034,2.532518 -1.05034,2.532518 -1.25022,0.0013 -1.25022,0.0013 0.23465,-0.595313 z m 11.41892,-2.503128 0.76875,-1.713387 v -0.23992 -0.23992 h -0.26195 -0.26195 l -0.79638,1.756388 -0.79639,1.756388 v 0.375893 0.375894 l 0.28959,-0.178975 0.28959,-0.178975 z m 7.44948,2.923212 -0.33073,-0.133453 v -0.743776 -0.743775 l 1.71979,-3.822902 1.71979,-3.822902 v -0.306065 -0.306066 h -0.54856 -0.54857 l 0.0879,-0.46302 0.0879,-0.463021 1.24539,-0.08027 1.24538,-0.08028 0.53817,0.288021 0.53818,0.288022 v 0.47009 0.470089 l -1.71484,3.820081 -1.71483,3.82008 -0.005,0.330729 -0.005,0.330729 h 0.24428 0.24429 l 0.74901,-0.630248 0.749,-0.630248 1.0981,-1.94944 1.0981,-1.949439 0.8645,-2.315104 0.8645,-2.315104 h 1.14515 1.14516 v 0.243634 0.243634 l -0.89968,2.133214 -0.89968,2.133214 -1.21874,1.707917 -1.21874,1.707916 -1.13793,0.932447 -1.13793,0.932448 -1.17542,0.533228 -1.17543,0.533228 -0.66145,-0.01508 -0.66146,-0.01508 -0.33073,-0.133453 z m 7.80521,-0.110548 -0.46302,-0.269685 v -0.468886 -0.468887 l 0.43301,-1.270831 0.43302,-1.270829 1.10913,-1.157553 1.10913,-1.157553 h 0.79501 0.795 l 0.18766,0.18766 0.18766,0.187659 1.04706,-0.0756 1.04707,-0.0756 v 0.119492 0.119493 l -0.93526,2.052287 -0.93526,2.052289 0.12157,0.121568 0.12157,0.121568 0.53318,-0.169225 0.53319,-0.169228 1.60342,-1.808572 1.60342,-1.808572 v -0.52422 -0.52422 l 0.54837,-0.697139 0.54837,-0.69714 h 0.77455 0.77454 v 0.602587 0.602587 l -0.41537,0.593026 -0.41537,0.593026 0.54766,0.886138 0.54767,0.886137 v 0.637504 0.637503 l -0.42786,0.610854 -0.42787,0.610857 0.75859,-0.394555 0.75859,-0.394552 0.5619,-0.620453 0.56189,-0.620451 0.73492,-1.662348 0.73491,-1.662349 0.1584,0.08334 0.1584,0.08334 0.7276,0.364709 0.72761,0.364709 v 0.19745 0.19745 l -0.79375,1.769119 -0.79375,1.769118 v 0.10763 0.107627 h 0.38767 0.38767 l 0.93359,-0.819705 0.93359,-0.819703 0.16604,0.432683 0.16603,0.432684 -0.46464,0.513427 -0.46465,0.513426 -1.33918,0.667343 -1.33919,0.667345 h -0.73956 -0.73955 l -0.30544,-0.489077 -0.30543,-0.489077 -1.28715,0.489077 -1.28714,0.489077 h -0.95368 -0.95368 l -0.68721,-0.750038 -0.68721,-0.750041 -1.42585,0.750041 -1.42585,0.750038 h -0.61898 -0.61897 l -0.16396,-0.265298 -0.16397,-0.2653 -0.49572,0.2653 -0.49571,0.265298 -0.61271,-0.008 -0.6127,-0.008 -0.46302,-0.269685 z m 2.93739,-2.579598 0.83292,-1.807039 v -0.309626 -0.309628 h -0.22916 -0.22916 l -0.82917,1.854412 -0.82918,1.854412 v 0.262255 0.262255 h 0.22542 0.22541 z m 6.60084,0.960374 0.3175,-0.3175 v -1.005417 -1.005416 h -0.24657 -0.24657 l -0.54718,0.768448 -0.54718,0.768448 v 0.554468 0.554469 h 0.47625 0.47625 z m 1.50812,-4.974167 0.16352,-0.264583 h -0.2802 -0.28019 v 0.264583 0.264584 h 0.11667 0.11668 z m 10.31851,6.444256 -0.43491,-0.434909 0.15949,-0.689571 0.15949,-0.689567 0.72438,-1.447929 0.72438,-1.447929 0.89419,-0.602592 0.89418,-0.602592 h 0.71294 0.71294 l 1.08465,-2.38125 1.08465,-2.38125 h 1.19945 1.19944 l -0.23431,0.595313 -0.23431,0.595312 -1.74351,3.80289 -1.74352,3.802891 v 0.364297 0.364297 h 0.11984 0.11984 l 0.67217,-0.306263 0.67218,-0.306263 0.77451,-1.372363 0.77452,-1.372364 0.83502,-0.702624 0.83502,-0.702623 h 0.72935 0.72935 l 0.18766,0.18766 0.18766,0.187659 1.04706,-0.0756 1.04707,-0.0756 v 0.119492 0.119493 l -0.92605,2.032064 -0.92604,2.032065 v 0.117633 0.117634 h 0.38767 0.38767 l 0.88543,-0.77742 0.88543,-0.77742 1.55194,-3.488331 1.55194,-3.488333 0.81298,-0.495759 0.81298,-0.495759 0.83826,-9.79e-4 0.83826,-9.79e-4 0.41851,0.160599 0.41852,0.160599 v 0.608488 0.608487 l -0.76077,1.695606 -0.76077,1.695605 -1.13894,0.974892 -1.13894,0.974871 h -0.21158 -0.21158 l -0.53455,1.047792 -0.53454,1.047792 v 0.275125 0.275124 l 0.8599,-0.0059 0.85989,-0.0059 0.56637,-0.457139 0.56637,-0.457137 1.17676,-1.465052 1.17675,-1.465053 0.19572,-0.783906 0.19572,-0.783906 0.41727,-0.463021 0.41727,-0.46302 h 0.76104 0.76105 l 0.15962,0.415974 0.15963,0.415974 -0.56625,0.765886 -0.56624,0.765887 0.52962,0.86866 0.52961,0.86866 0.001,0.668732 0.001,0.668734 -0.44117,0.629865 -0.44118,0.629864 1.12112,-0.630105 1.12113,-0.630105 0.94707,-1.991409 0.94707,-1.991409 0.0682,-0.08565 0.0682,-0.08566 0.81834,0.423179 0.81833,0.423179 -0.003,0.323935 -0.003,0.323935 -0.65887,1.415334 -0.65887,1.415334 v 0.370605 0.370602 h 0.14543 0.14543 l 0.76746,-0.39687 0.76746,-0.39687 0.25994,-0.463026 0.25994,-0.463026 0.196,0.50891 0.196,0.508908 -0.89485,0.747053 -0.89485,0.747054 -1.12396,0.429247 -1.12397,0.429247 -0.67293,-0.168897 -0.67295,-0.168913 v -0.42009 -0.420143 l -0.46302,0.196334 -0.46303,0.196334 -0.92604,0.349528 -0.92604,0.349525 -0.93331,0.01162 -0.93332,0.01161 -0.58804,-0.411877 -0.58804,-0.41188 v -0.38187 -0.381873 h -0.15759 -0.15759 l -0.70231,0.488698 -0.7023,0.488699 -0.89938,0.305051 -0.89938,0.305052 h -0.77428 -0.77429 l -0.54221,-0.608732 -0.54222,-0.608733 -1.2024,0.608733 -1.2024,0.608732 h -0.601 -0.601 l -0.14905,-0.241168 -0.14905,-0.24117 -0.74595,0.281564 -0.74594,0.281562 -0.73604,-0.184735 -0.73604,-0.184735 -0.12331,-0.471543 -0.12331,-0.471543 -1.21653,0.615884 -1.21653,0.615884 h -0.601 -0.601 l -0.16396,-0.265298 -0.16397,-0.2653 -0.49571,0.2653 -0.49572,0.265298 h -0.65995 -0.65996 l -0.43491,-0.434912 z m 3.17364,-2.736578 0.89904,-1.972396 -0.10039,-0.100385 -0.10039,-0.100385 -0.2651,0.163845 -0.26511,0.163845 -0.65349,1.427419 -0.6535,1.427419 -0.1851,0.5832 -0.1851,0.583202 0.30505,-0.101684 0.30506,-0.101685 z m 6.97389,0.306115 0.83292,-1.807039 v -0.309626 -0.309628 h -0.22916 -0.22916 l -0.82917,1.854412 -0.82918,1.854412 v 0.262255 0.262255 h 0.22542 0.22541 z m 12.10078,0.618345 0.43214,-0.659533 -0.1665,-0.663385 -0.1665,-0.663386 h -0.26343 -0.26343 l -0.52429,0.859896 -0.52429,0.859895 -0.001,0.463021 -0.001,0.463021 h 0.52306 0.52307 l 0.43214,-0.659529 z m -2.54293,-5.58604 0.80007,-1.693343 v -0.131586 -0.131585 h -0.2522 -0.2522 l -0.56943,1.256771 -0.56943,1.25677 -0.39515,0.914002 -0.39516,0.914001 0.41672,-0.345844 0.41672,-0.345844 z m 3.97507,0.938288 v -0.248969 h -0.26458 -0.26459 v 0.41249 0.41249 l 0.26459,-0.163522 0.26458,-0.163521 z m 9.39952,6.34417 0.17475,-0.550614 1.19109,-2.690533 1.19109,-2.690534 0.0826,-0.08565 0.0826,-0.08565 0.76783,0.397064 0.76784,0.397064 0.38123,-0.241211 0.38123,-0.241212 0.8275,-0.0041 0.8275,-0.004 0.34622,0.417173 0.34623,0.417173 -0.28479,0.97189 -0.28478,0.971889 -0.34782,0.849796 -0.34782,0.8498 0.16816,0.168169 0.16817,0.168169 0.83778,-0.488802 0.83778,-0.488799 0.62274,-1.222306 0.62274,-1.222306 0.85479,-0.719262 0.8548,-0.719262 0.94415,0.157074 0.94415,0.157075 0.99219,-0.01216 0.99219,-0.01216 v 0.14882 0.148819 l -0.79375,1.750578 -0.79375,1.750578 v 0.360281 0.360277 l 0.19843,-0.0011 0.19844,-0.0011 0.81829,-0.498986 0.81829,-0.498988 0.76194,-1.748982 0.76194,-1.748845 h 1.12507 1.12507 l -0.89516,1.964302 -0.89516,1.964301 -0.17432,0.54924 -0.17433,0.549241 h 0.2992 0.29919 l 1.17385,-2.478009 1.17384,-2.478008 v -0.300117 -0.300116 l 0.19844,9.79e-4 0.19844,9.79e-4 0.86394,0.526749 0.86394,0.526749 -0.91131,1.809614 -0.91131,1.809613 -0.93916,0.824598 -0.93917,0.824598 -0.92996,0.174461 -0.92995,0.174463 -0.6632,-0.166452 -0.6632,-0.166432 v -0.422693 -0.422693 l -0.46302,0.14591 -0.46302,0.14591 -1.25751,0.47844 -1.25751,0.478444 -0.45173,-0.284943 -0.45173,-0.284943 -0.6915,0.261009 -0.69149,0.261011 -0.69049,-0.173299 -0.69048,-0.173302 -0.15545,-0.489771 -0.15544,-0.48977 -1.25126,0.634042 -1.25125,0.634045 -0.79375,-0.07751 -0.79375,-0.07751 -0.0811,-0.700437 -0.0811,-0.700437 0.8087,-1.783554 0.8087,-1.783556 v -0.0957 -0.0957 h -0.33742 -0.33742 l -1.15105,2.645834 -1.15106,2.645833 h -1.17519 -1.17518 z m 11.38532,-2.506755 0.91099,-1.999034 v -0.117633 -0.117634 h -0.34906 -0.34906 l -0.84221,1.91823 -0.84222,1.918229 5.3e-4,0.198437 5.2e-4,0.198438 h 0.27964 0.27964 l 0.91099,-1.999033 z m 11.02403,2.645489 -0.58804,-0.411879 v -0.410178 -0.410181 l -0.39687,0.152296 -0.39688,0.152295 V 32.16947 31.842318 l 0.69838,-1.053608 0.69838,-1.053606 0.59046,-0.661458 0.59045,-0.661458 0.18699,-0.79375 0.18699,-0.79375 0.41727,-0.463021 0.41727,-0.463021 h 0.76104 0.76105 l 0.15962,0.415974 0.15963,0.415975 -0.56625,0.765886 -0.56624,0.765886 0.52962,0.86866 0.52961,0.868661 0.001,0.668732 0.001,0.668734 -0.44117,0.629864 -0.44118,0.629865 1.08026,-0.607137 1.08025,-0.607137 0.72829,-1.338102 0.72828,-1.338103 -0.29416,-0.09806 -0.29418,-0.09806 0.14574,-0.379781 0.1456,-0.379781 h 0.33231 0.33231 l 0.99856,-2.38125 0.99855,-2.38125 h 1.27726 1.27726 l -0.51977,1.190625 -0.51976,1.190625 -0.51977,1.190625 -0.51976,1.190625 h 0.25518 0.25518 v 0.289354 0.289353 l -0.46302,0.126489 -0.46302,0.126489 -0.76714,1.705384 -0.76715,1.705382 0.18253,0.182526 0.18253,0.182525 0.7169,-0.421267 0.71691,-0.421267 0.88769,-1.643013 0.88769,-1.643012 0.88975,-0.371763 0.88975,-0.371763 h 0.95193 0.95194 l 0.51177,0.273893 0.51177,0.273892 v 0.532997 0.532997 l -0.39841,0.770451 -0.39842,0.770453 -0.99064,0.271391 -0.99065,0.271394 -0.66146,0.06949 -0.66146,0.06949 -0.0837,0.727605 -0.0837,0.727604 0.74518,-0.0058 0.74518,-0.0058 1.05833,-0.488452 1.05834,-0.488453 0.56714,-0.630216 0.56715,-0.630217 0.58991,-1.389062 0.58992,-1.389063 h 1.02575 1.02575 v 0.231552 0.231552 l -0.92604,2.032065 -0.92604,2.032064 v 0.249925 0.249926 h 0.26077 0.26078 l 0.75879,-1.521355 0.7588,-1.521354 0.47499,-1.265701 0.475,-1.2657 0.15908,0.08357 0.15908,0.08357 0.7276,0.364709 0.72761,0.364709 v 0.312145 0.312146 l -0.80911,1.619159 -0.8091,1.61916 -0.79032,0.665009 -0.79032,0.665011 -1.02244,0.306332 -1.02244,0.30633 -0.66779,-0.167606 -0.6678,-0.167606 -0.15544,-0.48977 -0.15545,-0.48977 -1.22995,0.622676 -1.22994,0.622678 h -1.41037 -1.41037 l -0.54705,-0.54705 -0.54705,-0.547052 -1.40726,0.583279 -1.40726,0.583279 -0.69153,-0.173561 -0.69151,-0.173538 V 33.14134 32.721197 l -0.46302,0.196334 -0.46302,0.196334 -0.92605,0.349528 -0.92604,0.349525 -0.93331,0.01162 -0.93332,0.01161 -0.58804,-0.411877 z m 1.68399,-1.835152 0.43214,-0.659533 -0.1665,-0.663385 -0.1665,-0.663386 h -0.26343 -0.26343 l -0.52429,0.859896 -0.52429,0.859895 -0.001,0.463021 -0.001,0.463021 h 0.52306 0.52307 l 0.43214,-0.659529 z m 12.00843,-2.058662 0.38982,-0.691389 -0.21416,-0.213439 -0.21417,-0.213439 -0.50639,0.624624 -0.50639,0.624624 v 0.389612 0.389613 l 0.33073,-0.109409 0.33073,-0.109408 z m -10.57629,-2.58909 v -0.248969 h -0.26458 -0.26459 v 0.41249 0.41249 l 0.26459,-0.163522 0.26458,-0.163521 z m 19.10292,6.577281 -0.3175,-0.3175 V 32.636758 32.07237 l 0.90917,-2.094674 0.90918,-2.094675 1.0752,-0.08136 1.0752,-0.08136 v 0.170788 0.170788 l -0.92604,2.106199 -0.92605,2.106198 v 0.273818 0.273817 l 0.27562,-0.09187 0.27561,-0.09187 1.18059,-2.621095 1.18058,-2.621096 0.10671,-0.106715 0.10672,-0.106716 0.81834,0.423179 0.81833,0.423179 v 0.233125 0.233125 l -0.77245,1.721654 -0.77245,1.721653 0.15509,0.155094 0.15509,0.155093 h 0.21128 0.21128 l 0.93359,-0.819705 0.9336,-0.819703 0.16354,0.426198 0.16355,0.426199 -0.34733,0.418507 -0.34733,0.418505 -1.33591,0.766268 -1.33592,0.766265 -0.5424,0.0024 -0.54239,0.0024 -0.2891,-0.289094 -0.28909,-0.289094 -0.54018,0.289094 -0.54018,0.289094 h -0.75823 -0.75822 l -0.3175,-0.3175 z M 73.039613,26.859841 72.889566,26.468822 73.892524,25.125401 74.89548,23.781979 h 0.167101 0.167097 l 0.48178,0.532359 0.481777,0.532358 -1.143016,0.988996 -1.143016,0.988996 -0.358769,0.213086 -0.358773,0.213086 z m 114.313527,0.0816 -0.17313,-0.28012 0.69213,-0.976651 0.69213,-0.976651 0.3949,-0.518343 0.39489,-0.518342 0.59184,0.595904 0.59184,0.595904 -1.32292,1.169044 -1.32292,1.169043 -0.18282,0.01017 -0.18282,0.01017 z m 16.40416,0 -0.17312,-0.28012 0.69213,-0.976651 0.69213,-0.976651 0.39489,-0.518343 0.3949,-0.518342 0.59184,0.595904 0.59184,0.595904 -1.32292,1.169044 -1.32292,1.169043 -0.18282,0.01017 -0.18282,0.01017 z m 23.28023,-1.062935 -0.68081,-1.078471 -0.14372,-0.374507 -0.14371,-0.374507 0.46664,-0.179064 0.46663,-0.179064 0.60143,0.754266 0.60143,0.754265 1.08606,-0.752638 1.08605,-0.752638 0.30916,0.309152 0.30915,0.309152 -1.3014,1.321263 -1.30139,1.321262 h -0.33736 -0.33735 z m -74.09741,-0.0232 -0.1903,-0.307919 0.73549,-0.632644 0.73549,-0.632645 0.69371,0.08067 0.6937,0.08067 0.0972,0.511679 0.0972,0.511678 -0.47622,0.348218 -0.47621,0.348217 h -0.85986 -0.85986 l -0.1903,-0.307919 z m -85.975515,-1.564302 -0.680807,-1.078471 -0.143714,-0.374507 -0.143711,-0.374507 0.466633,-0.179064 0.466635,-0.179064 0.601429,0.754265 0.60143,0.754265 1.086056,-0.752638 1.086057,-0.752638 0.309152,0.309152 0.309153,0.309152 -1.301396,1.321263 -1.301395,1.321263 h -0.337355 -0.337357 z m 80.433335,0 -0.68081,-1.078471 -0.14371,-0.374507 -0.14371,-0.374507 0.46663,-0.179064 0.46664,-0.179064 0.60143,0.754265 0.60143,0.754265 1.08605,-0.752638 1.08606,-0.752638 0.30915,0.309152 0.30915,0.309152 -1.30139,1.321263 -1.3014,1.321263 h -0.33735 -0.33736 z m 34.34067,0.747742 -0.26496,-0.330729 -0.56922,-1.129698 -0.56923,-1.129698 0.42071,-0.161441 0.42071,-0.161442 0.72224,0.691951 0.72224,0.69195 1.00758,-0.684671 1.00759,-0.684671 0.29333,0.293327 0.29332,0.293326 -1.3014,1.321263 -1.30139,1.321262 h -0.30828 -0.30828 z m 34.925,0 -0.26496,-0.330729 -0.56922,-1.129698 -0.56923,-1.129698 0.42071,-0.161441 0.42071,-0.161442 0.72224,0.691951 0.72224,0.69195 1.00758,-0.684671 1.00759,-0.684671 0.29333,0.293327 0.29332,0.293326 -1.30139,1.321263 -1.3014,1.321262 h -0.30828 -0.30828 z"
         id="path1662" />
      <path
         style="fill:#398abc;stroke-width:0.264583"
         d="M 2.2866921,27.883021 V 3.9382291 H 144.50024 286.71378 V 27.883021 51.827813 H 144.50024 2.2866921 Z m 53.0804369,1.322917 1.934536,-4.497917 0.0092,-0.463021 0.0092,-0.463021 h 0.901271 0.901272 l -0.144362,0.552039 -0.144362,0.55204 0.574291,-0.08902 0.574289,-0.08902 0.594188,1.056088 0.594188,1.056089 0.420825,0.08104 0.420825,0.08104 1.222528,-1.269424 1.222529,-1.269423 0.0031,-0.330729 0.0031,-0.33073 h -0.27862 -0.278622 l -0.967719,0.657582 -0.967718,0.657582 -0.736005,-0.705138 -0.736005,-0.705138 0.435851,-0.48161 0.435853,-0.481611 h -4.406633 -4.406632 v 0.529167 0.529166 h 1.190625 1.190625 v 0.161206 0.161206 l -1.227437,2.815357 -1.227434,2.815356 -0.885052,2.064203 -0.885053,2.064202 1.359398,-0.07983 1.359395,-0.07983 z m 6.764594,3.88017 1.425848,-0.750041 0.687213,0.750041 0.687213,0.750038 h 0.953677 0.953678 l 1.287145,-0.489077 1.287147,-0.489077 0.305433,0.489077 0.305435,0.489077 0.72536,-0.0058 0.725363,-0.0058 1.127618,-0.511826 1.127617,-0.511824 -0.27703,0.517634 -0.277032,0.517636 h 1.290003 1.29 l 1.129763,-2.645833 1.129765,-2.645834 h 0.357632 0.357635 l -0.903071,2.109891 -0.90307,2.109888 -0.286827,0.535945 -0.28683,0.535943 h 1.290003 1.29 l 1.129763,-2.645833 1.129765,-2.645834 h 0.371219 0.371221 l -0.377235,0.859896 -0.377235,0.859896 -0.598083,1.373002 -0.598085,1.373003 0.342707,0.412935 0.342706,0.412935 h 0.716513 0.71651 l 1.202402,-0.608732 1.202399,-0.608732 0.542213,0.608732 0.542211,0.608732 h 1.423281 1.423279 l 1.388835,-0.692086 1.388835,-0.692084 0.405712,-0.619197 0.405712,-0.619196 -0.184121,-0.297913 -0.184121,-0.297913 -0.698579,0.669115 -0.698583,0.669118 -0.983689,0.410912 -0.983689,0.410911 h -0.68753 -0.68753 l 0.08372,-0.727605 0.08372,-0.727604 0.661459,-0.06949 0.661458,-0.0695 0.990648,-0.271393 0.990645,-0.271391 0.398417,-0.770453 0.398415,-0.77043 V 28.56697 28.033973 L 90.674923,27.760081 90.16315,27.486188 h -0.951934 -0.951933 l -0.903211,0.377385 -0.903208,0.377386 -0.662784,1.307941 -0.662787,1.307942 -0.827056,0.695923 -0.827058,0.695923 h -0.376576 -0.376574 v -0.09937 -0.09937 l 0.661459,-1.495674 0.661458,-1.495675 v -0.468706 -0.468706 l -0.3175,-0.3175 -0.3175,-0.3175 H 82.684337 81.960728 L 81.291412,27.74066 80.622095,27.995134 80.464821,27.74066 80.30755,27.486187 h -0.79553 -0.795528 l -0.516382,0.276359 -0.51638,0.276358 -0.58343,-0.40865 -0.58343,-0.40865 h -0.17029 -0.170289 l -0.810643,1.812972 -0.810647,1.812973 -0.832577,0.700569 -0.832581,0.700569 H 72.513267 72.136694 V 32.14106 32.03343 l 0.79375,-1.769118 0.79375,-1.769119 v -0.19745 -0.19745 l -0.727604,-0.364709 -0.727605,-0.364709 -0.1584,-0.08334 -0.158398,-0.08334 -0.734915,1.662349 -0.734915,1.662348 -0.561895,0.620451 -0.561893,0.620453 -0.75859,0.394552 -0.758589,0.394555 0.42786,-0.610857 0.42786,-0.610854 V 30.699651 30.062147 L 68.149447,29.17601 67.601783,28.289872 68.017155,27.696846 68.432527,27.10382 V 26.501233 25.898646 H 67.65798 66.883434 l -0.54837,0.69714 -0.54837,0.697139 v 0.579657 0.579656 l -0.649934,0.61058 -0.649933,0.61058 -0.692081,0.998675 -0.692081,0.998673 -1.286722,0.553535 -1.286721,0.553532 H 59.850666 59.17211 v -0.375235 -0.375237 l 0.1606,-0.418513 0.160599,-0.418515 h 0.773941 0.77394 l 0.896247,-0.374476 0.896247,-0.374475 0.28588,-0.534173 0.28588,-0.534171 v -0.782837 -0.782837 l -0.418516,-0.160599 -0.418512,-0.160599 h -1.062855 -1.062853 l -0.901009,0.427557 -0.901012,0.427557 -0.792621,1.660791 -0.792623,1.660789 v 0.808924 0.808921 l 0.463021,0.269685 0.463021,0.269684 1.362194,0.008 1.362197,0.008 1.425847,-0.750038 z m 2.596637,-1.391931 v -0.554468 l 0.547182,-0.768448 0.547185,-0.768448 h 0.246565 0.246568 v 1.005416 1.005417 l -0.3175,0.3175 -0.3175,0.3175 h -0.47625 -0.47625 z m -4.7625,-1.443045 v -0.145431 l 0.40367,-0.780611 0.403669,-0.780611 h 0.257789 0.257789 v 0.48816 0.48816 l -0.483854,0.437882 -0.483854,0.437882 H 60.143464 59.96586 Z m 27.781251,-0.200084 v -0.389612 l 0.506391,-0.624624 0.506391,-0.624624 0.214167,0.213439 0.214165,0.213439 -0.389827,0.691389 -0.389829,0.691389 -0.330729,0.109408 -0.330729,0.109409 z M 67.10961,26.956979 v -0.264583 h 0.280199 0.280197 l -0.163521,0.264583 -0.16352,0.264584 H 67.226286 67.10961 Z m 32.780267,6.160149 1.086403,-0.537509 v 0.212489 0.21249 l 0.41577,0.415774 0.41578,0.415774 1.23787,-0.0016 1.23787,-0.0016 0.94333,-0.262056 0.94333,-0.262054 1.09499,-0.937263 1.09498,-0.937265 -0.14913,-0.388618 -0.14912,-0.388614 -0.88977,0.781227 -0.88977,0.781227 -0.99942,0.27754 -0.99942,0.277543 -0.44741,0.0016 -0.4474,0.0016 -0.16015,-0.259115 -0.16014,-0.259117 0.26721,-0.499271 0.2672,-0.499274 1.28963,-0.171074 1.28962,-0.171075 0.568,-0.604611 0.56801,-0.604611 0.16455,-0.822778 0.16456,-0.822779 -0.53997,-0.288981 -0.53996,-0.288981 -1.14188,9.79e-4 -1.14187,9.79e-4 -0.8779,0.535235 -0.87789,0.535235 -0.49744,1.124555 -0.49745,1.124555 -0.60903,0.555117 -0.60904,0.555114 -0.629743,0.325382 -0.62974,0.325382 0.431302,-0.615772 0.431305,-0.615773 v -0.637503 -0.637504 l -0.547663,-0.886137 -0.547664,-0.886138 0.415372,-0.593026 0.415372,-0.593006 v -0.602587 -0.602587 h -0.774547 -0.774546 l -0.54837,0.69714 -0.54837,0.697139 v 0.519031 0.519031 l -0.995135,1.130535 -0.995138,1.130533 -0.359979,0.672627 -0.359976,0.672624 0.980903,0.980905 0.980906,0.980906 1.272185,-0.122243 1.272186,-0.12224 z m -3.940683,-1.422951 v -0.554468 l 0.547182,-0.768448 0.547185,-0.768448 h 0.246565 0.246568 v 1.005416 1.005417 l -0.3175,0.3175 -0.3175,0.3175 h -0.47625 -0.47625 z m 8.387656,-2.223656 0.4416,-0.926042 h 0.3657 0.36571 l -0.18251,0.595313 -0.1825,0.595312 -0.2646,0.33073 -0.2646,0.330729 h -0.3602 -0.36019 z m -6.006406,-2.513542 v -0.264583 h 0.280199 0.280197 l -0.163521,0.264583 -0.16352,0.264584 H 98.44712 98.330444 Z m 15.205546,4.343953 1.05034,-2.532518 0.22403,-0.138461 0.22404,-0.138462 0.14934,0.149342 0.14935,0.149342 -0.88319,2.009682 -0.88319,2.009682 0.27991,0.447156 0.2799,0.44716 0.68825,0.0825 0.68824,0.0825 1.29736,-0.620895 1.29736,-0.620893 0.23667,0.538396 0.23667,0.538398 0.84767,0.082 0.84767,0.082 0.52534,-0.281149 0.52533,-0.281152 0.16396,0.2653 0.16397,0.265298 0.5797,-0.0058 0.57969,-0.0058 1.05834,-0.487498 1.05833,-0.487497 0.72505,-0.682321 0.72506,-0.682321 -0.15878,-0.413782 -0.15879,-0.413782 -0.9062,0.795661 -0.90621,0.79566 h -0.38767 -0.38767 v -0.275124 -0.275125 l 0.49934,-0.981646 0.49934,-0.981647 0.4215,-1.012044 0.4215,-1.012044 -1.04186,0.07522 -1.04186,0.07522 -0.18766,-0.187659 -0.18766,-0.187639 h -0.6305 -0.6305 l -0.78283,0.404818 -0.78283,0.404818 -0.81746,1.448459 -0.81746,1.448458 -0.67121,0.527974 -0.67121,0.527973 h -0.3612 -0.36119 v -0.140263 -0.140264 l 0.6836,-1.624153 0.68359,-1.624151 -0.28104,-0.616835 -0.28105,-0.616834 -0.86557,0.01859 -0.86557,0.0186 -0.52917,0.212176 -0.52916,0.212177 -0.73292,-0.372606 -0.73292,-0.372607 -0.49199,1.134021 -0.49199,1.134021 -0.7167,1.5875 -0.7167,1.5875 -0.23466,0.595312 -0.23465,0.595313 1.25022,-0.0013 1.25022,-0.0013 1.05034,-2.532518 z m 6.75487,1.132216 v -0.375893 l 0.79639,-1.756388 0.79638,-1.756388 h 0.26195 0.26195 v 0.23992 0.23992 l -0.76875,1.713387 -0.76874,1.713386 -0.28959,0.178975 -0.28959,0.178975 z m 11.62647,0.85815 1.17542,-0.533228 1.13793,-0.932448 1.13793,-0.932447 1.21874,-1.707916 1.21874,-1.707917 0.89968,-2.133214 0.89968,-2.133214 V 22.96728 22.723646 h -1.14516 -1.14515 l -0.8645,2.315104 -0.8645,2.315104 -1.0981,1.949439 -1.0981,1.94944 -0.749,0.630248 -0.74901,0.630248 h -0.24429 -0.24428 l 0.005,-0.330729 0.005,-0.330729 1.71483,-3.82008 1.71486,-3.820081 v -0.470089 -0.47009 l -0.53818,-0.288022 -0.53817,-0.288021 -1.24538,0.08028 -1.24539,0.08027 -0.0879,0.463021 -0.0879,0.46302 h 0.54857 0.54856 v 0.306066 0.306065 l -1.71979,3.822902 -1.71979,3.822902 v 0.743775 0.743776 l 0.33073,0.133453 0.33073,0.133453 0.66146,0.01508 0.66145,0.01508 1.17543,-0.533228 z m 7.16028,0.27955 0.49572,-0.2653 0.16397,0.2653 0.16396,0.265298 h 0.61897 0.61898 l 1.42585,-0.750038 1.42585,-0.750041 0.68721,0.750041 0.68721,0.750038 h 0.95368 0.95368 l 1.28714,-0.489077 1.28715,-0.489077 0.30543,0.489077 0.30544,0.489077 h 0.73955 0.73956 l 1.33919,-0.667345 1.33918,-0.667343 0.46465,-0.513426 0.46464,-0.513427 -0.16603,-0.432684 -0.16604,-0.432683 -0.93359,0.819703 -0.93359,0.819705 h -0.38767 -0.38767 v -0.107627 -0.10763 l 0.79375,-1.769118 0.79375,-1.769119 v -0.19745 -0.19745 l -0.72761,-0.364709 -0.7276,-0.364709 -0.1584,-0.08334 -0.1584,-0.08334 -0.73491,1.662349 -0.73492,1.662348 -0.56189,0.620451 -0.5619,0.620453 -0.75859,0.394552 -0.75859,0.394555 0.42787,-0.610857 0.42786,-0.610854 v -0.637503 -0.637504 l -0.54767,-0.886137 -0.54766,-0.886138 0.41537,-0.593026 0.41537,-0.593026 V 26.50123 25.898643 h -0.77454 -0.77455 l -0.54837,0.69714 -0.54837,0.697139 v 0.52422 0.52422 l -1.60342,1.808572 -1.60342,1.808572 -0.53319,0.169228 -0.53318,0.169225 -0.12157,-0.121568 -0.12157,-0.121568 0.93526,-2.052289 0.93526,-2.052287 v -0.119493 -0.119492 l -1.04707,0.0756 -1.04706,0.0756 -0.18766,-0.187659 -0.18766,-0.18766 h -0.795 -0.79501 l -1.10913,1.157553 -1.10913,1.157553 -0.43302,1.270829 -0.43301,1.270831 v 0.468887 0.468886 l 0.46302,0.269685 0.46302,0.269684 0.6127,0.008 0.61271,0.008 0.49571,-0.265298 z m -0.5305,-1.05529 v -0.262255 l 0.82918,-1.854412 0.82917,-1.854412 h 0.22916 0.22916 v 0.309628 0.309626 l -0.83292,1.807039 -0.83292,1.807041 h -0.22541 -0.22542 z m 6.61459,-0.821381 v -0.554468 l 0.54718,-0.768448 0.54718,-0.768448 h 0.24657 0.24657 v 1.005416 1.005417 l -0.3175,0.3175 -0.3175,0.3175 h -0.47625 -0.47625 z m 2.38125,-4.737198 v -0.264583 h 0.28019 0.2802 l -0.16352,0.264583 -0.16352,0.264584 h -0.11668 -0.11667 z m 12.96592,6.613869 0.49571,-0.2653 0.16397,0.2653 0.16396,0.265298 h 0.601 0.601 l 1.21653,-0.615884 1.21653,-0.615884 0.12331,0.471544 0.12331,0.471543 0.73604,0.184734 0.73604,0.184735 0.74594,-0.281562 0.74595,-0.281564 0.14905,0.24117 0.14905,0.241168 h 0.601 0.601 l 1.2024,-0.608732 1.2024,-0.608732 0.54222,0.608732 0.54221,0.608732 h 0.77429 0.77428 l 0.89938,-0.305051 0.89938,-0.305052 0.7023,-0.488698 0.70231,-0.488699 h 0.15759 0.15759 v 0.381873 0.381871 l 0.58804,0.411879 0.58804,0.411877 0.93332,-0.01161 0.93331,-0.01161 0.92604,-0.349525 0.92604,-0.349528 0.46303,-0.196334 0.46302,-0.196334 v 0.420142 0.420143 l 0.67293,0.168894 0.67293,0.168896 1.12397,-0.429246 1.12397,-0.429247 0.89485,-0.747054 0.89484,-0.747053 -0.196,-0.508908 -0.196,-0.50891 -0.25994,0.463026 -0.25994,0.463026 -0.76746,0.39687 -0.76746,0.39687 h -0.14543 -0.14543 v -0.370602 -0.370605 l 0.65887,-1.415334 0.65888,-1.415335 0.003,-0.323934 0.003,-0.323935 -0.81834,-0.423179 -0.81834,-0.423179 -0.0682,0.08566 -0.0682,0.08565 -0.94707,1.991409 -0.94707,1.991409 -1.12112,0.630105 -1.12112,0.630105 0.44117,-0.629864 0.44117,-0.629865 -10e-4,-0.668734 -0.001,-0.668732 -0.52962,-0.86866 -0.52962,-0.86866 0.56625,-0.765887 0.56624,-0.765886 -0.15963,-0.415974 -0.1596,-0.415972 h -0.76105 -0.76104 l -0.41727,0.463021 -0.41727,0.463021 -0.19572,0.783906 -0.19572,0.783906 -1.17675,1.465052 -1.17676,1.465052 -0.56637,0.457137 -0.56637,0.457139 -0.85989,0.0059 -0.8599,0.0059 V 31.973565 31.69844 l 0.53454,-1.047792 0.53455,-1.047792 h 0.21158 0.21158 l 1.13894,-0.974891 1.13894,-0.974892 0.76077,-1.695605 0.76077,-1.695606 v -0.608487 -0.608488 l -0.41852,-0.160599 -0.41851,-0.160599 -0.83826,9.79e-4 -0.83826,9.79e-4 -0.81298,0.495759 -0.81298,0.495759 -1.55194,3.488332 -1.55194,3.488332 -0.88543,0.77742 -0.88543,0.77742 h -0.38767 -0.38767 v -0.117634 -0.117633 l 0.92604,-2.032065 0.92605,-2.032064 V 27.82978 27.710287 l -1.04707,0.0756 -1.04706,0.0756 -0.18766,-0.187659 -0.18766,-0.18764 h -0.72935 -0.72935 l -0.83502,0.702623 -0.83502,0.702624 -0.77452,1.372364 -0.77451,1.372363 -0.67218,0.306263 -0.67217,0.306263 h -0.11984 -0.11984 v -0.364297 -0.364297 l 1.74352,-3.802891 1.74351,-3.80289 0.23431,-0.595312 0.23431,-0.595313 h -1.19944 -1.19945 l -1.08465,2.38125 -1.08465,2.38125 h -0.71294 -0.71294 l -0.89418,0.602592 -0.89419,0.602592 -0.72438,1.447929 -0.72438,1.447929 -0.15949,0.689567 -0.15949,0.689571 0.43491,0.434909 0.43491,0.434911 h 0.65996 0.65995 z m -0.40094,-1.313629 0.1851,-0.5832 0.6535,-1.427419 0.65349,-1.427419 0.26511,-0.163845 0.2651,-0.163845 0.10039,0.100385 0.10039,0.100385 -0.89904,1.972396 -0.89903,1.972395 -0.30506,0.101685 -0.30505,0.101684 z m 7.01418,0.258339 v -0.262255 l 0.82918,-1.854412 0.82917,-1.854412 h 0.22916 0.22916 v 0.309628 0.309626 l -0.83292,1.807039 -0.83292,1.807041 h -0.22541 -0.22542 z m 11.90724,-0.729933 0.001,-0.463021 0.52429,-0.859895 0.52429,-0.859896 h 0.26343 0.26343 l 0.1665,0.663386 0.1665,0.663385 -0.43214,0.659533 -0.43214,0.659529 h -0.52307 -0.52307 l 0.001,-0.463021 z m -2.30398,-4.311519 0.39515,-0.914002 0.56943,-1.25677 0.56943,-1.256771 h 0.2522 0.2522 v 0.131585 0.131586 l -0.80007,1.693343 -0.80006,1.693342 -0.41672,0.345844 -0.41672,0.345844 z m 4.68424,-0.36922 v -0.41249 h 0.26459 0.26458 v 0.248969 0.248968 l -0.26458,0.163521 -0.26459,0.163522 z m 13.25536,4.085427 1.15105,-2.645834 h 0.33742 0.33742 v 0.0957 0.0957 l -0.8087,1.783556 -0.8087,1.783554 0.0811,0.700437 0.0811,0.700437 0.79375,0.07751 0.79375,0.07751 1.25125,-0.634045 1.25126,-0.634042 0.15544,0.48977 0.15545,0.489771 0.69048,0.173302 0.69049,0.173299 0.69149,-0.261011 0.6915,-0.261009 0.45173,0.284943 0.45173,0.284943 1.25751,-0.478444 1.25751,-0.47844 0.46302,-0.14591 0.46302,-0.14591 v 0.422693 0.422693 l 0.6632,0.166452 0.6632,0.166452 0.92995,-0.174463 0.92996,-0.174461 0.93917,-0.824598 0.93916,-0.824598 0.91131,-1.809613 0.91131,-1.809614 -0.86394,-0.526749 -0.86394,-0.526749 -0.19844,-9.89e-4 -0.19844,-9.89e-4 v 0.300116 0.300117 l -1.17384,2.478008 -1.17385,2.478009 h -0.29919 -0.2992 l 0.17433,-0.549241 0.17432,-0.54924 0.89516,-1.964301 0.89516,-1.964302 h -1.12507 -1.12507 l -0.76194,1.748982 -0.76194,1.748982 -0.81829,0.498988 -0.81829,0.498986 -0.19844,0.0011 -0.19843,0.0011 v -0.360278 -0.360281 l 0.79375,-1.750577 0.79375,-1.750579 V 27.87825 27.72943 l -0.99219,0.01216 -0.99219,0.01216 -0.94415,-0.157074 -0.94415,-0.157075 -0.8548,0.719262 -0.85479,0.719262 -0.62274,1.222306 -0.62274,1.222306 -0.83778,0.4888 -0.83778,0.488801 -0.16817,-0.168169 -0.16816,-0.168169 0.34782,-0.849799 0.34782,-0.849797 0.28478,-0.971889 0.28479,-0.97189 -0.34623,-0.417173 -0.34622,-0.417312 -0.8275,0.0041 -0.8275,0.0041 -0.38123,0.241211 -0.38123,0.241212 -0.76784,-0.397064 -0.76783,-0.397065 -0.0826,0.08566 -0.0826,0.08565 -1.19109,2.690533 -1.19109,2.690534 -0.17475,0.550613 -0.17476,0.550612 h 1.17518 1.17519 l 1.15106,-2.645834 z m 6.58774,1.389062 -5.3e-4,-0.198437 0.84222,-1.918229 0.84222,-1.91823 h 0.34906 0.34906 v 0.117634 0.117633 l -0.91099,1.999034 -0.91099,1.999033 h -0.27964 -0.27963 l -5.3e-4,-0.198438 z m 15.87565,0.884018 0.92605,-0.349528 0.46302,-0.196334 0.46302,-0.196334 v 0.420143 0.420142 l 0.69151,0.173559 0.69153,0.173561 1.40726,-0.583279 1.40726,-0.583279 0.54705,0.547052 0.54705,0.54705 h 1.41037 1.41037 l 1.22994,-0.622678 1.22995,-0.622676 0.15545,0.48977 0.15544,0.489771 0.6678,0.167605 0.66779,0.167606 1.02244,-0.30633 1.02244,-0.306331 0.79032,-0.665012 0.79032,-0.665009 0.8091,-1.61916 0.80911,-1.619159 v -0.312145 -0.312146 l -0.72761,-0.364709 -0.7276,-0.364709 -0.15908,-0.08357 -0.15908,-0.08357 -0.475,1.265701 -0.47499,1.2657 -0.7588,1.521355 -0.75879,1.521354 h -0.26078 -0.26077 v -0.249926 -0.249925 l 0.92604,-2.032064 0.92604,-2.032065 V 27.982272 27.75072 h -1.02575 -1.02575 l -0.58992,1.389063 -0.58991,1.389062 -0.56715,0.630217 -0.56714,0.630216 -1.05834,0.488453 -1.05833,0.488452 -0.74518,0.0058 -0.74518,0.0058 0.0837,-0.727604 0.0837,-0.727604 0.66146,-0.0695 0.66146,-0.06949 0.99065,-0.271394 0.99064,-0.271391 0.39842,-0.770453 0.39841,-0.770472 v -0.532997 -0.532997 l -0.51177,-0.273892 -0.51177,-0.273893 h -0.95194 -0.95193 l -0.88975,0.371763 -0.88975,0.371763 -0.88769,1.643012 -0.88769,1.643013 -0.71691,0.421267 -0.7169,0.421267 -0.18253,-0.182525 -0.18253,-0.182526 0.76715,-1.705382 0.76714,-1.705384 0.46302,-0.126489 0.46302,-0.126489 v -0.289353 -0.289354 h -0.25518 -0.25518 l 0.51976,-1.190625 0.51977,-1.190625 0.51976,-1.190625 0.51977,-1.190625 h -1.27726 -1.27726 l -0.99855,2.38125 -0.99856,2.38125 h -0.33231 -0.33231 l -0.14574,0.379781 -0.14573,0.379781 0.29417,0.09806 0.29417,0.09806 -0.72829,1.338103 -0.72829,1.338102 -1.08025,0.607137 -1.08025,0.607137 0.44117,-0.629865 0.44117,-0.629864 -0.001,-0.668734 -10e-4,-0.668732 -0.52962,-0.868661 -0.52962,-0.86866 0.56624,-0.765886 0.56625,-0.765886 -0.15963,-0.415975 -0.15948,-0.415974 h -0.76105 -0.76104 l -0.41727,0.463021 -0.41727,0.463021 -0.18699,0.79375 -0.18699,0.79375 -0.59045,0.661458 -0.59046,0.661458 -0.69838,1.053606 -0.69838,1.053608 v 0.327152 0.327152 l 0.39688,-0.152295 0.39687,-0.152296 v 0.410181 0.410178 l 0.58804,0.411879 0.58804,0.411877 0.93332,-0.01161 0.93331,-0.01161 0.92604,-0.349525 z m -3.17401,-1.677768 0.001,-0.463021 0.52429,-0.859895 0.52429,-0.859896 h 0.26343 0.26343 l 0.1665,0.663386 0.1665,0.663385 -0.43214,0.659533 -0.43214,0.659529 h -0.52307 -0.52307 l 0.001,-0.463021 z m 12.43443,-1.734577 v -0.389612 l 0.50639,-0.624624 0.50639,-0.624624 0.21417,0.213439 0.21416,0.213439 -0.38982,0.691389 -0.38983,0.691389 -0.33073,0.109408 -0.33073,0.109409 z m -10.05417,-2.946162 v -0.41249 h 0.26459 0.26458 v 0.248969 0.248968 l -0.26458,0.163521 -0.26459,0.163522 z m 22.00622,6.442166 0.54018,-0.289094 0.28909,0.289094 0.2891,0.289094 0.54239,-0.0024 0.5424,-0.0024 1.33592,-0.766265 1.33591,-0.766268 0.34733,-0.418505 0.34733,-0.418507 -0.16355,-0.426199 -0.16354,-0.426199 -0.9336,0.819703 -0.93359,0.819706 h -0.21128 -0.21128 l -0.15509,-0.155094 -0.15509,-0.155093 0.77245,-1.721653 0.77245,-1.721654 v -0.233125 -0.233126 l -0.81833,-0.423178 -0.81834,-0.423179 -0.10672,0.106715 -0.10671,0.106716 -1.18058,2.621096 -1.18059,2.621094 -0.27561,0.09187 -0.27562,0.09187 V 32.548297 32.27448 l 0.92605,-2.106199 0.92604,-2.106199 v -0.170787 -0.170788 l -1.0752,0.08136 -1.0752,0.08115 -0.90918,2.094675 -0.90917,2.094674 v 0.564388 0.564388 l 0.3175,0.3175 0.3175,0.3175 h 0.75822 0.75823 z m -163.290611,-7.71136 1.143016,-0.988996 -0.481777,-0.532358 -0.48178,-0.532359 H 75.062581 74.89548 l -1.002956,1.343422 -1.002958,1.343421 0.150047,0.391019 0.150048,0.391019 0.358773,-0.213086 0.358769,-0.213086 z m 114.164601,0.196496 1.32292,-1.169044 -0.59184,-0.595904 -0.59184,-0.595904 -0.39489,0.518342 -0.3949,0.518343 -0.69213,0.976651 -0.69213,0.976651 0.17313,0.28012 0.17312,0.28012 0.18282,-0.01017 0.18282,-0.01017 1.32292,-1.169043 z m 16.40417,0 1.32292,-1.169044 -0.59184,-0.595904 -0.59184,-0.595904 -0.3949,0.518342 -0.39489,0.518343 -0.69213,0.976651 -0.69213,0.976651 0.17312,0.28012 0.17313,0.28012 0.18282,-0.01017 0.18282,-0.01017 1.32292,-1.169043 z m 24.07545,-0.396471 1.3014,-1.321263 -0.30915,-0.309152 -0.30916,-0.309152 -1.08605,0.752638 -1.08606,0.752638 -0.60143,-0.754265 -0.60143,-0.754266 -0.46663,0.179064 -0.46664,0.179064 0.14371,0.374507 0.14372,0.374507 0.68081,1.078471 0.68081,1.078471 h 0.33735 0.33736 z m -74.36809,0.179295 0.47622,-0.348217 -0.0972,-0.511679 -0.0972,-0.511678 -0.6937,-0.08067 -0.69371,-0.08067 -0.73549,0.632644 -0.73549,0.632644 0.1903,0.307919 0.1903,0.307919 h 0.85986 0.85986 z m -85.704828,-1.766795 1.301396,-1.321263 -0.309153,-0.309152 -0.309152,-0.309152 -1.086057,0.752638 -1.086056,0.752638 -0.60143,-0.754265 -0.601429,-0.754266 -0.466635,0.179064 -0.466633,0.179064 0.143711,0.374507 0.143714,0.374507 0.680807,1.078471 0.68081,1.078471 h 0.337357 0.337355 z m 80.433338,0 1.30139,-1.321263 -0.30915,-0.309152 -0.30915,-0.309152 -1.08606,0.752638 -1.08605,0.752638 -0.60143,-0.754265 -0.60143,-0.754266 -0.46664,0.179064 -0.46663,0.179064 0.14371,0.374507 0.14371,0.374507 0.68081,1.078471 0.68081,1.078471 h 0.33736 0.33735 z m 33.86666,0 1.3014,-1.321263 -0.29332,-0.293326 -0.29333,-0.293327 -1.00759,0.684671 -1.00758,0.684671 -0.72224,-0.69195 -0.72224,-0.691951 -0.42071,0.161442 -0.42071,0.161441 0.56923,1.129698 0.56922,1.129698 0.26496,0.330729 0.26496,0.330729 h 0.30828 0.30828 z m 34.92501,0 1.30139,-1.321263 -0.29332,-0.293326 -0.29333,-0.293327 -1.00759,0.684671 -1.00758,0.684671 -0.72224,-0.69195 -0.72224,-0.691951 -0.42071,0.161442 -0.42071,0.161441 0.56923,1.129698 0.56922,1.129698 0.26496,0.330729 0.26496,0.330729 h 0.30828 0.30828 z"
         id="path1664" />
    </g>
  </g>
</svg>
