<?xml version="1.0" encoding="UTF-8" standalone="no"?>
<!-- Created with Inkscape (http://www.inkscape.org/) -->

<svg
   xmlns:dc="http://purl.org/dc/elements/1.1/"
   xmlns:cc="http://creativecommons.org/ns#"
   xmlns:rdf="http://www.w3.org/1999/02/22-rdf-syntax-ns#"
   xmlns:svg="http://www.w3.org/2000/svg"
   xmlns="http://www.w3.org/2000/svg"
   xmlns:sodipodi="http://sodipodi.sourceforge.net/DTD/sodipodi-0.dtd"
   xmlns:inkscape="http://www.inkscape.org/namespaces/inkscape"
   width="20mm"
   height="20.000031mm"
   viewBox="0 0 20 20.000031"
   version="1.1"
   id="svg8"
   inkscape:version="0.92.1 r15371"
   sodipodi:docname="top_arrow.svg">
  <defs
     id="defs2" />
  <sodipodi:namedview
     id="base"
     pagecolor="#ffffff"
     bordercolor="#666666"
     borderopacity="1.0"
     inkscape:pageopacity="0.0"
     inkscape:pageshadow="2"
     inkscape:zoom="2.8"
     inkscape:cx="236.91344"
     inkscape:cy="90.785538"
     inkscape:document-units="mm"
     inkscape:current-layer="layer1"
     showgrid="false"
     inkscape:window-width="1920"
     inkscape:window-height="1027"
     inkscape:window-x="0"
     inkscape:window-y="30"
     inkscape:window-maximized="1" />
  <metadata
     id="metadata5">
    <rdf:RDF>
      <cc:Work
         rdf:about="">
        <dc:format>image/svg+xml</dc:format>
        <dc:type
           rdf:resource="http://purl.org/dc/dcmitype/StillImage" />
        <dc:title></dc:title>
      </cc:Work>
    </rdf:RDF>
  </metadata>
  <g
     inkscape:label="Layer 1"
     inkscape:groupmode="layer"
     id="layer1"
     transform="translate(0,-277)">
    <path
       style="fill:#000000;stroke-width:0.38634059"
       d="m 1.1428525,282.44658 c 2.23393,-4.33309 7.17026,-6.40695 11.9464105,-5.01896 3.56959,1.03735 6.49387,4.72987 6.84395,8.64191 0.11111,1.24094 0.0804,2.25625 -0.0682,2.25625 -0.14855,0 -2.42494,-1.56108 -5.05865,-3.46907 l -4.78857,-3.46907 -4.4936505,3.19677 c -2.47151,1.75822 -4.70954999,3.32963 -4.97340999,3.49202 -0.98455,0.60593 -0.56471,-3.38601 0.59210999,-5.62985 z m 4.67397,7.8317 c 2.48941,-1.78849 4.11226,-2.7112 4.5019405,-2.55968 0.33511,0.1303 2.22901,1.40033 4.20865,2.82228 l 3.59933,2.58537 -1.04085,1.10085 c -3.48614,3.68711 -10.6721805,3.69931 -14.0733505,0.0239 l -1.08834,-1.1761 3.89262,-2.79661 z"
       id="path4518"
       inkscape:connector-curvature="0" />
  </g>
</svg>
